<svg width="1280" height="456" viewBox="0 0 1280 456" fill="none" xmlns="http://www.w3.org/2000/svg">
<path opacity="0.02" fill-rule="evenodd" clip-rule="evenodd" d="M201.987 430.467C313.534 430.467 403.96 340.041 403.96 228.496C403.96 116.95 313.534 26.5244 201.987 26.5244C90.4409 26.5244 0.0141602 116.95 0.0141602 228.496C0.0141602 340.041 90.4409 430.467 201.987 430.467ZM201.309 353.848C270.255 353.848 326.146 297.956 326.146 229.011C326.146 160.066 270.255 104.175 201.309 104.175C132.363 104.175 76.4714 160.066 76.4714 229.011C76.4714 297.956 132.363 353.848 201.309 353.848Z" fill="white"/>
<path opacity="0.02" fill-rule="evenodd" clip-rule="evenodd" d="M639.595 455.73C765.443 455.73 867.462 353.711 867.462 227.865C867.462 102.019 765.443 0 639.595 0C513.747 0 411.728 102.019 411.728 227.865C411.728 353.711 513.747 455.73 639.595 455.73ZM638.83 369.287C716.614 369.287 779.672 306.231 779.672 228.446C779.672 150.662 716.614 87.6052 638.83 87.6052C561.044 87.6052 497.987 150.662 497.987 228.446C497.987 306.231 561.044 369.287 638.83 369.287Z" fill="white"/>
<path opacity="0.02" fill-rule="evenodd" clip-rule="evenodd" d="M1077.2 430.467C1188.75 430.467 1279.18 340.041 1279.18 228.496C1279.18 116.951 1188.75 26.5244 1077.2 26.5244C965.654 26.5244 875.23 116.951 875.23 228.496C875.23 340.041 965.654 430.467 1077.2 430.467ZM1076.53 353.848C1145.47 353.848 1201.36 297.956 1201.36 229.011C1201.36 160.066 1145.47 104.175 1076.53 104.175C1007.58 104.175 951.688 160.066 951.688 229.011C951.688 297.956 1007.58 353.848 1076.53 353.848Z" fill="white"/>
</svg>
