<svg width="249" height="89" viewBox="0 0 249 89" fill="none" xmlns="http://www.w3.org/2000/svg">
<path d="M241.877 0.375732H7.12308C3.40178 0.375732 0.385071 3.39238 0.385071 7.1136V81.8064C0.385071 85.5276 3.40178 88.5443 7.12308 88.5443H241.877C245.598 88.5443 248.615 85.5276 248.615 81.8064V7.1136C248.615 3.39238 245.598 0.375732 241.877 0.375732Z" fill="white"/>
<path d="M241.877 0.375732H7.12308C3.40178 0.375732 0.385071 3.39238 0.385071 7.1136V81.8064C0.385071 85.5276 3.40178 88.5443 7.12308 88.5443H241.877C245.598 88.5443 248.615 85.5276 248.615 81.8064V7.1136C248.615 3.39238 245.598 0.375732 241.877 0.375732Z" stroke="#DFE2E6" stroke-width="0.751485"/>
<path d="M77.3714 41.8694C77.3714 29.8374 67.6175 20.0835 55.5855 20.0835C43.5535 20.0835 33.7997 29.8374 33.7997 41.8694C33.7997 53.9014 43.5535 63.6552 55.5855 63.6552C67.6175 63.6552 77.3714 53.9014 77.3714 41.8694Z" fill="#DFE7E7"/>
<path d="M66.9399 34.3937V45.045C66.9399 45.1645 66.9163 45.283 66.8704 45.3933C66.8246 45.5038 66.7573 45.6041 66.6726 45.6884C66.5879 45.7727 66.4874 45.8396 66.3768 45.885C66.2661 45.9304 66.1477 45.9535 66.0281 45.9531H45.5132C45.3936 45.9535 45.2752 45.9303 45.1646 45.8849C45.0541 45.8394 44.9536 45.7727 44.869 45.6883C44.7842 45.6039 44.7171 45.5037 44.6712 45.3932C44.6254 45.2829 44.6017 45.1645 44.6017 45.045V34.3937C44.6017 34.2742 44.6254 34.1558 44.6712 34.0455C44.7171 33.935 44.7842 33.8348 44.869 33.7504C44.9536 33.666 45.0541 33.5992 45.1646 33.5538C45.2752 33.5084 45.3936 33.4852 45.5132 33.4856H66.0281C66.1477 33.4852 66.2661 33.5083 66.3768 33.5537C66.4874 33.5991 66.5879 33.6659 66.6726 33.7502C66.7573 33.8346 66.8246 33.9349 66.8704 34.0454C66.9163 34.1557 66.9399 34.2742 66.9399 34.3937Z" fill="#4DB11A"/>
<path d="M66.9399 32.2247V42.8756C66.9399 42.9952 66.9163 43.1136 66.8704 43.224C66.8246 43.3344 66.7573 43.4347 66.6726 43.5191C66.5879 43.6034 66.4874 43.6702 66.3768 43.7157C66.2661 43.761 66.1477 43.7842 66.0281 43.7837H45.5132C45.3936 43.7841 45.2752 43.761 45.1646 43.7156C45.0541 43.6701 44.9536 43.6033 44.869 43.5189C44.7842 43.4346 44.7171 43.3343 44.6712 43.2239C44.6254 43.1135 44.6017 42.9951 44.6017 42.8756V32.2247C44.6017 32.1052 44.6254 31.9869 44.6712 31.8764C44.7171 31.7661 44.7842 31.6658 44.869 31.5814C44.9536 31.4971 45.0541 31.4302 45.1646 31.3848C45.2752 31.3393 45.3936 31.3162 45.5132 31.3167H66.0281C66.1477 31.3161 66.2661 31.3392 66.3768 31.3847C66.4874 31.4301 66.5879 31.4969 66.6726 31.5813C66.7573 31.6657 66.8246 31.7659 66.8704 31.8763C66.9163 31.9868 66.9399 32.1051 66.9399 32.2247Z" fill="#86D728"/>
<path d="M46.2552 40.0385V35.0634C46.8285 35.0634 47.3782 34.8357 47.7836 34.4304C48.1889 34.025 48.4166 33.4753 48.4166 32.9021H63.1195C63.1195 33.1858 63.1754 33.4669 63.284 33.7292C63.3926 33.9914 63.5518 34.2297 63.7525 34.4304C64.1578 34.8357 64.7076 35.0634 65.2808 35.0634V40.0385C64.7076 40.0385 64.1578 40.2663 63.7525 40.6716C63.3472 41.0769 63.1195 41.6267 63.1195 42.1999H48.417C48.417 41.916 48.3611 41.6349 48.2524 41.3727C48.1438 41.1104 47.9845 40.8722 47.7838 40.6715C47.583 40.4708 47.3448 40.3115 47.0825 40.2029C46.8203 40.0944 46.5392 40.0384 46.2552 40.0385Z" fill="#4DB11A"/>
<path d="M55.7644 40.9292C57.224 40.9292 58.4073 39.4171 58.4073 37.5518C58.4073 35.6864 57.224 34.1743 55.7644 34.1743C54.3049 34.1743 53.1216 35.6864 53.1216 37.5518C53.1216 39.4171 54.3049 40.9292 55.7644 40.9292Z" fill="white"/>
<path d="M61.5289 53.5751C64.7907 53.5751 67.4349 50.9308 67.4349 47.669C67.4349 44.4071 64.7907 41.7629 61.5289 41.7629C58.267 41.7629 55.6229 44.4071 55.6229 47.669C55.6229 50.9308 58.267 53.5751 61.5289 53.5751Z" fill="#FFE912"/>
<path d="M61.5307 51.7564C63.7872 51.7564 65.6165 49.9271 65.6165 47.6706C65.6165 45.414 63.7872 43.5847 61.5307 43.5847C59.2741 43.5847 57.4448 45.414 57.4448 47.6706C57.4448 49.9271 59.2741 51.7564 61.5307 51.7564Z" fill="#F7AD2B"/>
<path d="M45.5136 46.1146H55.4079C55.3104 46.5574 55.2612 47.0095 55.2612 47.4629C55.2612 50.9221 58.0757 53.7366 61.5349 53.7366C64.9941 53.7366 67.8086 50.9221 67.8086 47.4629C67.8086 46.5917 67.6311 45.7569 67.2914 44.9807C67.3194 44.7361 67.3076 32.0569 67.3076 32.02C67.3072 31.6811 67.1724 31.3562 66.9328 31.1165C66.6931 30.8769 66.3682 30.7421 66.0293 30.7417H45.5136C45.1742 30.7416 44.8487 30.8761 44.6083 31.1157C44.3679 31.3554 44.2325 31.6806 44.2316 32.02V44.8363C44.2325 45.1757 44.3679 45.5009 44.6083 45.7405C44.8487 45.9802 45.1742 46.1147 45.5136 46.1146ZM44.9683 44.8363V43.8232C45.0126 43.8443 45.2145 43.9087 45.2421 43.9146C45.3298 43.9334 45.4204 43.9448 45.5136 43.9448H56.3395C56.0386 44.3899 55.7955 44.8714 55.6159 45.3778H45.5136C45.213 45.3778 44.9683 45.1347 44.9683 44.8363ZM61.5349 52.9998C58.4821 52.9998 55.998 50.5162 55.998 47.4629C55.998 44.3485 58.5569 41.8884 61.6104 41.93C64.6685 41.9721 67.0718 44.4635 67.0718 47.4629C67.0718 50.5162 64.5882 52.9998 61.5349 52.9998ZM62.8431 41.3255C62.3258 41.2195 61.7975 41.177 61.27 41.1992C60.5387 41.2298 59.8481 41.3833 59.2354 41.624H48.7621C48.682 41.086 48.4311 40.588 48.0466 40.2034C47.6621 39.8188 47.1641 39.5681 46.6261 39.488V35.1985C47.164 35.1183 47.6619 34.8675 48.0464 34.4829C48.4309 34.0983 48.6816 33.6004 48.7617 33.0626H62.7812C62.8612 33.6004 63.112 34.0983 63.4965 34.4829C63.881 34.8675 64.3788 35.1183 64.9167 35.1985V39.4873C64.4293 39.5578 63.9734 39.7695 63.6049 40.0961C63.2364 40.4228 62.9716 40.8502 62.8431 41.3255ZM44.9683 32.02C44.9683 31.7216 45.213 31.4784 45.5136 31.4784H66.0293C66.3277 31.4784 66.5709 31.7216 66.5709 32.02V42.6701C66.5709 42.8864 66.4452 43.1026 66.1361 43.197C65.4273 42.4353 64.5414 41.8605 63.557 41.5237C63.6585 41.1432 63.8829 40.8069 64.1955 40.5671C64.508 40.3274 64.8909 40.1977 65.2848 40.1983C65.3825 40.1983 65.4761 40.1594 65.5452 40.0903C65.6143 40.0212 65.6532 39.9276 65.6532 39.8299V34.8566C65.6532 34.7589 65.6143 34.6652 65.5452 34.5961C65.4761 34.527 65.3825 34.4882 65.2848 34.4882C64.8091 34.4877 64.3531 34.2986 64.0167 33.9622C63.6804 33.6259 63.4912 33.1698 63.4907 32.6942C63.4907 32.5964 63.4519 32.5027 63.3828 32.4336C63.3137 32.3645 63.22 32.3258 63.1223 32.3258H48.4202C48.3225 32.3258 48.2288 32.3645 48.1598 32.4336C48.0907 32.5027 48.0518 32.5964 48.0518 32.6942C48.0514 33.1698 47.8621 33.6259 47.5258 33.9622C47.1894 34.2986 46.7334 34.4877 46.2577 34.4882C46.1601 34.4882 46.0664 34.527 45.9973 34.5961C45.9282 34.6652 45.8894 34.7589 45.8894 34.8566V39.8299C45.8894 39.9276 45.9282 40.0212 45.9973 40.0903C46.0664 40.1594 46.1601 40.1983 46.2577 40.1983C46.7334 40.1987 47.1894 40.3879 47.5258 40.7242C47.8621 41.0606 48.0514 41.5166 48.0518 41.9924C48.0518 42.09 48.0907 42.1837 48.1598 42.2528C48.2288 42.3219 48.3225 42.3607 48.4202 42.3607H57.8864C57.4837 42.6499 57.0218 43.1056 56.9275 43.208H45.5136C45.2078 43.208 44.9683 42.9715 44.9683 42.6701V32.02Z" fill="black"/>
<path d="M55.7722 33.595C54.1115 33.595 52.7606 35.2752 52.7606 37.3408C52.7606 39.4064 54.1115 41.0862 55.7722 41.0862C57.4329 41.0862 58.7838 39.4064 58.7838 37.3408C58.7838 35.2752 57.4329 33.595 55.7722 33.595ZM55.7722 40.3495C54.5178 40.3495 53.4974 38.9996 53.4974 37.3408C53.4974 35.6816 54.5178 34.3318 55.7722 34.3318C57.0265 34.3318 58.047 35.6816 58.047 37.3408C58.047 38.9996 57.0265 40.3495 55.7722 40.3495Z" fill="black"/>
<path d="M55.7671 37.1555C55.4649 37.1555 55.2189 36.9098 55.2189 36.6077C55.2189 36.3056 55.4646 36.0595 55.7666 36.0595C56.0688 36.0595 56.3145 36.3052 56.3145 36.6077C56.3145 36.6566 56.3339 36.7034 56.3685 36.7379C56.403 36.7725 56.4498 36.7919 56.4986 36.7919C56.5475 36.7919 56.5944 36.7725 56.6289 36.7379C56.6634 36.7034 56.6829 36.6566 56.6829 36.6077C56.6826 36.3963 56.6094 36.1915 56.4757 36.0279C56.3419 35.8643 56.1558 35.7518 55.9487 35.7096L55.945 35.4425C55.9444 35.394 55.9247 35.3477 55.8902 35.3137C55.8557 35.2796 55.8092 35.2605 55.7608 35.2605H55.7585C55.7344 35.2609 55.7105 35.2659 55.6883 35.2755C55.6661 35.285 55.646 35.2989 55.6291 35.3163C55.6122 35.3336 55.5989 35.3541 55.5899 35.3765C55.5811 35.399 55.5766 35.423 55.577 35.4472L55.5806 35.7107C55.3746 35.7537 55.1895 35.8664 55.0567 36.0298C54.9238 36.1931 54.8511 36.3972 54.8508 36.6077C54.8512 36.8507 54.9478 37.0836 55.1196 37.2554C55.2915 37.4271 55.5244 37.5236 55.7674 37.5239C56.0695 37.5239 56.3155 37.7696 56.3155 38.0717C56.3155 38.3737 56.0699 38.6195 55.7678 38.6195C55.4657 38.6195 55.2199 38.3737 55.2199 38.0717C55.2199 38.0229 55.2006 37.976 55.1661 37.9414C55.1315 37.9069 55.0846 37.8875 55.0358 37.8875C54.987 37.8875 54.9401 37.9069 54.9055 37.9414C54.871 37.976 54.8516 38.0229 54.8516 38.0717C54.8519 38.2829 54.9251 38.4875 55.0588 38.651C55.1925 38.8145 55.3785 38.9268 55.5854 38.9691L55.5891 39.2366C55.5898 39.2849 55.6095 39.3312 55.6439 39.3651C55.6784 39.3991 55.7249 39.4181 55.7733 39.4181H55.7759C55.8247 39.4175 55.8712 39.3975 55.9053 39.3626C55.9393 39.3276 55.9581 39.2806 55.9575 39.2317L55.9538 38.9687C56.16 38.9258 56.3452 38.8131 56.4781 38.6498C56.611 38.4864 56.6838 38.2823 56.684 38.0717C56.6837 37.8287 56.587 37.5958 56.4151 37.4241C56.2433 37.2523 56.01 37.1557 55.7671 37.1555ZM61.5323 43.0037C59.076 43.0037 57.0778 45.0019 57.0778 47.4576C57.0778 49.9132 59.076 51.9125 61.532 51.9125C63.9881 51.9125 65.9862 49.9144 65.9862 47.4583C65.9862 45.0022 63.9881 43.0037 61.5323 43.0037ZM61.5323 51.1754C59.4822 51.1754 57.8146 49.5077 57.8146 47.4579C57.8146 45.4082 59.4822 43.7404 61.532 43.7404C63.5817 43.7404 65.2494 45.4078 65.2494 47.4576C65.2494 49.5073 63.5821 51.1754 61.5323 51.1754Z" fill="black"/>
<path d="M61.5328 47.275C61.0509 47.275 60.6586 46.8827 60.6586 46.4012C60.6586 45.9197 61.0506 45.5274 61.5324 45.5274C62.0142 45.5274 62.4062 45.9194 62.4062 46.4012C62.4062 46.4501 62.4257 46.4969 62.4602 46.5314C62.4947 46.566 62.5415 46.5854 62.5905 46.5854C62.6393 46.5854 62.6861 46.566 62.7206 46.5314C62.7552 46.4969 62.7746 46.4501 62.7746 46.4012C62.7746 45.7786 62.3127 45.2662 61.7144 45.1774L61.7082 44.718C61.7075 44.6696 61.6877 44.6234 61.6533 44.5895C61.6188 44.5555 61.5724 44.5364 61.5239 44.5364H61.5213C61.4972 44.5367 61.4732 44.5418 61.4511 44.5514C61.4289 44.561 61.4088 44.5748 61.3919 44.5922C61.375 44.6096 61.3617 44.63 61.3528 44.6525C61.3439 44.675 61.3394 44.699 61.3398 44.7232L61.346 45.1778C61.053 45.222 60.7854 45.3696 60.5918 45.5939C60.3981 45.8182 60.2911 46.1045 60.2902 46.4008C60.2905 46.7303 60.4215 47.0462 60.6544 47.2792C60.8874 47.5121 61.2033 47.6431 61.5328 47.6434C62.015 47.6434 62.4074 48.0354 62.4074 48.5172C62.4074 48.9991 62.0154 49.3911 61.5335 49.3911C61.0517 49.3911 60.6597 48.9987 60.6597 48.5172C60.6597 48.4684 60.6403 48.4216 60.6057 48.387C60.5712 48.3525 60.5244 48.3331 60.4755 48.3331C60.4266 48.3331 60.3798 48.3525 60.3453 48.387C60.3107 48.4216 60.2913 48.4684 60.2913 48.5172C60.2913 49.1399 60.7529 49.6519 61.3508 49.7411L61.357 50.2001C61.3577 50.2485 61.3775 50.2946 61.4119 50.3287C61.4464 50.3626 61.4928 50.3817 61.5413 50.3817H61.5438C61.568 50.3813 61.5919 50.3762 61.6141 50.3666C61.6363 50.3571 61.6564 50.3432 61.6733 50.3259C61.6902 50.3086 61.7035 50.288 61.7124 50.2656C61.7213 50.2431 61.7258 50.2191 61.7254 50.1949L61.7192 49.7407C62.0125 49.6966 62.2802 49.5491 62.4741 49.3246C62.6678 49.1002 62.7749 48.8138 62.7758 48.5172C62.7752 48.1878 62.6441 47.872 62.4111 47.6391C62.1781 47.4062 61.8622 47.2753 61.5328 47.275Z" fill="black"/>
<path d="M98.4112 25.3833H95.9498V32.0113H95.066V25.3833H92.6037V24.5626H98.4112V25.3833ZM97.8528 29.5494C97.8528 29.1637 97.9195 28.813 98.0528 28.4974C98.1853 28.1817 98.3685 27.9118 98.5997 27.6873C98.8309 27.4559 99.1083 27.2769 99.4302 27.1507C99.753 27.0245 100.104 26.9614 100.483 26.9614C100.862 26.9614 101.212 27.0245 101.535 27.1507C101.858 27.2769 102.134 27.4559 102.366 27.6873C102.598 27.9118 102.78 28.1817 102.913 28.4974C103.047 28.813 103.113 29.1637 103.113 29.5494C103.113 29.9353 103.047 30.2859 102.913 30.6016C102.78 30.9171 102.598 31.1907 102.366 31.4221C102.134 31.6466 101.858 31.8219 101.535 31.9482C101.212 32.0745 100.862 32.1376 100.483 32.1376C100.104 32.1376 99.753 32.0745 99.4302 31.9482C99.1083 31.8219 98.8309 31.6466 98.5997 31.4221C98.3685 31.1907 98.1853 30.9171 98.0528 30.6016C97.9195 30.2859 97.8528 29.9353 97.8528 29.5494ZM98.7366 29.5494C98.7366 29.809 98.7749 30.051 98.8522 30.2754C98.9358 30.4928 99.0559 30.6857 99.2097 30.854C99.3644 31.0154 99.5467 31.1451 99.7566 31.2433C99.9744 31.3345 100.216 31.3801 100.483 31.3801C100.749 31.3801 100.988 31.3345 101.198 31.2433C101.416 31.1451 101.602 31.0154 101.756 30.854C101.91 30.6857 102.026 30.4928 102.103 30.2754C102.187 30.051 102.229 29.809 102.229 29.5494C102.229 29.29 102.187 29.0515 102.103 28.8341C102.026 28.6096 101.91 28.4167 101.756 28.2554C101.602 28.0871 101.416 27.9573 101.198 27.8661C100.988 27.768 100.749 27.7188 100.483 27.7188C100.216 27.7188 99.9744 27.768 99.7566 27.8661C99.5467 27.9573 99.3644 28.0871 99.2097 28.2554C99.0559 28.4167 98.9358 28.6096 98.8522 28.8341C98.7749 29.0515 98.7366 29.29 98.7366 29.5494ZM107.077 27.7819H105.625V30.2438C105.625 30.4051 105.628 30.5559 105.635 30.6963C105.642 30.8295 105.671 30.9487 105.72 31.0539C105.769 31.1522 105.842 31.2328 105.94 31.2959C106.039 31.3521 106.179 31.3801 106.361 31.3801C106.481 31.3801 106.604 31.366 106.73 31.338C106.856 31.3099 106.975 31.2678 107.087 31.2117L107.118 31.9587C106.979 32.0218 106.821 32.0674 106.645 32.0955C106.477 32.1235 106.315 32.1376 106.162 32.1376C105.866 32.1376 105.632 32.099 105.456 32.0218C105.281 31.9447 105.144 31.836 105.047 31.6957C104.948 31.5554 104.881 31.3836 104.846 31.1802C104.818 30.9698 104.804 30.7383 104.804 30.4858V27.7819H103.731V27.0876H104.804V25.6884H105.625V27.0876H107.077V27.7819ZM108.019 27.7188C108.272 27.4593 108.57 27.2699 108.913 27.1507C109.264 27.0245 109.618 26.9614 109.975 26.9614C110.706 26.9614 111.231 27.1332 111.554 27.4768C111.877 27.8205 112.038 28.3431 112.038 29.0444V31.1591C112.038 31.2994 112.045 31.4467 112.059 31.601C112.073 31.7483 112.09 31.8851 112.111 32.0113H111.323C111.294 31.8991 111.277 31.7764 111.27 31.6431C111.27 31.5028 111.27 31.3801 111.27 31.2749H111.249C111.088 31.5274 110.87 31.7342 110.596 31.8956C110.33 32.0569 110.007 32.1376 109.629 32.1376C109.376 32.1376 109.138 32.106 108.913 32.0429C108.696 31.9798 108.503 31.8886 108.335 31.7694C108.173 31.6431 108.043 31.4888 107.945 31.3064C107.847 31.1241 107.798 30.9137 107.798 30.6752C107.798 30.2684 107.904 29.9492 108.113 29.7178C108.324 29.4863 108.584 29.3145 108.892 29.2023C109.208 29.0901 109.544 29.0199 109.903 28.9919C110.267 28.9638 110.6 28.9497 110.902 28.9497H111.217V28.8025C111.217 28.4448 111.108 28.1747 110.891 27.9924C110.681 27.81 110.383 27.7188 109.997 27.7188C109.73 27.7188 109.467 27.7644 109.208 27.8556C108.956 27.9398 108.731 28.0731 108.534 28.2554L108.019 27.7188ZM110.397 29.6441C109.871 29.6441 109.454 29.7178 109.145 29.8651C108.836 30.0124 108.682 30.2543 108.682 30.591C108.682 30.8996 108.783 31.1206 108.987 31.2538C109.197 31.3801 109.457 31.4432 109.766 31.4432C110.004 31.4432 110.211 31.4046 110.386 31.3275C110.569 31.2433 110.719 31.1346 110.839 31.0014C110.958 30.8681 111.049 30.7138 111.112 30.5384C111.175 30.356 111.211 30.1632 111.217 29.9598V29.6441H110.397ZM113.611 24.0576H114.432V32.0113H113.611V24.0576ZM119.099 30.7172C119.26 30.9207 119.435 31.082 119.624 31.2012C119.821 31.3205 120.066 31.3801 120.361 31.3801C120.487 31.3801 120.613 31.366 120.739 31.338C120.873 31.3099 120.992 31.2644 121.098 31.2012C121.203 31.1381 121.287 31.0609 121.349 30.9698C121.413 30.8716 121.445 30.7558 121.445 30.6225C121.445 30.4893 121.413 30.3806 121.349 30.2965C121.293 30.2123 121.217 30.1421 121.118 30.086C121.02 30.0229 120.908 29.9738 120.782 29.9387C120.656 29.9037 120.526 29.8721 120.393 29.844C120.161 29.7949 119.94 29.7388 119.729 29.6757C119.519 29.6126 119.334 29.5319 119.172 29.4337C119.018 29.3286 118.892 29.1953 118.793 29.034C118.702 28.8726 118.657 28.6657 118.657 28.4132C118.657 28.1747 118.709 27.9643 118.814 27.7819C118.919 27.5996 119.06 27.4488 119.235 27.3296C119.411 27.2103 119.607 27.1192 119.824 27.0561C120.041 26.9929 120.266 26.9614 120.498 26.9614C120.849 26.9614 121.171 27.0315 121.466 27.1718C121.767 27.3121 122.002 27.54 122.17 27.8556L121.486 28.308C121.381 28.1326 121.241 27.9924 121.066 27.8872C120.898 27.775 120.691 27.7188 120.445 27.7188C120.333 27.7188 120.218 27.7328 120.098 27.7609C119.985 27.789 119.884 27.8311 119.792 27.8872C119.702 27.9433 119.624 28.017 119.561 28.1081C119.505 28.1923 119.477 28.2905 119.477 28.4027C119.477 28.5079 119.509 28.5991 119.572 28.6762C119.642 28.7464 119.733 28.8095 119.846 28.8656C119.965 28.9217 120.098 28.9708 120.245 29.0129C120.4 29.0549 120.557 29.0901 120.719 29.1181C120.936 29.1602 121.143 29.2163 121.34 29.2864C121.536 29.3495 121.708 29.4372 121.855 29.5494C122.002 29.6617 122.118 29.802 122.202 29.9703C122.286 30.1386 122.329 30.3455 122.329 30.591C122.329 30.8716 122.272 31.11 122.16 31.3064C122.048 31.5028 121.897 31.6642 121.708 31.7904C121.526 31.9096 121.315 31.9973 121.076 32.0534C120.845 32.1095 120.606 32.1376 120.361 32.1376C119.94 32.1376 119.575 32.0745 119.267 31.9482C118.965 31.8149 118.692 31.5729 118.446 31.2222L119.099 30.7172ZM123.41 27.7188C123.662 27.4593 123.96 27.2699 124.304 27.1507C124.655 27.0245 125.009 26.9614 125.367 26.9614C126.096 26.9614 126.622 27.1332 126.944 27.4768C127.267 27.8205 127.429 28.3431 127.429 29.0444V31.1591C127.429 31.2994 127.435 31.4467 127.45 31.601C127.464 31.7483 127.482 31.8851 127.502 32.0113H126.713C126.685 31.8991 126.668 31.7764 126.661 31.6431C126.661 31.5028 126.661 31.3801 126.661 31.2749H126.639C126.479 31.5274 126.261 31.7342 125.988 31.8956C125.721 32.0569 125.398 32.1376 125.019 32.1376C124.767 32.1376 124.528 32.106 124.304 32.0429C124.086 31.9798 123.894 31.8886 123.725 31.7694C123.564 31.6431 123.434 31.4888 123.336 31.3064C123.238 31.1241 123.188 30.9137 123.188 30.6752C123.188 30.2684 123.294 29.9492 123.504 29.7178C123.715 29.4863 123.974 29.3145 124.283 29.2023C124.599 29.0901 124.935 29.0199 125.293 28.9919C125.658 28.9638 125.991 28.9497 126.293 28.9497H126.608V28.8025C126.608 28.4448 126.499 28.1747 126.282 27.9924C126.071 27.81 125.773 27.7188 125.387 27.7188C125.121 27.7188 124.858 27.7644 124.599 27.8556C124.346 27.9398 124.121 28.0731 123.926 28.2554L123.41 27.7188ZM125.788 29.6441C125.261 29.6441 124.844 29.7178 124.536 29.8651C124.227 30.0124 124.072 30.2543 124.072 30.591C124.072 30.8996 124.175 31.1206 124.377 31.2538C124.588 31.3801 124.848 31.4432 125.156 31.4432C125.395 31.4432 125.602 31.4046 125.777 31.3275C125.959 31.2433 126.11 31.1346 126.23 31.0014C126.349 30.8681 126.439 30.7138 126.503 30.5384C126.566 30.356 126.601 30.1632 126.608 29.9598V29.6441H125.788ZM129.002 24.0576H129.823V32.0113H129.002V24.0576ZM131.392 27.7188C131.645 27.4593 131.944 27.2699 132.287 27.1507C132.638 27.0245 132.992 26.9614 133.349 26.9614C134.079 26.9614 134.605 27.1332 134.928 27.4768C135.251 27.8205 135.412 28.3431 135.412 29.0444V31.1591C135.412 31.2994 135.419 31.4467 135.433 31.601C135.447 31.7483 135.464 31.8851 135.485 32.0113H134.697C134.668 31.8991 134.65 31.7764 134.643 31.6431C134.643 31.5028 134.643 31.3801 134.643 31.2749H134.623C134.461 31.5274 134.244 31.7342 133.97 31.8956C133.703 32.0569 133.382 32.1376 133.003 32.1376C132.75 32.1376 132.512 32.106 132.287 32.0429C132.07 31.9798 131.877 31.8886 131.708 31.7694C131.547 31.6431 131.417 31.4888 131.319 31.3064C131.221 31.1241 131.172 30.9137 131.172 30.6752C131.172 30.2684 131.277 29.9492 131.487 29.7178C131.698 29.4863 131.957 29.3145 132.266 29.2023C132.581 29.0901 132.918 29.0199 133.276 28.9919C133.64 28.9638 133.974 28.9497 134.275 28.9497H134.591V28.8025C134.591 28.4448 134.482 28.1747 134.265 27.9924C134.055 27.81 133.757 27.7188 133.371 27.7188C133.104 27.7188 132.841 27.7644 132.581 27.8556C132.329 27.9398 132.105 28.0731 131.908 28.2554L131.392 27.7188ZM133.77 29.6441C133.245 29.6441 132.828 29.7178 132.518 29.8651C132.21 30.0124 132.056 30.2543 132.056 30.591C132.056 30.8996 132.157 31.1206 132.361 31.2538C132.571 31.3801 132.83 31.4432 133.14 31.4432C133.378 31.4432 133.584 31.4046 133.76 31.3275C133.943 31.2433 134.093 31.1346 134.212 31.0014C134.331 30.8681 134.423 30.7138 134.486 30.5384C134.549 30.356 134.584 30.1632 134.591 29.9598V29.6441H133.77ZM136.912 28.2554C136.912 28.031 136.905 27.8205 136.89 27.6242C136.876 27.4278 136.869 27.2489 136.869 27.0876H137.648C137.648 27.2208 137.652 27.3541 137.659 27.4874C137.666 27.6206 137.669 27.7574 137.669 27.8977H137.69C137.746 27.7785 137.823 27.6627 137.922 27.5505C138.027 27.4382 138.149 27.3401 138.29 27.256C138.43 27.1647 138.588 27.0946 138.763 27.0455C138.938 26.9894 139.128 26.9614 139.331 26.9614C139.387 26.9614 139.443 26.9648 139.499 26.9719C139.555 26.9789 139.611 26.9929 139.668 27.0139L139.615 27.8451C139.475 27.803 139.328 27.7819 139.174 27.7819C138.669 27.7819 138.301 27.9468 138.069 28.2764C137.844 28.5991 137.732 29.0444 137.732 29.6126V32.0113H136.912V28.2554ZM142.42 33.1371C142.336 33.3475 142.248 33.5369 142.156 33.7052C142.073 33.8806 141.968 34.0278 141.842 34.147C141.721 34.2733 141.575 34.368 141.4 34.4311C141.231 34.5012 141.024 34.5364 140.779 34.5364C140.659 34.5364 140.533 34.5293 140.4 34.5153C140.274 34.5012 140.155 34.4662 140.042 34.4101L140.148 33.6946C140.231 33.7297 140.319 33.7507 140.41 33.7578C140.501 33.7718 140.606 33.7788 140.726 33.7788C140.992 33.7788 141.189 33.7052 141.315 33.5579C141.441 33.4106 141.55 33.2142 141.641 32.9687L141.978 32.0429L139.937 27.0876H140.895L142.42 30.9487H142.441L143.904 27.0876H144.797L142.42 33.1371ZM149.95 33.6526C149.445 32.9582 149.063 32.2078 148.803 31.4011C148.544 30.5945 148.414 29.7879 148.414 28.9813C148.414 28.1117 148.547 27.2805 148.814 26.4879C149.087 25.6954 149.466 24.9694 149.95 24.3101L150.518 24.7309C150.069 25.3481 149.732 26.018 149.508 26.7404C149.283 27.4628 149.171 28.2098 149.171 28.9813C149.171 29.4022 149.2 29.7949 149.256 30.1597C149.312 30.5244 149.395 30.8785 149.508 31.2222C149.62 31.5589 149.761 31.8921 149.929 32.2217C150.097 32.5514 150.294 32.895 150.518 33.2528L149.95 33.6526ZM156.687 25.3833H154.225V32.0113H153.341V25.3833H150.88V24.5626H156.687V25.3833ZM157.583 24.0576H158.404V27.7714H158.425C158.481 27.6733 158.558 27.5786 158.657 27.4874C158.754 27.3892 158.87 27.3015 159.003 27.2244C159.144 27.1472 159.298 27.0841 159.467 27.035C159.635 26.9859 159.814 26.9614 160.003 26.9614C160.326 26.9614 160.602 27.0104 160.834 27.1086C161.073 27.2069 161.269 27.3436 161.423 27.519C161.578 27.6943 161.69 27.9082 161.76 28.1607C161.837 28.4062 161.876 28.6762 161.876 28.9708V32.0113H161.055V29.0549C161.055 28.6412 160.964 28.315 160.782 28.0765C160.599 27.838 160.315 27.7188 159.929 27.7188C159.662 27.7188 159.431 27.7644 159.235 27.8556C159.045 27.9468 158.888 28.0765 158.762 28.2449C158.642 28.4132 158.551 28.6131 158.488 28.8446C158.432 29.076 158.404 29.332 158.404 29.6126V32.0113H157.583V24.0576ZM163.503 27.0876H164.324V32.0113H163.503V27.0876ZM163.314 25.1623C163.314 25.001 163.37 24.8607 163.482 24.7414C163.601 24.6222 163.745 24.5626 163.913 24.5626C164.082 24.5626 164.221 24.6222 164.334 24.7414C164.453 24.8607 164.513 25.001 164.513 25.1623C164.513 25.3376 164.457 25.4814 164.344 25.5937C164.232 25.7059 164.089 25.762 163.913 25.762C163.738 25.762 163.594 25.7059 163.482 25.5937C163.37 25.4814 163.314 25.3376 163.314 25.1623ZM166.062 30.7172C166.223 30.9207 166.398 31.082 166.588 31.2012C166.784 31.3205 167.03 31.3801 167.325 31.3801C167.451 31.3801 167.577 31.366 167.703 31.338C167.836 31.3099 167.955 31.2644 168.061 31.2012C168.166 31.1381 168.25 31.0609 168.314 30.9698C168.377 30.8716 168.408 30.7558 168.408 30.6225C168.408 30.4893 168.377 30.3806 168.314 30.2965C168.258 30.2123 168.18 30.1421 168.081 30.086C167.984 30.0229 167.872 29.9738 167.745 29.9387C167.619 29.9037 167.489 29.8721 167.356 29.844C167.125 29.7949 166.903 29.7388 166.693 29.6757C166.483 29.6126 166.297 29.5319 166.136 29.4337C165.981 29.3286 165.855 29.1953 165.757 29.034C165.665 28.8726 165.62 28.6657 165.62 28.4132C165.62 28.1747 165.673 27.9643 165.778 27.7819C165.883 27.5996 166.023 27.4488 166.199 27.3296C166.374 27.2103 166.571 27.1192 166.788 27.0561C167.006 26.9929 167.23 26.9614 167.461 26.9614C167.812 26.9614 168.135 27.0315 168.429 27.1718C168.731 27.3121 168.965 27.54 169.134 27.8556L168.451 28.308C168.345 28.1326 168.204 27.9924 168.029 27.8872C167.861 27.775 167.654 27.7188 167.408 27.7188C167.296 27.7188 167.181 27.7328 167.062 27.7609C166.95 27.789 166.847 27.8311 166.757 27.8872C166.665 27.9433 166.588 28.017 166.524 28.1081C166.468 28.1923 166.441 28.2905 166.441 28.4027C166.441 28.5079 166.472 28.5991 166.535 28.6762C166.605 28.7464 166.697 28.8095 166.809 28.8656C166.928 28.9217 167.062 28.9708 167.208 29.0129C167.363 29.0549 167.52 29.0901 167.682 29.1181C167.899 29.1602 168.106 29.2163 168.303 29.2864C168.499 29.3495 168.671 29.4372 168.819 29.5494C168.965 29.6617 169.081 29.802 169.165 29.9703C169.25 30.1386 169.292 30.3455 169.292 30.591C169.292 30.8716 169.236 31.11 169.124 31.3064C169.012 31.5028 168.86 31.6642 168.671 31.7904C168.489 31.9096 168.278 31.9973 168.04 32.0534C167.809 32.1095 167.57 32.1376 167.325 32.1376C166.903 32.1376 166.539 32.0745 166.23 31.9482C165.929 31.8149 165.655 31.5729 165.409 31.2222L166.062 30.7172ZM173.512 24.5626H174.827L177.352 30.4017H177.373L179.919 24.5626H181.202V32.0113H180.319V25.762H180.298L177.625 32.0113H177.088L174.416 25.762H174.396V32.0113H173.512V24.5626ZM182.625 29.5494C182.625 29.1637 182.691 28.813 182.825 28.4974C182.958 28.1817 183.14 27.9118 183.372 27.6873C183.604 27.4559 183.88 27.2769 184.203 27.1507C184.526 27.0245 184.876 26.9614 185.255 26.9614C185.634 26.9614 185.985 27.0245 186.307 27.1507C186.63 27.2769 186.907 27.4559 187.138 27.6873C187.37 27.9118 187.553 28.1817 187.685 28.4974C187.819 28.813 187.885 29.1637 187.885 29.5494C187.885 29.9353 187.819 30.2859 187.685 30.6016C187.553 30.9171 187.37 31.1907 187.138 31.4221C186.907 31.6466 186.63 31.8219 186.307 31.9482C185.985 32.0745 185.634 32.1376 185.255 32.1376C184.876 32.1376 184.526 32.0745 184.203 31.9482C183.88 31.8219 183.604 31.6466 183.372 31.4221C183.14 31.1907 182.958 30.9171 182.825 30.6016C182.691 30.2859 182.625 29.9353 182.625 29.5494ZM183.509 29.5494C183.509 29.809 183.548 30.051 183.624 30.2754C183.709 30.4928 183.828 30.6857 183.983 30.854C184.136 31.0154 184.319 31.1451 184.529 31.2433C184.746 31.3345 184.989 31.3801 185.255 31.3801C185.522 31.3801 185.76 31.3345 185.971 31.2433C186.188 31.1451 186.374 31.0154 186.528 30.854C186.682 30.6857 186.799 30.4928 186.875 30.2754C186.96 30.051 187.001 29.809 187.001 29.5494C187.001 29.29 186.96 29.0515 186.875 28.8341C186.799 28.6096 186.682 28.4167 186.528 28.2554C186.374 28.0871 186.188 27.9573 185.971 27.8661C185.76 27.768 185.522 27.7188 185.255 27.7188C184.989 27.7188 184.746 27.768 184.529 27.8661C184.319 27.9573 184.136 28.0871 183.983 28.2554C183.828 28.4167 183.709 28.6096 183.624 28.8341C183.548 29.0515 183.509 29.29 183.509 29.5494ZM189.156 28.2554C189.156 28.031 189.149 27.8205 189.135 27.6242C189.12 27.4278 189.114 27.2489 189.114 27.0876H189.892C189.892 27.2208 189.896 27.3541 189.903 27.4874C189.91 27.6206 189.914 27.7574 189.914 27.8977H189.934C189.99 27.7785 190.067 27.6627 190.166 27.5505C190.271 27.4382 190.394 27.3401 190.534 27.256C190.675 27.1647 190.832 27.0946 191.007 27.0455C191.183 26.9894 191.372 26.9614 191.576 26.9614C191.898 26.9614 192.175 27.0104 192.407 27.1086C192.645 27.2069 192.842 27.3436 192.996 27.519C193.15 27.6943 193.262 27.9082 193.333 28.1607C193.41 28.4062 193.448 28.6762 193.448 28.9708V32.0113H192.628V29.0549C192.628 28.6412 192.537 28.315 192.355 28.0765C192.172 27.838 191.888 27.7188 191.502 27.7188C191.236 27.7188 191.004 27.7644 190.807 27.8556C190.618 27.9468 190.46 28.0765 190.334 28.2449C190.215 28.4132 190.123 28.6131 190.06 28.8446C190.004 29.076 189.977 29.332 189.977 29.6126V32.0113H189.156V28.2554ZM197.695 27.7819H196.243V30.2438C196.243 30.4051 196.247 30.5559 196.254 30.6963C196.261 30.8295 196.289 30.9487 196.338 31.0539C196.387 31.1522 196.461 31.2328 196.559 31.2959C196.657 31.3521 196.797 31.3801 196.979 31.3801C197.099 31.3801 197.222 31.366 197.348 31.338C197.475 31.3099 197.594 31.2678 197.706 31.2117L197.737 31.9587C197.597 32.0218 197.439 32.0674 197.264 32.0955C197.096 32.1235 196.934 32.1376 196.78 32.1376C196.485 32.1376 196.25 32.099 196.075 32.0218C195.9 31.9447 195.763 31.836 195.665 31.6957C195.566 31.5554 195.5 31.3836 195.465 31.1802C195.437 30.9698 195.422 30.7383 195.422 30.4858V27.7819H194.35V27.0876H195.422V25.6884H196.243V27.0876H197.695V27.7819ZM198.711 24.0576H199.531V27.7714H199.553C199.609 27.6733 199.686 27.5786 199.784 27.4874C199.882 27.3892 199.998 27.3015 200.131 27.2244C200.271 27.1472 200.426 27.0841 200.594 27.035C200.762 26.9859 200.942 26.9614 201.13 26.9614C201.453 26.9614 201.73 27.0104 201.962 27.1086C202.2 27.2069 202.396 27.3436 202.551 27.519C202.705 27.6943 202.817 27.9082 202.887 28.1607C202.965 28.4062 203.003 28.6762 203.003 28.9708V32.0113H202.183V29.0549C202.183 28.6412 202.091 28.315 201.909 28.0765C201.727 27.838 201.442 27.7188 201.057 27.7188C200.791 27.7188 200.559 27.7644 200.363 27.8556C200.173 27.9468 200.015 28.0765 199.889 28.2449C199.77 28.4132 199.679 28.6131 199.616 28.8446C199.56 29.076 199.531 29.332 199.531 29.6126V32.0113H198.711V24.0576ZM204.588 24.3101C205.093 25.0045 205.476 25.755 205.735 26.5616C205.995 27.3682 206.124 28.1747 206.124 28.9813C206.124 29.8511 205.988 30.6822 205.714 31.4748C205.447 32.2673 205.072 32.9933 204.588 33.6526L204.02 33.2318C204.469 32.6145 204.806 31.9447 205.03 31.2222C205.254 30.4998 205.367 29.7529 205.367 28.9813C205.367 28.5605 205.339 28.1678 205.283 27.803C205.227 27.4382 205.142 27.0876 205.03 26.751C204.918 26.4073 204.778 26.0705 204.61 25.7409C204.441 25.4113 204.245 25.0676 204.02 24.7099L204.588 24.3101Z" fill="#7A8699"/>
<path d="M93.7144 60.3668V55.912H92.6686V54.5774H93.7144V53.2788H92.6686V51.9441H93.7144V47.4893H96.5465L97.9533 51.9441H99.5939V47.4893H101.596V51.9441H102.624V53.2788H101.596V54.5774H102.624V55.912H101.596V60.3668H98.7465L97.3032 55.912H95.7169V60.3668H93.7144ZM95.7169 54.5774H96.9067L96.5101 53.2788H95.6804L95.7169 54.5774ZM99.6481 57.5532H99.7388L99.6659 55.912H99.1795L99.6481 57.5532ZM95.644 51.9441H96.149L95.6262 50.2127H95.5542L95.644 51.9441ZM98.8007 54.5774H99.6303L99.5939 53.2788H98.3854L98.8007 54.5774ZM107.643 50.0865L105.244 52.3049L103.981 50.8079L107.841 47.5975H109.807V60.3668H107.643V50.0865ZM122.591 49.5454H117.45L117.396 52.0885C117.565 52.0283 117.775 51.9862 118.027 51.9622C118.292 51.9382 118.539 51.9261 118.767 51.9261C119.392 51.9261 119.963 52.0283 120.481 52.2327C121.01 52.4251 121.461 52.7076 121.833 53.0804C122.206 53.4531 122.495 53.898 122.699 54.415C122.915 54.9321 123.024 55.5152 123.024 56.1645C123.024 56.8499 122.903 57.469 122.663 58.0221C122.434 58.5632 122.11 59.0261 121.689 59.4109C121.28 59.7837 120.793 60.0722 120.228 60.2766C119.663 60.481 119.055 60.5833 118.406 60.5833C117.384 60.5833 116.513 60.3427 115.791 59.8618C115.082 59.3808 114.577 58.6474 114.277 57.6615L116.549 57.0482C116.693 57.5051 116.94 57.8659 117.288 58.1303C117.637 58.3949 118.088 58.5272 118.641 58.5272C118.966 58.5272 119.26 58.473 119.525 58.3648C119.801 58.2566 120.036 58.1063 120.228 57.9139C120.433 57.7096 120.589 57.4751 120.697 57.2105C120.805 56.946 120.86 56.6574 120.86 56.3449C120.86 55.9 120.775 55.5212 120.607 55.2086C120.451 54.896 120.234 54.6434 119.958 54.4511C119.681 54.2467 119.362 54.1024 119.002 54.0182C118.641 53.922 118.262 53.8739 117.866 53.8739C117.396 53.8739 116.927 53.9281 116.459 54.0363C116.002 54.1445 115.581 54.2948 115.196 54.4872L115.322 47.5975H122.591V49.5454ZM132.038 47.5975L128.972 52.3229L129.007 52.359C129.14 52.2868 129.314 52.2327 129.531 52.1967C129.759 52.1606 129.982 52.1425 130.198 52.1425C130.764 52.1425 131.28 52.2507 131.749 52.4672C132.218 52.6836 132.621 52.9782 132.957 53.351C133.306 53.7236 133.571 54.1565 133.751 54.6495C133.944 55.1425 134.04 55.6655 134.04 56.2186C134.04 56.8799 133.926 57.4811 133.697 58.0221C133.469 58.5632 133.15 59.0261 132.741 59.4109C132.345 59.7837 131.864 60.0722 131.298 60.2766C130.745 60.481 130.144 60.5833 129.495 60.5833C128.822 60.5833 128.208 60.487 127.655 60.2946C127.102 60.0903 126.621 59.8017 126.213 59.429C125.815 59.0562 125.503 58.5993 125.275 58.0582C125.058 57.5171 124.95 56.91 124.95 56.2367C124.95 55.5633 125.058 54.9561 125.275 54.415C125.503 53.8619 125.791 53.3029 126.14 52.7377L129.405 47.5975H132.038ZM127.222 56.2006C127.222 56.5252 127.282 56.8318 127.402 57.1204C127.522 57.3969 127.685 57.6434 127.89 57.8598C128.106 58.0643 128.352 58.2266 128.629 58.3468C128.918 58.467 129.224 58.5272 129.549 58.5272C129.874 58.5272 130.174 58.467 130.451 58.3468C130.739 58.2266 130.986 58.0643 131.19 57.8598C131.407 57.6434 131.575 57.3969 131.695 57.1204C131.816 56.8318 131.875 56.5252 131.875 56.2006C131.875 55.8759 131.816 55.5753 131.695 55.2988C131.575 55.0102 131.407 54.7638 131.19 54.5593C130.986 54.3429 130.739 54.1746 130.451 54.0543C130.174 53.9341 129.874 53.8739 129.549 53.8739C129.224 53.8739 128.918 53.9341 128.629 54.0543C128.352 54.1746 128.106 54.3429 127.89 54.5593C127.685 54.7638 127.522 55.0102 127.402 55.2988C127.282 55.5753 127.222 55.8759 127.222 56.2006ZM136.777 57.8779H138.977L137.444 62.6393H135.515L136.777 57.8779ZM149.275 49.5454H144.134L144.08 52.0885C144.249 52.0283 144.459 51.9862 144.711 51.9622C144.976 51.9382 145.222 51.9261 145.451 51.9261C146.076 51.9261 146.647 52.0283 147.164 52.2327C147.694 52.4251 148.144 52.7076 148.517 53.0804C148.89 53.4531 149.179 53.898 149.382 54.415C149.599 54.9321 149.708 55.5152 149.708 56.1645C149.708 56.8499 149.587 57.469 149.347 58.0221C149.118 58.5632 148.793 59.0261 148.373 59.4109C147.964 59.7837 147.477 60.0722 146.912 60.2766C146.346 60.481 145.739 60.5833 145.09 60.5833C144.068 60.5833 143.197 60.3427 142.475 59.8618C141.765 59.3808 141.261 58.6474 140.959 57.6615L143.232 57.0482C143.376 57.5051 143.624 57.8659 143.972 58.1303C144.321 58.3949 144.772 58.5272 145.325 58.5272C145.649 58.5272 145.944 58.473 146.209 58.3648C146.485 58.2566 146.719 58.1063 146.912 57.9139C147.116 57.7096 147.272 57.4751 147.381 57.2105C147.489 56.946 147.543 56.6574 147.543 56.3449C147.543 55.9 147.459 55.5212 147.291 55.2086C147.134 54.896 146.918 54.6434 146.642 54.4511C146.365 54.2467 146.046 54.1024 145.686 54.0182C145.325 53.922 144.946 53.8739 144.549 53.8739C144.08 53.8739 143.611 53.9281 143.142 54.0363C142.685 54.1445 142.265 54.2948 141.88 54.4872L142.006 47.5975H149.275V49.5454ZM156.882 57.7697H151.453V55.6235L156.593 47.5975H159.046V55.8218H160.904V57.7697H159.046V60.3668H156.882V57.7697ZM156.882 50.6637H156.845L153.653 55.8218H156.882V50.6637ZM162.27 47.5975H170.946V49.5815L165.842 60.3668H163.298L168.511 49.6536H162.27V47.5975ZM174.134 57.8779H176.335L174.802 62.6393H172.872L174.134 57.8779ZM178.244 53.9821C178.244 52.9722 178.323 52.1125 178.479 51.403C178.647 50.6816 178.864 50.0804 179.128 49.5995C179.393 49.1065 179.688 48.7157 180.012 48.4272C180.349 48.1266 180.685 47.9041 181.022 47.7599C181.371 47.6036 181.702 47.5013 182.014 47.4533C182.339 47.4052 182.621 47.3811 182.862 47.3811C183.102 47.3811 183.379 47.4052 183.692 47.4533C184.016 47.5013 184.347 47.6036 184.683 47.7599C185.032 47.9041 185.369 48.1266 185.693 48.4272C186.03 48.7157 186.331 49.1065 186.595 49.5995C186.86 50.0804 187.07 50.6816 187.226 51.403C187.394 52.1125 187.479 52.9722 187.479 53.9821C187.479 54.9922 187.394 55.8579 187.226 56.5793C187.07 57.2887 186.86 57.8899 186.595 58.3829C186.331 58.8639 186.03 59.2546 185.693 59.5552C185.369 59.8438 185.032 60.0662 184.683 60.2225C184.347 60.3668 184.016 60.4629 183.692 60.511C183.379 60.5592 183.102 60.5833 182.862 60.5833C182.621 60.5833 182.339 60.5592 182.014 60.511C181.702 60.4629 181.371 60.3668 181.022 60.2225C180.685 60.0662 180.349 59.8438 180.012 59.5552C179.688 59.2546 179.393 58.8639 179.128 58.3829C178.864 57.8899 178.647 57.2887 178.479 56.5793C178.323 55.8579 178.244 54.9922 178.244 53.9821ZM180.409 53.9821C180.409 54.379 180.433 54.8418 180.481 55.3709C180.541 55.8879 180.656 56.3809 180.824 56.8499C180.992 57.3188 181.238 57.7155 181.563 58.0402C181.888 58.3648 182.321 58.5272 182.862 58.5272C183.403 58.5272 183.836 58.3648 184.16 58.0402C184.485 57.7155 184.731 57.3188 184.9 56.8499C185.068 56.3809 185.177 55.8879 185.225 55.3709C185.284 54.8418 185.315 54.379 185.315 53.9821C185.315 53.5854 185.284 53.1285 185.225 52.6115C185.177 52.0824 185.068 51.5835 184.9 51.1145C184.731 50.6456 184.485 50.2488 184.16 49.9242C183.836 49.5995 183.403 49.4372 182.862 49.4372C182.321 49.4372 181.888 49.5995 181.563 49.9242C181.238 50.2488 180.992 50.6456 180.824 51.1145C180.656 51.5835 180.541 52.0824 180.481 52.6115C180.433 53.1285 180.409 53.5854 180.409 53.9821ZM188.919 53.9821C188.919 52.9722 188.996 52.1125 189.152 51.403C189.321 50.6816 189.537 50.0804 189.802 49.5995C190.067 49.1065 190.361 48.7157 190.685 48.4272C191.022 48.1266 191.359 47.9041 191.696 47.7599C192.044 47.6036 192.375 47.5013 192.688 47.4533C193.013 47.4052 193.294 47.3811 193.535 47.3811C193.776 47.3811 194.052 47.4052 194.365 47.4533C194.69 47.5013 195.02 47.6036 195.357 47.7599C195.706 47.9041 196.042 48.1266 196.367 48.4272C196.704 48.7157 197.004 49.1065 197.268 49.5995C197.533 50.0804 197.744 50.6816 197.9 51.403C198.069 52.1125 198.152 52.9722 198.152 53.9821C198.152 54.9922 198.069 55.8579 197.9 56.5793C197.744 57.2887 197.533 57.8899 197.268 58.3829C197.004 58.8639 196.704 59.2546 196.367 59.5552C196.042 59.8438 195.706 60.0662 195.357 60.2225C195.02 60.3668 194.69 60.4629 194.365 60.511C194.052 60.5592 193.776 60.5833 193.535 60.5833C193.294 60.5833 193.013 60.5592 192.688 60.511C192.375 60.4629 192.044 60.3668 191.696 60.2225C191.359 60.0662 191.022 59.8438 190.685 59.5552C190.361 59.2546 190.067 58.8639 189.802 58.3829C189.537 57.8899 189.321 57.2887 189.152 56.5793C188.996 55.8579 188.919 54.9922 188.919 53.9821ZM191.082 53.9821C191.082 54.379 191.107 54.8418 191.155 55.3709C191.215 55.8879 191.329 56.3809 191.497 56.8499C191.665 57.3188 191.912 57.7155 192.237 58.0402C192.562 58.3648 192.994 58.5272 193.535 58.5272C194.076 58.5272 194.509 58.3648 194.834 58.0402C195.158 57.7155 195.405 57.3188 195.574 56.8499C195.742 56.3809 195.85 55.8879 195.898 55.3709C195.959 54.8418 195.988 54.379 195.988 53.9821C195.988 53.5854 195.959 53.1285 195.898 52.6115C195.85 52.0824 195.742 51.5835 195.574 51.1145C195.405 50.6456 195.158 50.2488 194.834 49.9242C194.509 49.5995 194.076 49.4372 193.535 49.4372C192.994 49.4372 192.562 49.5995 192.237 49.9242C191.912 50.2488 191.665 50.6456 191.497 51.1145C191.329 51.5835 191.215 52.0824 191.155 52.6115C191.107 53.1285 191.082 53.5854 191.082 53.9821ZM199.592 53.9821C199.592 52.9722 199.67 52.1125 199.826 51.403C199.995 50.6816 200.211 50.0804 200.476 49.5995C200.74 49.1065 201.034 48.7157 201.359 48.4272C201.696 48.1266 202.033 47.9041 202.369 47.7599C202.717 47.6036 203.048 47.5013 203.361 47.4533C203.686 47.4052 203.969 47.3811 204.209 47.3811C204.45 47.3811 204.726 47.4052 205.038 47.4533C205.363 47.5013 205.694 47.6036 206.031 47.7599C206.379 47.9041 206.715 48.1266 207.04 48.4272C207.377 48.7157 207.678 49.1065 207.943 49.5995C208.207 50.0804 208.417 50.6816 208.573 51.403C208.742 52.1125 208.826 52.9722 208.826 53.9821C208.826 54.9922 208.742 55.8579 208.573 56.5793C208.417 57.2887 208.207 57.8899 207.943 58.3829C207.678 58.8639 207.377 59.2546 207.04 59.5552C206.715 59.8438 206.379 60.0662 206.031 60.2225C205.694 60.3668 205.363 60.4629 205.038 60.511C204.726 60.5592 204.45 60.5833 204.209 60.5833C203.969 60.5833 203.686 60.5592 203.361 60.511C203.048 60.4629 202.717 60.3668 202.369 60.2225C202.033 60.0662 201.696 59.8438 201.359 59.5552C201.034 59.2546 200.74 58.8639 200.476 58.3829C200.211 57.8899 199.995 57.2887 199.826 56.5793C199.67 55.8579 199.592 54.9922 199.592 53.9821ZM201.756 53.9821C201.756 54.379 201.78 54.8418 201.828 55.3709C201.888 55.8879 202.003 56.3809 202.171 56.8499C202.339 57.3188 202.586 57.7155 202.91 58.0402C203.235 58.3648 203.668 58.5272 204.209 58.5272C204.75 58.5272 205.182 58.3648 205.507 58.0402C205.832 57.7155 206.079 57.3188 206.247 56.8499C206.415 56.3809 206.523 55.8879 206.571 55.3709C206.632 54.8418 206.662 54.379 206.662 53.9821C206.662 53.5854 206.632 53.1285 206.571 52.6115C206.523 52.0824 206.415 51.5835 206.247 51.1145C206.079 50.6456 205.832 50.2488 205.507 49.9242C205.182 49.5995 204.75 49.4372 204.209 49.4372C203.668 49.4372 203.235 49.5995 202.91 49.9242C202.586 50.2488 202.339 50.6456 202.171 51.1145C202.003 51.5835 201.888 52.0824 201.828 52.6115C201.78 53.1285 201.756 53.5854 201.756 53.9821Z" fill="#42526D"/>
</svg>
