<svg width="249" height="89" viewBox="0 0 249 89" fill="none" xmlns="http://www.w3.org/2000/svg">
<path d="M241.877 0H7.12309C3.19427 0 0.00933838 3.18487 0.00933838 7.1136V81.8064C0.00933838 85.7351 3.19427 88.92 7.12309 88.92H241.877C245.806 88.92 248.991 85.7351 248.991 81.8064V7.1136C248.991 3.18487 245.806 0 241.877 0Z" fill="#1A50CC"/>
<path d="M20.4136 21.0821H22.9627L26.5819 26.9977H26.6059V21.0821H28.4816V29.5948H26.0288L22.3135 23.5349H22.2894V29.5948H20.4136V21.0821ZM35.5207 28.5849C35.2321 28.9536 34.8674 29.2382 34.4265 29.4385C33.9856 29.6389 33.5287 29.7392 33.0558 29.7392C32.607 29.7392 32.1821 29.667 31.7813 29.5227C31.3886 29.3784 31.0438 29.1741 30.7472 28.9095C30.4587 28.637 30.2303 28.3123 30.0619 27.9356C29.8936 27.5589 29.8094 27.138 29.8094 26.6731C29.8094 26.2082 29.8936 25.7874 30.0619 25.4106C30.2303 25.0339 30.4587 24.7132 30.7472 24.4487C31.0438 24.1761 31.3886 23.9678 31.7813 23.8234C32.1821 23.6791 32.607 23.607 33.0558 23.607C33.4726 23.607 33.8494 23.6791 34.186 23.8234C34.5307 23.9678 34.8193 24.1761 35.0518 24.4487C35.2922 24.7132 35.4766 25.0339 35.6049 25.4106C35.7331 25.7874 35.7972 26.2082 35.7972 26.6731V27.2382H31.613C31.6851 27.5829 31.8414 27.8594 32.0819 28.0679C32.3223 28.2682 32.619 28.3684 32.9716 28.3684C33.2683 28.3684 33.5167 28.3043 33.7172 28.1761C33.9255 28.0398 34.1059 27.8674 34.2582 27.659L35.5207 28.5849ZM33.9937 26.0118C34.0017 25.7072 33.9015 25.4466 33.6931 25.2302C33.4846 25.0138 33.2162 24.9056 32.8875 24.9056C32.6871 24.9056 32.5107 24.9376 32.3584 25.0018C32.2061 25.0659 32.0739 25.1501 31.9617 25.2543C31.8574 25.3505 31.7733 25.4667 31.7091 25.603C31.653 25.7313 31.621 25.8675 31.613 26.0118H33.9937ZM38.4691 26.4687L36.5213 23.7513H38.6495L39.6835 25.3384L40.6815 23.7513H42.6895L40.7897 26.4687L43.0381 29.5948H40.91L39.6354 27.647L38.2647 29.5948H36.1605L38.4691 26.4687ZM47.5551 25.1942H45.9679V27.142C45.9679 27.3023 45.9759 27.4507 45.9919 27.5869C46.008 27.7151 46.044 27.8273 46.1001 27.9235C46.1563 28.0198 46.2405 28.0959 46.3527 28.152C46.4729 28.2001 46.6292 28.2242 46.8216 28.2242C46.9178 28.2242 47.042 28.2161 47.1943 28.2001C47.3547 28.1761 47.4749 28.128 47.5551 28.0558V29.5588C47.3547 29.6309 47.1462 29.679 46.9298 29.7031C46.7134 29.7272 46.501 29.7392 46.2926 29.7392C45.9879 29.7392 45.7074 29.7071 45.4509 29.6429C45.1944 29.5788 44.97 29.4786 44.7775 29.3424C44.5852 29.1981 44.4329 29.0137 44.3206 28.7893C44.2164 28.5649 44.1643 28.2923 44.1643 27.9717V25.1942H43.0101V23.7513H44.1643V22.0198H45.9679V23.7513H47.5551V25.1942ZM52.2578 21.0821H55.4201C55.8609 21.0821 56.2778 21.1221 56.6706 21.2023C57.0633 21.2824 57.404 21.4227 57.6926 21.6231C57.9892 21.8155 58.2216 22.08 58.39 22.4167C58.5663 22.7454 58.6545 23.1621 58.6545 23.6671C58.6545 24.1641 58.5743 24.581 58.4141 24.9176C58.2537 25.2543 58.0333 25.5228 57.7527 25.7232C57.4722 25.9236 57.1395 26.0679 56.7548 26.156C56.37 26.2363 55.9531 26.2763 55.5043 26.2763H54.1335V29.5948H52.2578V21.0821ZM54.1335 24.6892H55.384C55.5524 24.6892 55.7127 24.6731 55.865 24.6411C56.0253 24.609 56.1656 24.5569 56.2858 24.4848C56.414 24.4046 56.5142 24.3004 56.5864 24.1721C56.6666 24.0359 56.7067 23.8676 56.7067 23.6671C56.7067 23.4507 56.6546 23.2784 56.5503 23.1501C56.4541 23.0138 56.3259 22.9097 56.1656 22.8375C56.0133 22.7654 55.8409 22.7213 55.6486 22.7053C55.4562 22.6812 55.2718 22.6692 55.0955 22.6692H54.1335V24.6892ZM63.2702 28.8614H63.2462C63.0457 29.1741 62.7773 29.3985 62.4405 29.5347C62.112 29.671 61.7632 29.7392 61.3945 29.7392C61.122 29.7392 60.8574 29.6991 60.6009 29.6189C60.3525 29.5467 60.132 29.4345 59.9396 29.2823C59.7473 29.13 59.5949 28.9415 59.4827 28.7171C59.3705 28.4926 59.3144 28.2322 59.3144 27.9356C59.3144 27.5989 59.3745 27.3143 59.4947 27.0819C59.623 26.8495 59.7914 26.657 59.9997 26.5047C60.2161 26.3525 60.4607 26.2363 60.7332 26.156C61.0058 26.0679 61.2863 26.0037 61.5749 25.9637C61.8714 25.9236 62.164 25.8996 62.4526 25.8915C62.7492 25.8835 63.0217 25.8795 63.2702 25.8795C63.2702 25.5588 63.1539 25.3064 62.9215 25.1221C62.6971 24.9296 62.4285 24.8334 62.116 24.8334C61.8193 24.8334 61.5468 24.8975 61.2983 25.0258C61.0578 25.1461 60.8414 25.3144 60.649 25.5308L59.6871 24.5449C60.0238 24.2322 60.4166 23.9998 60.8655 23.8475C61.3143 23.6872 61.7792 23.607 62.2602 23.607C62.7893 23.607 63.2221 23.6751 63.5588 23.8114C63.9035 23.9397 64.176 24.1321 64.3764 24.3885C64.5848 24.6451 64.7291 24.9617 64.8092 25.3384C64.8894 25.7072 64.9295 26.136 64.9295 26.625V29.5948H63.2702V28.8614ZM62.8253 27.0338C62.6891 27.0338 62.5167 27.0418 62.3083 27.0578C62.1079 27.0659 61.9115 27.0979 61.7191 27.154C61.5348 27.2101 61.3744 27.2943 61.2382 27.4066C61.1099 27.5188 61.0458 27.6751 61.0458 27.8754C61.0458 28.0919 61.138 28.2522 61.3223 28.3564C61.5068 28.4606 61.6991 28.5127 61.8995 28.5127C62.0759 28.5127 62.2442 28.4886 62.4045 28.4405C62.5728 28.3925 62.7211 28.3243 62.8494 28.2362C62.9776 28.148 63.0778 28.0358 63.1499 27.8995C63.2301 27.7632 63.2702 27.6029 63.2702 27.4186V27.0338H62.8253ZM69.4277 30.5447C69.3074 30.8573 69.1912 31.1339 69.079 31.3743C68.9668 31.6149 68.8224 31.8152 68.6461 31.9755C68.4778 32.1439 68.2614 32.2682 67.9969 32.3483C67.7324 32.4365 67.3836 32.4805 66.9508 32.4805C66.4858 32.4805 66.037 32.4084 65.6041 32.2641L65.8446 30.7852C66.1172 30.9055 66.3977 30.9656 66.6863 30.9656C66.8866 30.9656 67.0509 30.9416 67.1793 30.8935C67.3075 30.8533 67.4117 30.7892 67.4918 30.701C67.58 30.6209 67.6522 30.5207 67.7083 30.4005C67.7644 30.2802 67.8245 30.1399 67.8887 29.9796L68.0209 29.6429L65.4599 23.7513H67.4077L68.9107 27.6109H68.9347L70.2213 23.7513H72.0729L69.4277 30.5447ZM72.7422 23.7513H74.5457V24.6892H74.5698C74.7622 24.3284 74.9906 24.0599 75.2551 23.8836C75.5197 23.6992 75.8523 23.607 76.2531 23.607C76.3573 23.607 76.4616 23.611 76.5658 23.619C76.67 23.6271 76.7662 23.6431 76.8543 23.6671V25.3144C76.7261 25.2743 76.5978 25.2463 76.4696 25.2302C76.3493 25.2062 76.2211 25.1942 76.0848 25.1942C75.7401 25.1942 75.4676 25.2423 75.2672 25.3384C75.0668 25.4346 74.9105 25.5709 74.7983 25.7473C74.6941 25.9156 74.6259 26.12 74.5938 26.3605C74.5618 26.6009 74.5457 26.8655 74.5457 27.154V29.5948H72.7422V23.7513ZM77.2108 26.6731C77.2108 26.2082 77.295 25.7874 77.4634 25.4106C77.6317 25.0339 77.8601 24.7132 78.1487 24.4487C78.4452 24.1761 78.79 23.9678 79.1827 23.8234C79.5835 23.6791 80.0084 23.607 80.4573 23.607C80.9061 23.607 81.3269 23.6791 81.7197 23.8234C82.1205 23.9678 82.4652 24.1761 82.7538 24.4487C83.0503 24.7132 83.2828 25.0339 83.4512 25.4106C83.6195 25.7874 83.7036 26.2082 83.7036 26.6731C83.7036 27.138 83.6195 27.5589 83.4512 27.9356C83.2828 28.3123 83.0503 28.637 82.7538 28.9095C82.4652 29.1741 82.1205 29.3784 81.7197 29.5227C81.3269 29.667 80.9061 29.7392 80.4573 29.7392C80.0084 29.7392 79.5835 29.667 79.1827 29.5227C78.79 29.3784 78.4452 29.1741 78.1487 28.9095C77.8601 28.637 77.6317 28.3123 77.4634 27.9356C77.295 27.5589 77.2108 27.138 77.2108 26.6731ZM79.0144 26.6731C79.0144 27.1139 79.1386 27.4707 79.3871 27.7432C79.6436 28.0158 80.0003 28.152 80.4573 28.152C80.9141 28.152 81.2668 28.0158 81.5153 27.7432C81.7718 27.4707 81.9001 27.1139 81.9001 26.6731C81.9001 26.2323 81.7718 25.8755 81.5153 25.603C81.2668 25.3304 80.9141 25.1942 80.4573 25.1942C80.0003 25.1942 79.6436 25.3304 79.3871 25.603C79.1386 25.8755 79.0144 26.2323 79.0144 26.6731ZM84.79 20.5049H86.5936V29.5948H84.79V20.5049ZM87.9134 20.5049H89.7173V29.5948H87.9134V20.5049ZM97.4562 21.5149C97.2161 21.8996 96.9991 22.2684 96.8071 22.621C96.6141 22.9738 96.4505 23.3345 96.3135 23.7032C96.1855 24.0639 96.0859 24.4447 96.013 24.8455C95.941 25.2383 95.9054 25.6671 95.9054 26.132C95.9054 26.5969 95.941 27.0298 96.013 27.4306C96.0859 27.8233 96.1855 28.2041 96.3135 28.5729C96.4505 28.9335 96.6141 29.2903 96.8071 29.6429C96.9991 29.9957 97.2161 30.3644 97.4562 30.7491L96.2175 31.4706L96.1935 31.4224C95.6404 30.5968 95.2118 29.7592 94.9068 28.9095C94.6107 28.0518 94.4622 27.126 94.4622 26.132C94.4622 25.1381 94.6107 24.2162 94.9068 23.3666C95.2118 22.5088 95.6404 21.6672 96.1935 20.8415L96.2175 20.7934L97.4562 21.5149ZM102.981 26.7452C102.981 27.138 102.944 27.5188 102.872 27.8874C102.808 28.2562 102.68 28.5849 102.487 28.8734C102.295 29.154 102.019 29.3824 101.658 29.5588C101.306 29.7272 100.841 29.8113 100.263 29.8113C99.5894 29.8113 99.0203 29.6509 98.5562 29.3303C98.0911 29.0097 97.7905 28.5087 97.6536 27.8273L99.3733 27.4066C99.3973 27.615 99.4898 27.7913 99.6499 27.9356C99.818 28.0799 100.006 28.152 100.215 28.152C100.432 28.152 100.6 28.0999 100.721 27.9957C100.841 27.8834 100.929 27.7472 100.985 27.5869C101.041 27.4266 101.073 27.2542 101.081 27.0699C101.097 26.8775 101.105 26.7011 101.105 26.5408V21.0821H102.981V26.7452ZM109.991 29.5948H108.259V28.8013H108.235C108.17 28.9135 108.087 29.0257 107.983 29.138C107.886 29.2502 107.766 29.3504 107.622 29.4385C107.478 29.5267 107.313 29.5988 107.129 29.6549C106.944 29.7111 106.744 29.7392 106.527 29.7392C106.071 29.7392 105.697 29.671 105.409 29.5347C105.128 29.3905 104.909 29.1941 104.748 28.9456C104.596 28.6971 104.492 28.4045 104.436 28.0679C104.388 27.7312 104.364 27.3665 104.364 26.9737V23.7513H106.167V26.6129C106.167 26.7813 106.171 26.9577 106.179 27.142C106.195 27.3183 106.231 27.4827 106.287 27.635C106.351 27.7873 106.444 27.9115 106.564 28.0078C106.692 28.1039 106.872 28.152 107.105 28.152C107.337 28.152 107.526 28.1119 107.67 28.0318C107.814 27.9436 107.922 27.8313 107.994 27.6951C108.074 27.5508 108.127 27.3905 108.151 27.2141C108.175 27.0378 108.186 26.8535 108.186 26.661V23.7513H109.991V29.5948ZM111.292 20.5049H113.095V29.5948H111.292V20.5049ZM117.758 30.5447C117.637 30.8573 117.521 31.1339 117.408 31.3743C117.296 31.6149 117.152 31.8152 116.976 31.9755C116.807 32.1439 116.591 32.2682 116.326 32.3483C116.062 32.4365 115.714 32.4805 115.281 32.4805C114.816 32.4805 114.366 32.4084 113.934 32.2641L114.174 30.7852C114.447 30.9055 114.727 30.9656 115.016 30.9656C115.217 30.9656 115.381 30.9416 115.509 30.8935C115.637 30.8533 115.741 30.7892 115.822 30.701C115.91 30.6209 115.982 30.5207 116.038 30.4005C116.094 30.2802 116.155 30.1399 116.219 29.9796L116.351 29.6429L113.789 23.7513H115.738L117.24 27.6109H117.264L118.551 23.7513H120.402L117.758 30.5447ZM124.582 27.6831L127.888 24.7132C128.057 24.5609 128.225 24.3885 128.393 24.1962C128.562 24.0038 128.646 23.7793 128.646 23.5229C128.646 23.2343 128.542 23.0098 128.333 22.8495C128.124 22.6812 127.88 22.597 127.6 22.597C127.263 22.597 126.999 22.7013 126.806 22.9097C126.622 23.118 126.518 23.3746 126.494 23.6791L124.69 23.5469C124.714 23.106 124.806 22.7253 124.967 22.4046C125.127 22.076 125.339 21.8035 125.604 21.5871C125.869 21.3706 126.177 21.2103 126.529 21.1061C126.89 20.9939 127.279 20.9378 127.696 20.9378C128.081 20.9378 128.441 20.9939 128.778 21.1061C129.115 21.2103 129.408 21.3706 129.656 21.5871C129.905 21.7954 130.097 22.06 130.233 22.3806C130.377 22.7013 130.45 23.074 130.45 23.4988C130.45 23.7713 130.421 24.0199 130.365 24.2443C130.309 24.4608 130.229 24.6611 130.124 24.8455C130.028 25.0218 129.913 25.1862 129.776 25.3384C129.64 25.4907 129.491 25.6391 129.331 25.7833L126.746 28.0078H130.522V29.5948H124.582V27.6831ZM131.817 23.2824C131.817 22.8896 131.889 22.5489 132.034 22.2604C132.186 21.9637 132.391 21.7193 132.647 21.527C132.912 21.3265 133.216 21.1782 133.561 21.0821C133.906 20.9859 134.274 20.9378 134.667 20.9378C135.06 20.9378 135.428 20.9859 135.774 21.0821C136.119 21.1782 136.419 21.3265 136.675 21.527C136.932 21.7193 137.136 21.9637 137.289 22.2604C137.441 22.5489 137.517 22.8896 137.517 23.2824C137.517 23.7473 137.388 24.1441 137.132 24.4728C136.883 24.8014 136.531 25.0339 136.074 25.1701V25.1942C136.587 25.3304 136.98 25.5789 137.252 25.9396C137.525 26.2924 137.661 26.7332 137.661 27.2622C137.661 27.6711 137.577 28.0318 137.409 28.3444C137.249 28.657 137.028 28.9175 136.747 29.126C136.475 29.3263 136.159 29.4786 135.798 29.5828C135.437 29.687 135.06 29.7392 134.667 29.7392C134.274 29.7392 133.898 29.687 133.537 29.5828C133.176 29.4786 132.856 29.3263 132.575 29.126C132.303 28.9175 132.082 28.657 131.913 28.3444C131.753 28.0318 131.673 27.6711 131.673 27.2622C131.673 26.7332 131.809 26.2924 132.082 25.9396C132.354 25.5789 132.748 25.3304 133.261 25.1942V25.1701C132.804 25.0339 132.447 24.8014 132.19 24.4728C131.942 24.1441 131.817 23.7473 131.817 23.2824ZM133.622 23.5349C133.622 23.7994 133.718 24.0239 133.91 24.2082C134.102 24.3925 134.354 24.4848 134.667 24.4848C134.98 24.4848 135.232 24.3925 135.425 24.2082C135.617 24.0239 135.713 23.7994 135.713 23.5349C135.713 23.2784 135.617 23.0579 135.425 22.8736C135.232 22.6893 134.98 22.597 134.667 22.597C134.354 22.597 134.102 22.6893 133.91 22.8736C133.718 23.0579 133.622 23.2784 133.622 23.5349ZM133.477 27.0098C133.477 27.3063 133.585 27.5589 133.801 27.7672C134.018 27.9757 134.306 28.0799 134.667 28.0799C135.028 28.0799 135.316 27.9757 135.533 27.7672C135.75 27.5589 135.858 27.3063 135.858 27.0098C135.858 26.7051 135.75 26.4486 135.533 26.2403C135.316 26.0318 135.028 25.9276 134.667 25.9276C134.306 25.9276 134.018 26.0318 133.801 26.2403C133.585 26.4486 133.477 26.7051 133.477 27.0098ZM138.477 30.7491C138.717 30.3644 138.933 29.9957 139.126 29.6429C139.318 29.2903 139.478 28.9335 139.607 28.5729C139.743 28.2041 139.847 27.8233 139.919 27.4306C139.991 27.0298 140.028 26.5969 140.028 26.132C140.028 25.6671 139.991 25.2383 139.919 24.8455C139.847 24.4447 139.743 24.0639 139.607 23.7032C139.478 23.3345 139.318 22.9738 139.126 22.621C138.933 22.2684 138.717 21.8996 138.477 21.5149L139.715 20.7934L139.739 20.8415C140.292 21.6672 140.717 22.5088 141.014 23.3666C141.318 24.2162 141.47 25.1381 141.47 26.132C141.47 27.126 141.318 28.0518 141.014 28.9095C140.717 29.7592 140.292 30.5968 139.739 31.4224L139.715 31.4706L138.477 30.7491Z" fill="white"/>
<path d="M20.3415 44.7281H22.2353C22.5299 44.7281 22.8094 44.7582 23.0739 44.8183C23.3445 44.8724 23.5819 44.9686 23.7863 45.1069C23.9967 45.2391 24.162 45.4195 24.2824 45.6479C24.4085 45.8704 24.4717 46.1469 24.4717 46.4775C24.4717 46.8263 24.4055 47.1149 24.2733 47.3433C24.1411 47.5717 23.9697 47.7521 23.7593 47.8844C23.5549 48.0166 23.3295 48.1098 23.083 48.1639C22.8365 48.218 22.602 48.2451 22.3795 48.2451H21.099V51.1127H20.3415V44.7281ZM21.099 47.5417H22.3795C22.7583 47.5417 23.0649 47.4575 23.2994 47.2891C23.5399 47.1149 23.6601 46.8473 23.6601 46.4866C23.6601 46.1259 23.5399 45.8613 23.2994 45.693C23.0649 45.5187 22.7583 45.4315 22.3795 45.4315H21.099V47.5417ZM25.5067 47.4335C25.7232 47.2111 25.9786 47.0487 26.2732 46.9465C26.5738 46.8383 26.8774 46.7842 27.184 46.7842C27.8093 46.7842 28.2601 46.9315 28.5366 47.2261C28.8132 47.5206 28.9515 47.9685 28.9515 48.5697V50.3823C28.9515 50.5025 28.9575 50.6288 28.9695 50.761C28.9815 50.8873 28.9965 51.0045 29.0146 51.1127H28.3383C28.3142 51.0166 28.2992 50.9114 28.2932 50.7971C28.2932 50.6769 28.2932 50.5717 28.2932 50.4815H28.2751C28.1368 50.6979 27.9506 50.8753 27.7161 51.0135C27.4876 51.1518 27.2111 51.2209 26.8864 51.2209C26.67 51.2209 26.4656 51.1939 26.2732 51.1398C26.0868 51.0857 25.9215 51.0075 25.7772 50.9053C25.6389 50.7971 25.5277 50.6649 25.4436 50.5086C25.3594 50.3522 25.3173 50.1719 25.3173 49.9675C25.3173 49.6188 25.4075 49.3453 25.5878 49.1468C25.7682 48.9484 25.9906 48.8012 26.2552 48.705C26.5257 48.6087 26.8143 48.5486 27.1209 48.5246C27.4335 48.5006 27.7191 48.4885 27.9776 48.4885H28.2481V48.3623C28.2481 48.0557 28.1549 47.8243 27.9685 47.6679C27.7882 47.5116 27.5327 47.4335 27.202 47.4335C26.9736 47.4335 26.7482 47.4725 26.5257 47.5507C26.3092 47.6229 26.1169 47.737 25.9486 47.8934L25.5067 47.4335ZM27.5447 49.0838C27.0938 49.0838 26.7361 49.1468 26.4716 49.2731C26.2071 49.3993 26.0748 49.6068 26.0748 49.8954C26.0748 50.1598 26.162 50.3492 26.3364 50.4635C26.5167 50.5717 26.7391 50.6258 27.0036 50.6258C27.2081 50.6258 27.3854 50.5927 27.5357 50.5266C27.692 50.4544 27.8213 50.3612 27.9234 50.247C28.0257 50.1328 28.1039 50.0005 28.1579 49.8503C28.2121 49.6939 28.2421 49.5286 28.2481 49.3543V49.0838H27.5447ZM31.7881 52.0777C31.716 52.258 31.6408 52.4203 31.5627 52.5646C31.4905 52.7149 31.4003 52.8412 31.2922 52.9433C31.1899 53.0515 31.0636 53.1327 30.9133 53.1868C30.7691 53.2469 30.5917 53.2771 30.3813 53.2771C30.2792 53.2771 30.1709 53.271 30.0567 53.259C29.9485 53.2469 29.8463 53.2169 29.7501 53.1688L29.8402 52.5556C29.9123 52.5857 29.9875 52.6036 30.0657 52.6097C30.1438 52.6217 30.234 52.6277 30.3362 52.6277C30.5647 52.6277 30.733 52.5646 30.8412 52.4383C30.9494 52.3121 31.0426 52.1437 31.1208 51.9334L31.4094 51.1398L29.6599 46.8924H30.4805L31.7881 50.202H31.8061L33.0596 46.8924H33.8262L31.7881 52.0777ZM34.5874 47.8934C34.5874 47.701 34.5814 47.5206 34.5694 47.3523C34.5574 47.1839 34.5513 47.0306 34.5513 46.8924H35.2187C35.2187 47.0066 35.2217 47.1208 35.2277 47.2351C35.2337 47.3493 35.2367 47.4665 35.2367 47.5868H35.2548C35.3028 47.4846 35.369 47.3854 35.4532 47.2891C35.5433 47.193 35.6485 47.1088 35.7687 47.0367C35.889 46.9585 36.0242 46.8984 36.1746 46.8564C36.3249 46.8083 36.4871 46.7842 36.6615 46.7842C36.7096 46.7842 36.7577 46.7872 36.8058 46.7932C36.8539 46.7992 36.902 46.8113 36.9501 46.8292L36.905 47.5417C36.7848 47.5056 36.6585 47.4876 36.5263 47.4876C36.0934 47.4876 35.7777 47.6288 35.5793 47.9114C35.387 48.188 35.2908 48.5697 35.2908 49.0566V51.1127H34.5874V47.8934ZM37.3557 49.0026C37.3557 48.6719 37.4128 48.3713 37.5271 48.1008C37.6414 47.8302 37.7976 47.5988 37.996 47.4064C38.1944 47.208 38.4319 47.0547 38.7084 46.9465C38.985 46.8383 39.2855 46.7842 39.6102 46.7842C39.9348 46.7842 40.2355 46.8383 40.512 46.9465C40.7886 47.0547 41.026 47.208 41.2244 47.4064C41.4228 47.5988 41.5791 47.8302 41.6933 48.1008C41.8075 48.3713 41.8647 48.6719 41.8647 49.0026C41.8647 49.3332 41.8075 49.6338 41.6933 49.9043C41.5791 50.1749 41.4228 50.4093 41.2244 50.6077C41.026 50.8001 40.7886 50.9504 40.512 51.0586C40.2355 51.1668 39.9348 51.2209 39.6102 51.2209C39.2855 51.2209 38.985 51.1668 38.7084 51.0586C38.4319 50.9504 38.1944 50.8001 37.996 50.6077C37.7976 50.4093 37.6414 50.1749 37.5271 49.9043C37.4128 49.6338 37.3557 49.3332 37.3557 49.0026ZM38.1133 49.0026C38.1133 49.225 38.1463 49.4324 38.2124 49.6248C38.2846 49.8111 38.3868 49.9764 38.519 50.1208C38.6513 50.259 38.8077 50.3703 38.988 50.4544C39.1744 50.5326 39.3817 50.5717 39.6102 50.5717C39.8386 50.5717 40.043 50.5326 40.2234 50.4544C40.4098 50.3703 40.5691 50.259 40.7013 50.1208C40.8337 49.9764 40.9328 49.8111 40.999 49.6248C41.0711 49.4324 41.1072 49.225 41.1072 49.0026C41.1072 48.7801 41.0711 48.5758 40.999 48.3894C40.9328 48.1969 40.8337 48.0316 40.7013 47.8934C40.5691 47.749 40.4098 47.6379 40.2234 47.5597C40.043 47.4755 39.8386 47.4335 39.6102 47.4335C39.3817 47.4335 39.1744 47.4755 38.988 47.5597C38.8077 47.6379 38.6513 47.749 38.519 47.8934C38.3868 48.0316 38.2846 48.1969 38.2124 48.3894C38.1463 48.5758 38.1133 48.7801 38.1133 49.0026ZM43.0167 44.2952H43.7201V51.1127H43.0167V44.2952ZM45.1919 44.2952H45.8953V51.1127H45.1919V44.2952ZM54.3319 51.1127H53.6376L52.4382 47.8663H52.4202L51.356 51.1127H50.6346L49.2639 46.8924H50.0395L51.0044 50.1388H51.0224L52.1136 46.8924H52.853L53.9622 50.1388H53.9802L54.9361 46.8924H55.6937L54.3319 51.1127ZM56.5522 46.8924H57.2556V51.1127H56.5522V46.8924ZM56.3899 45.2422C56.3899 45.1039 56.438 44.9837 56.5341 44.8814C56.6364 44.7792 56.7597 44.7281 56.9039 44.7281C57.0482 44.7281 57.1684 44.7792 57.2646 44.8814C57.3668 44.9837 57.4179 45.1039 57.4179 45.2422C57.4179 45.3924 57.3698 45.5157 57.2736 45.6119C57.1775 45.708 57.0543 45.7561 56.9039 45.7561C56.7536 45.7561 56.6304 45.708 56.5341 45.6119C56.438 45.5157 56.3899 45.3924 56.3899 45.2422ZM58.7186 44.2952H59.422V51.1127H58.7186V44.2952ZM60.8938 44.2952H61.5972V51.1127H60.8938V44.2952ZM65.4528 47.4335C65.6693 47.2111 65.9247 47.0487 66.2193 46.9465C66.5199 46.8383 66.8235 46.7842 67.1302 46.7842C67.7554 46.7842 68.2062 46.9315 68.4828 47.2261C68.7593 47.5206 68.8976 47.9685 68.8976 48.5697V50.3823C68.8976 50.5025 68.9036 50.6288 68.9156 50.761C68.9276 50.8873 68.9427 51.0045 68.9607 51.1127H68.2844C68.2604 51.0166 68.2453 50.9114 68.2393 50.7971C68.2393 50.6769 68.2393 50.5717 68.2393 50.4815H68.2212C68.083 50.6979 67.8967 50.8753 67.6622 51.0135C67.4337 51.1518 67.1572 51.2209 66.8325 51.2209C66.6161 51.2209 66.4117 51.1939 66.2193 51.1398C66.033 51.0857 65.8677 51.0075 65.7233 50.9053C65.5851 50.7971 65.4738 50.6649 65.3897 50.5086C65.3055 50.3522 65.2634 50.1719 65.2634 49.9675C65.2634 49.6188 65.3536 49.3453 65.5339 49.1468C65.7143 48.9484 65.9367 48.8012 66.2013 48.705C66.4718 48.6087 66.7604 48.5486 67.067 48.5246C67.3796 48.5006 67.6652 48.4885 67.9237 48.4885H68.1942V48.3623C68.1942 48.0557 68.101 47.8243 67.9146 47.6679C67.7343 47.5116 67.4788 47.4335 67.1481 47.4335C66.9197 47.4335 66.6943 47.4725 66.4718 47.5507C66.2554 47.6229 66.063 47.737 65.8947 47.8934L65.4528 47.4335ZM67.4908 49.0838C67.0399 49.0838 66.6823 49.1468 66.4177 49.2731C66.1532 49.3993 66.021 49.6068 66.021 49.8954C66.021 50.1598 66.1081 50.3492 66.2825 50.4635C66.4628 50.5717 66.6852 50.6258 66.9497 50.6258C67.1542 50.6258 67.3315 50.5927 67.4819 50.5266C67.6381 50.4544 67.7674 50.3612 67.8695 50.247C67.9718 50.1328 68.05 50.0005 68.104 49.8503C68.1582 49.6939 68.1882 49.5286 68.1942 49.3543V49.0838H67.4908ZM73.8624 50.1118C73.8624 50.3041 73.8684 50.4845 73.8805 50.6528C73.8925 50.8211 73.8985 50.9744 73.8985 51.1127H73.2312C73.2312 50.9985 73.2282 50.8843 73.2221 50.7701C73.2162 50.6558 73.2131 50.5386 73.2131 50.4184H73.1951C73.147 50.5206 73.0779 50.6198 72.9877 50.7159C72.9035 50.8121 72.8013 50.8993 72.6811 50.9774C72.5608 51.0496 72.4255 51.1067 72.2753 51.1488C72.125 51.1969 71.9626 51.2209 71.7883 51.2209C71.5118 51.2209 71.2713 51.1789 71.0669 51.0947C70.8685 51.0105 70.7031 50.8933 70.5709 50.743C70.4387 50.5927 70.3394 50.4123 70.2733 50.202C70.2132 49.9855 70.1831 49.751 70.1831 49.4986V46.8924H70.8866V49.4264C70.8866 49.7811 70.9647 50.0607 71.121 50.2651C71.2773 50.4694 71.5208 50.5717 71.8515 50.5717C72.0799 50.5717 72.2753 50.5326 72.4376 50.4544C72.606 50.3762 72.7412 50.2651 72.8434 50.1208C72.9516 49.9764 73.0298 49.8052 73.0779 49.6068C73.132 49.4083 73.1591 49.189 73.1591 48.9484V46.8924H73.8624V50.1118ZM77.5025 47.4876H76.2581V49.5977C76.2581 49.736 76.2611 49.8653 76.2672 49.9855C76.2732 50.0997 76.2972 50.202 76.3393 50.2921C76.3813 50.3762 76.4445 50.4454 76.5287 50.4995C76.6128 50.5476 76.7331 50.5717 76.8893 50.5717C76.9916 50.5717 77.0968 50.5596 77.205 50.5356C77.3132 50.5116 77.4154 50.4755 77.5116 50.4274L77.5387 51.0676C77.4184 51.1218 77.2832 51.1608 77.1329 51.1849C76.9886 51.2089 76.8503 51.2209 76.7181 51.2209C76.4655 51.2209 76.2641 51.1879 76.1139 51.1218C75.9636 51.0556 75.8463 50.9624 75.7622 50.8422C75.678 50.722 75.6209 50.5746 75.5908 50.4003C75.5668 50.22 75.5547 50.0216 75.5547 49.8052V47.4876H74.6349V46.8924H75.5547V45.693H76.2581V46.8924H77.5025V47.4876ZM78.1209 49.0026C78.1209 48.6719 78.178 48.3713 78.2922 48.1008C78.4064 47.8302 78.5628 47.5988 78.7611 47.4064C78.9595 47.208 79.197 47.0547 79.4736 46.9465C79.7501 46.8383 80.0507 46.7842 80.3753 46.7842C80.7 46.7842 81.0006 46.8383 81.2771 46.9465C81.5537 47.0547 81.7912 47.208 81.9895 47.4064C82.1879 47.5988 82.3443 47.8302 82.4584 48.1008C82.5727 48.3713 82.6298 48.6719 82.6298 49.0026C82.6298 49.3332 82.5727 49.6338 82.4584 49.9043C82.3443 50.1749 82.1879 50.4093 81.9895 50.6077C81.7912 50.8001 81.5537 50.9504 81.2771 51.0586C81.0006 51.1668 80.7 51.2209 80.3753 51.2209C80.0507 51.2209 79.7501 51.1668 79.4736 51.0586C79.197 50.9504 78.9595 50.8001 78.7611 50.6077C78.5628 50.4093 78.4064 50.1749 78.2922 49.9043C78.178 49.6338 78.1209 49.3332 78.1209 49.0026ZM78.8783 49.0026C78.8783 49.225 78.9114 49.4324 78.9776 49.6248C79.0497 49.8111 79.1519 49.9764 79.2842 50.1208C79.4164 50.259 79.5727 50.3703 79.7531 50.4544C79.9395 50.5326 80.1469 50.5717 80.3753 50.5717C80.6038 50.5717 80.8082 50.5326 80.9886 50.4544C81.1749 50.3703 81.3342 50.259 81.4665 50.1208C81.5987 49.9764 81.698 49.8111 81.764 49.6248C81.8363 49.4324 81.8723 49.225 81.8723 49.0026C81.8723 48.7801 81.8363 48.5758 81.764 48.3894C81.698 48.1969 81.5987 48.0316 81.4665 47.8934C81.3342 47.749 81.1749 47.6379 80.9886 47.5597C80.8082 47.4755 80.6038 47.4335 80.3753 47.4335C80.1469 47.4335 79.9395 47.4755 79.7531 47.5597C79.5727 47.6379 79.4164 47.749 79.2842 47.8934C79.1519 48.0316 79.0497 48.1969 78.9776 48.3894C78.9114 48.5758 78.8783 48.7801 78.8783 49.0026ZM83.7187 47.8934C83.7187 47.701 83.7127 47.5206 83.7007 47.3523C83.6887 47.1839 83.6826 47.0306 83.6826 46.8924H84.3499C84.3499 47.0066 84.3529 47.1208 84.359 47.2351C84.365 47.3493 84.3679 47.4665 84.3679 47.5868H84.386C84.4341 47.4846 84.5003 47.3854 84.5844 47.2891C84.6745 47.193 84.7797 47.1088 84.9 47.0367C85.0203 46.9585 85.1555 46.8984 85.3058 46.8564C85.4561 46.8083 85.6184 46.7842 85.7928 46.7842C86.0213 46.7842 86.2106 46.8142 86.3609 46.8743C86.5172 46.9285 86.6465 46.9976 86.7486 47.0818C86.8509 47.1599 86.9291 47.2471 86.9831 47.3433C87.0432 47.4335 87.0913 47.5146 87.1274 47.5868C87.2837 47.3342 87.4641 47.1389 87.6685 47.0006C87.8729 46.8564 88.1374 46.7842 88.4621 46.7842C88.7626 46.7842 89.0148 46.8263 89.2193 46.9104C89.4239 46.9886 89.5893 47.1058 89.7155 47.2621C89.8418 47.4124 89.9316 47.5988 89.9858 47.8212C90.0401 48.0377 90.0677 48.2812 90.0677 48.5517V51.1127H89.3643V48.5878C89.3643 48.4434 89.3492 48.3021 89.3189 48.1639C89.2887 48.0256 89.2345 47.9023 89.1562 47.7942C89.078 47.686 88.973 47.5988 88.8408 47.5327C88.7086 47.4665 88.5402 47.4335 88.3358 47.4335C88.1855 47.4335 88.0442 47.4635 87.912 47.5236C87.7797 47.5837 87.6625 47.6679 87.5602 47.7762C87.4641 47.8844 87.386 48.0166 87.3258 48.1729C87.2717 48.3232 87.2447 48.4915 87.2447 48.6779V51.1127H86.5413V48.723C86.5413 48.2541 86.4781 47.9234 86.3519 47.7311C86.2256 47.5327 86.0182 47.4335 85.7297 47.4335C85.5013 47.4335 85.3028 47.4725 85.1345 47.5507C84.9722 47.6288 84.8369 47.7401 84.7287 47.8844C84.6264 48.0286 84.5484 48.2 84.4942 48.3984C84.4461 48.5967 84.4221 48.8162 84.4221 49.0566V51.1127H83.7187V47.8934ZM91.3437 47.4335C91.5607 47.2111 91.8159 47.0487 92.1102 46.9465C92.4107 46.8383 92.7149 46.7842 93.0208 46.7842C93.6468 46.7842 94.0976 46.9315 94.3741 47.2261C94.6507 47.5206 94.7885 47.9685 94.7885 48.5697V50.3823C94.7885 50.5025 94.7947 50.6288 94.8063 50.761C94.8188 50.8873 94.8339 51.0045 94.8517 51.1127H94.1758C94.151 51.0166 94.1367 50.9114 94.1305 50.7971C94.1305 50.6769 94.1305 50.5717 94.1305 50.4815H94.1127C93.974 50.6979 93.7873 50.8753 93.5534 51.0135C93.3249 51.1518 93.0483 51.2209 92.7238 51.2209C92.5068 51.2209 92.3032 51.1939 92.1102 51.1398C91.9243 51.0857 91.7589 51.0075 91.614 50.9053C91.4762 50.7971 91.365 50.6649 91.2805 50.5086C91.197 50.3522 91.1543 50.1719 91.1543 49.9675C91.1543 49.6188 91.245 49.3453 91.4246 49.1468C91.6051 48.9484 91.8274 48.8012 92.0924 48.705C92.3627 48.6087 92.6517 48.5486 92.9576 48.5246C93.2706 48.5006 93.5561 48.4885 93.8148 48.4885H94.0851V48.3623C94.0851 48.0557 93.9918 47.8243 93.8059 47.6679C93.6254 47.5116 93.3702 47.4335 93.0394 47.4335C92.8109 47.4335 92.585 47.4725 92.3627 47.5507C92.1467 47.6229 91.9537 47.737 91.7856 47.8934L91.3437 47.4335ZM93.3818 49.0838C92.9309 49.0838 92.5735 49.1468 92.3085 49.2731C92.0444 49.3993 91.9119 49.6068 91.9119 49.8954C91.9119 50.1598 91.999 50.3492 92.1733 50.4635C92.3538 50.5717 92.5761 50.6258 92.8411 50.6258C93.0448 50.6258 93.2226 50.5927 93.3729 50.5266C93.5294 50.4544 93.6583 50.3612 93.7606 50.247C93.8628 50.1328 93.9411 50.0005 93.9953 49.8503C94.0496 49.6939 94.0789 49.5286 94.0851 49.3543V49.0838H93.3818ZM98.3827 47.4876H97.1378V49.5977C97.1378 49.736 97.1414 49.8653 97.1476 49.9855C97.153 50.0997 97.177 50.202 97.2196 50.2921C97.2614 50.3762 97.3246 50.4454 97.409 50.4995C97.4926 50.5476 97.6136 50.5717 97.7692 50.5717C97.8714 50.5717 97.9773 50.5596 98.0849 50.5356C98.1933 50.5116 98.2956 50.4755 98.3916 50.4274L98.4192 51.0676C98.2983 51.1218 98.1631 51.1608 98.0128 51.1849C97.8688 51.2089 97.7301 51.2209 97.5985 51.2209C97.3459 51.2209 97.1441 51.1879 96.9938 51.1218C96.8435 51.0556 96.7261 50.9624 96.6425 50.8422C96.5581 50.722 96.5012 50.5746 96.4709 50.4003C96.4469 50.22 96.4345 50.0216 96.4345 49.8052V47.4876H95.515V46.8924H96.4345V45.693H97.1378V46.8924H98.3827V47.4876ZM99.3164 46.8924H100.02V51.1127H99.3164V46.8924ZM99.1537 45.2422C99.1537 45.1039 99.2026 44.9837 99.2986 44.8814C99.4009 44.7792 99.5236 44.7281 99.6677 44.7281C99.8126 44.7281 99.9327 44.7792 100.029 44.8814C100.131 44.9837 100.183 45.1039 100.183 45.2422C100.183 45.3924 100.134 45.5157 100.038 45.6119C99.9415 45.708 99.8188 45.7561 99.6677 45.7561C99.5174 45.7561 99.3947 45.708 99.2986 45.6119C99.2026 45.5157 99.1537 45.3924 99.1537 45.2422ZM104.422 47.9475C104.272 47.7671 104.11 47.6379 103.936 47.5597C103.762 47.4755 103.569 47.4335 103.359 47.4335C103.124 47.4335 102.917 47.4755 102.736 47.5597C102.556 47.6379 102.406 47.749 102.286 47.8934C102.171 48.0377 102.084 48.206 102.024 48.3984C101.964 48.5847 101.933 48.7861 101.933 49.0026C101.933 49.219 101.967 49.4234 102.033 49.6158C102.105 49.8022 102.201 49.9675 102.321 50.1118C102.447 50.256 102.598 50.3703 102.772 50.4544C102.947 50.5326 103.142 50.5717 103.359 50.5717C103.821 50.5717 104.18 50.3973 104.431 50.0487L104.955 50.5446C104.75 50.7791 104.509 50.9504 104.233 51.0586C103.956 51.1668 103.665 51.2209 103.359 51.2209C103.034 51.2209 102.736 51.1668 102.466 51.0586C102.195 50.9504 101.964 50.7971 101.772 50.5987C101.585 50.4003 101.438 50.1659 101.33 49.8954C101.227 49.6248 101.176 49.3272 101.176 49.0026C101.176 48.684 101.227 48.3894 101.33 48.1188C101.438 47.8483 101.588 47.6138 101.78 47.4154C101.973 47.217 102.201 47.0637 102.466 46.9555C102.736 46.8413 103.034 46.7842 103.359 46.7842C103.671 46.7842 103.966 46.8383 104.243 46.9465C104.525 47.0547 104.771 47.2231 104.982 47.4515L104.422 47.9475ZM105.716 47.4335C105.932 47.2111 106.188 47.0487 106.483 46.9465C106.783 46.8383 107.086 46.7842 107.393 46.7842C108.018 46.7842 108.469 46.9315 108.746 47.2261C109.022 47.5206 109.161 47.9685 109.161 48.5697V50.3823C109.161 50.5025 109.167 50.6288 109.179 50.761C109.191 50.8873 109.205 51.0045 109.224 51.1127H108.547C108.523 51.0166 108.508 50.9114 108.502 50.7971C108.502 50.6769 108.502 50.5717 108.502 50.4815H108.484C108.346 50.6979 108.16 50.8753 107.925 51.0135C107.697 51.1518 107.421 51.2209 107.095 51.2209C106.879 51.2209 106.675 51.1939 106.483 51.1398C106.296 51.0857 106.131 51.0075 105.986 50.9053C105.849 50.7971 105.737 50.6649 105.653 50.5086C105.569 50.3522 105.527 50.1719 105.527 49.9675C105.527 49.6188 105.617 49.3453 105.797 49.1468C105.978 48.9484 106.2 48.8012 106.465 48.705C106.735 48.6087 107.023 48.5486 107.33 48.5246C107.643 48.5006 107.929 48.4885 108.187 48.4885H108.458V48.3623C108.458 48.0557 108.364 47.8243 108.177 47.6679C107.998 47.5116 107.742 47.4335 107.411 47.4335C107.182 47.4335 106.957 47.4725 106.735 47.5507C106.518 47.6229 106.326 47.737 106.158 47.8934L105.716 47.4335ZM107.754 49.0838C107.303 49.0838 106.945 49.1468 106.681 49.2731C106.416 49.3993 106.284 49.6068 106.284 49.8954C106.284 50.1598 106.371 50.3492 106.546 50.4635C106.726 50.5717 106.949 50.6258 107.213 50.6258C107.417 50.6258 107.595 50.5927 107.745 50.5266C107.901 50.4544 108.031 50.3612 108.133 50.247C108.235 50.1328 108.313 50.0005 108.367 49.8503C108.421 49.6939 108.451 49.5286 108.458 49.3543V49.0838H107.754ZM110.509 44.2952H111.212V51.1127H110.509V44.2952ZM112.685 44.2952H113.388V51.1127H112.685V44.2952ZM116.339 52.0777C116.267 52.258 116.192 52.4203 116.114 52.5646C116.042 52.7149 115.951 52.8412 115.843 52.9433C115.741 53.0515 115.615 53.1327 115.465 53.1868C115.32 53.2469 115.143 53.2771 114.932 53.2771C114.83 53.2771 114.722 53.271 114.607 53.259C114.499 53.2469 114.397 53.2169 114.301 53.1688L114.391 52.5556C114.463 52.5857 114.538 52.6036 114.616 52.6097C114.695 52.6217 114.785 52.6277 114.887 52.6277C115.115 52.6277 115.284 52.5646 115.392 52.4383C115.5 52.3121 115.594 52.1437 115.672 51.9334L115.96 51.1398L114.211 46.8924H115.032L116.339 50.202H116.357L117.61 46.8924H118.377L116.339 52.0777ZM121.648 47.8934C121.648 47.701 121.642 47.5206 121.63 47.3523C121.618 47.1839 121.612 47.0306 121.612 46.8924H122.28C122.28 47.0066 122.282 47.1208 122.289 47.2351C122.295 47.3493 122.297 47.4665 122.297 47.5868H122.315C122.363 47.4846 122.43 47.3854 122.513 47.2891C122.604 47.193 122.709 47.1088 122.829 47.0367C122.95 46.9585 123.085 46.8984 123.236 46.8564C123.386 46.8083 123.548 46.7842 123.722 46.7842C123.77 46.7842 123.819 46.7872 123.867 46.7932C123.915 46.7992 123.963 46.8113 124.011 46.8292L123.966 47.5417C123.846 47.5056 123.719 47.4876 123.587 47.4876C123.154 47.4876 122.838 47.6288 122.64 47.9114C122.448 48.188 122.352 48.5697 122.352 49.0566V51.1127H121.648V47.8934ZM128.498 50.1118C128.498 50.3041 128.504 50.4845 128.516 50.6528C128.528 50.8211 128.533 50.9744 128.533 51.1127H127.867C127.867 50.9985 127.864 50.8843 127.858 50.7701C127.851 50.6558 127.849 50.5386 127.849 50.4184H127.83C127.782 50.5206 127.713 50.6198 127.623 50.7159C127.538 50.8121 127.436 50.8993 127.316 50.9774C127.196 51.0496 127.061 51.1067 126.911 51.1488C126.76 51.1969 126.598 51.2209 126.423 51.2209C126.147 51.2209 125.907 51.1789 125.702 51.0947C125.504 51.0105 125.339 50.8933 125.206 50.743C125.074 50.5927 124.975 50.4123 124.909 50.202C124.849 49.9855 124.818 49.751 124.818 49.4986V46.8924H125.522V49.4264C125.522 49.7811 125.6 50.0607 125.756 50.2651C125.913 50.4694 126.156 50.5717 126.487 50.5717C126.715 50.5717 126.911 50.5326 127.073 50.4544C127.241 50.3762 127.377 50.2651 127.479 50.1208C127.587 49.9764 127.665 49.8052 127.713 49.6068C127.767 49.4083 127.795 49.189 127.795 48.9484V46.8924H128.498V50.1118ZM129.829 47.8934C129.829 47.701 129.824 47.5206 129.811 47.3523C129.799 47.1839 129.794 47.0306 129.794 46.8924H130.46C130.46 47.0066 130.464 47.1208 130.469 47.2351C130.476 47.3493 130.478 47.4665 130.478 47.5868H130.497C130.545 47.4846 130.611 47.3854 130.695 47.2891C130.785 47.193 130.891 47.1088 131.011 47.0367C131.131 46.9585 131.266 46.8984 131.416 46.8564C131.567 46.8083 131.729 46.7842 131.904 46.7842C132.18 46.7842 132.418 46.8263 132.616 46.9104C132.82 46.9946 132.988 47.1118 133.121 47.2621C133.253 47.4124 133.35 47.5957 133.409 47.8122C133.476 48.0227 133.509 48.2541 133.509 48.5066V51.1127H132.805V48.5787C132.805 48.2241 132.727 47.9445 132.571 47.7401C132.414 47.5356 132.171 47.4335 131.84 47.4335C131.612 47.4335 131.414 47.4725 131.245 47.5507C131.083 47.6288 130.948 47.7401 130.839 47.8844C130.737 48.0286 130.659 48.2 130.604 48.3984C130.556 48.5967 130.532 48.8162 130.532 49.0566V51.1127H129.829V47.8934ZM137.314 44.2952H138.017V47.5056H138.036C138.228 47.2771 138.45 47.0998 138.703 46.9736C138.961 46.8473 139.244 46.7842 139.55 46.7842C139.881 46.7842 140.181 46.8413 140.453 46.9555C140.729 47.0637 140.963 47.217 141.156 47.4154C141.348 47.6138 141.498 47.8483 141.607 48.1188C141.714 48.3894 141.769 48.684 141.769 49.0026C141.769 49.3212 141.714 49.6158 141.607 49.8863C141.498 50.1569 141.348 50.3913 141.156 50.5897C140.969 50.7881 140.747 50.9444 140.488 51.0586C140.229 51.1668 139.953 51.2209 139.659 51.2209C139.28 51.2209 138.946 51.1398 138.657 50.9774C138.375 50.8091 138.167 50.6048 138.036 50.3642H138.017V51.1127H137.314V44.2952ZM138.017 49.0026C138.017 49.225 138.051 49.4324 138.117 49.6248C138.189 49.8111 138.291 49.9764 138.423 50.1208C138.556 50.259 138.711 50.3703 138.892 50.4544C139.079 50.5326 139.286 50.5717 139.514 50.5717C139.743 50.5717 139.948 50.5326 140.127 50.4544C140.314 50.3703 140.473 50.259 140.606 50.1208C140.738 49.9764 140.837 49.8111 140.903 49.6248C140.975 49.4324 141.011 49.225 141.011 49.0026C141.011 48.7801 140.975 48.5758 140.903 48.3894C140.837 48.1969 140.738 48.0316 140.606 47.8934C140.473 47.749 140.314 47.6379 140.127 47.5597C139.948 47.4755 139.743 47.4335 139.514 47.4335C139.286 47.4335 139.079 47.4755 138.892 47.5597C138.711 47.6379 138.556 47.749 138.423 47.8934C138.291 48.0316 138.189 48.1969 138.117 48.3894C138.051 48.5758 138.017 48.7801 138.017 49.0026ZM146.633 50.3462C146.38 50.6708 146.104 50.8993 145.803 51.0316C145.502 51.1579 145.153 51.2209 144.756 51.2209C144.426 51.2209 144.129 51.1638 143.864 51.0496C143.6 50.9293 143.374 50.7701 143.188 50.5717C143.007 50.3733 142.866 50.1388 142.764 49.8682C142.668 49.5977 142.62 49.3092 142.62 49.0026C142.62 48.6779 142.674 48.3803 142.781 48.1098C142.89 47.8333 143.04 47.5988 143.232 47.4064C143.425 47.208 143.654 47.0547 143.918 46.9465C144.183 46.8383 144.471 46.7842 144.784 46.7842C145.078 46.7842 145.349 46.8353 145.595 46.9375C145.842 47.0337 146.052 47.178 146.226 47.3703C146.407 47.5567 146.546 47.7882 146.642 48.0647C146.738 48.3352 146.786 48.6448 146.786 48.9935V49.219H143.377C143.389 49.3993 143.431 49.5737 143.503 49.742C143.582 49.9043 143.68 50.0487 143.8 50.1749C143.921 50.2951 144.062 50.3913 144.225 50.4635C144.386 50.5356 144.564 50.5717 144.756 50.5717C145.063 50.5717 145.322 50.5175 145.532 50.4093C145.743 50.3011 145.932 50.1418 146.1 49.9314L146.633 50.3462ZM146.028 48.6239C146.016 48.2631 145.899 47.9746 145.677 47.7581C145.454 47.5417 145.148 47.4335 144.756 47.4335C144.366 47.4335 144.05 47.5417 143.809 47.7581C143.569 47.9746 143.425 48.2631 143.377 48.6239H146.028ZM148.234 47.4876H147.315V46.8924H148.234V45.9455C148.234 45.687 148.258 45.4525 148.307 45.2422C148.355 45.0257 148.436 44.8393 148.55 44.683C148.671 44.5267 148.826 44.4065 149.019 44.3223C149.211 44.2321 149.449 44.187 149.732 44.187C149.821 44.187 149.917 44.1961 150.02 44.2141C150.122 44.2321 150.206 44.2592 150.272 44.2952L150.174 44.9265C150.005 44.8664 149.845 44.8363 149.695 44.8363C149.515 44.8363 149.374 44.8694 149.272 44.9356C149.17 44.9957 149.091 45.0828 149.037 45.1971C148.989 45.3053 148.959 45.4375 148.947 45.5938C148.941 45.7502 148.938 45.9185 148.938 46.0988V46.8924H149.966V47.4876H148.938V51.1127H148.234V47.4876ZM150.475 49.0026C150.475 48.6719 150.532 48.3713 150.646 48.1008C150.76 47.8302 150.917 47.5988 151.115 47.4064C151.314 47.208 151.551 47.0547 151.827 46.9465C152.104 46.8383 152.405 46.7842 152.729 46.7842C153.054 46.7842 153.354 46.8383 153.631 46.9465C153.907 47.0547 154.145 47.208 154.343 47.4064C154.542 47.5988 154.698 47.8302 154.813 48.1008C154.926 48.3713 154.983 48.6719 154.983 49.0026C154.983 49.3332 154.926 49.6338 154.813 49.9043C154.698 50.1749 154.542 50.4093 154.343 50.6077C154.145 50.8001 153.907 50.9504 153.631 51.0586C153.354 51.1668 153.054 51.2209 152.729 51.2209C152.405 51.2209 152.104 51.1668 151.827 51.0586C151.551 50.9504 151.314 50.8001 151.115 50.6077C150.917 50.4093 150.76 50.1749 150.646 49.9043C150.532 49.6338 150.475 49.3332 150.475 49.0026ZM151.233 49.0026C151.233 49.225 151.265 49.4324 151.331 49.6248C151.403 49.8111 151.506 49.9764 151.638 50.1208C151.771 50.259 151.927 50.3703 152.107 50.4544C152.293 50.5326 152.501 50.5717 152.729 50.5717C152.958 50.5717 153.162 50.5326 153.343 50.4544C153.529 50.3703 153.688 50.259 153.82 50.1208C153.953 49.9764 154.051 49.8111 154.118 49.6248C154.19 49.4324 154.227 49.225 154.227 49.0026C154.227 48.7801 154.19 48.5758 154.118 48.3894C154.051 48.1969 153.953 48.0316 153.82 47.8934C153.688 47.749 153.529 47.6379 153.343 47.5597C153.162 47.4755 152.958 47.4335 152.729 47.4335C152.501 47.4335 152.293 47.4755 152.107 47.5597C151.927 47.6379 151.771 47.749 151.638 47.8934C151.506 48.0316 151.403 48.1969 151.331 48.3894C151.265 48.5758 151.233 48.7801 151.233 49.0026ZM156.073 47.8934C156.073 47.701 156.066 47.5206 156.055 47.3523C156.042 47.1839 156.036 47.0306 156.036 46.8924H156.704C156.704 47.0066 156.707 47.1208 156.713 47.2351C156.719 47.3493 156.722 47.4665 156.722 47.5868H156.74C156.788 47.4846 156.854 47.3854 156.939 47.2891C157.029 47.193 157.133 47.1088 157.254 47.0367C157.374 46.9585 157.51 46.8984 157.66 46.8564C157.81 46.8083 157.972 46.7842 158.146 46.7842C158.195 46.7842 158.243 46.7872 158.291 46.7932C158.339 46.7992 158.387 46.8113 158.435 46.8292L158.39 47.5417C158.27 47.5056 158.144 47.4876 158.011 47.4876C157.579 47.4876 157.263 47.6288 157.065 47.9114C156.872 48.188 156.776 48.5697 156.776 49.0566V51.1127H156.073V47.8934ZM162.854 50.3462C162.601 50.6708 162.325 50.8993 162.024 51.0316C161.724 51.1579 161.375 51.2209 160.978 51.2209C160.648 51.2209 160.35 51.1638 160.086 51.0496C159.821 50.9293 159.596 50.7701 159.409 50.5717C159.228 50.3733 159.087 50.1388 158.985 49.8682C158.889 49.5977 158.841 49.3092 158.841 49.0026C158.841 48.6779 158.895 48.3803 159.003 48.1098C159.111 47.8333 159.261 47.5988 159.454 47.4064C159.646 47.208 159.875 47.0547 160.14 46.9465C160.404 46.8383 160.693 46.7842 161.005 46.7842C161.299 46.7842 161.571 46.8353 161.817 46.9375C162.063 47.0337 162.274 47.178 162.448 47.3703C162.629 47.5567 162.767 47.7882 162.863 48.0647C162.959 48.3352 163.007 48.6448 163.007 48.9935V49.219H159.598C159.611 49.3993 159.653 49.5737 159.725 49.742C159.803 49.9043 159.902 50.0487 160.023 50.1749C160.143 50.2951 160.284 50.3913 160.446 50.4635C160.609 50.5356 160.785 50.5717 160.978 50.5717C161.284 50.5717 161.543 50.5175 161.754 50.4093C161.964 50.3011 162.153 50.1418 162.322 49.9314L162.854 50.3462ZM162.25 48.6239C162.238 48.2631 162.12 47.9746 161.898 47.7581C161.676 47.5417 161.369 47.4335 160.978 47.4335C160.587 47.4335 160.271 47.5417 160.031 47.7581C159.79 47.9746 159.646 48.2631 159.598 48.6239H162.25ZM23.2182 61.2858C23.0679 61.1054 22.9056 60.9762 22.7313 60.898C22.5569 60.8138 22.3645 60.7717 22.1541 60.7717C21.9196 60.7717 21.7122 60.8138 21.5319 60.898C21.3515 60.9762 21.2012 61.0873 21.081 61.2316C20.9667 61.376 20.8796 61.5443 20.8195 61.7366C20.7594 61.923 20.7293 62.1244 20.7293 62.3409C20.7293 62.5573 20.7624 62.7616 20.8284 62.9541C20.9006 63.1404 20.9968 63.3057 21.1171 63.4501C21.2433 63.5943 21.3936 63.7086 21.5679 63.7927C21.7423 63.8708 21.9377 63.91 22.1541 63.91C22.617 63.91 22.9748 63.7356 23.2272 63.3869L23.7502 63.8829C23.5458 64.1173 23.3054 64.2887 23.0288 64.3969C22.7523 64.5051 22.4607 64.5592 22.1541 64.5592C21.8294 64.5592 21.5319 64.5051 21.2613 64.3969C20.9908 64.2887 20.7594 64.1354 20.5669 63.937C20.3806 63.7386 20.2333 63.5041 20.1251 63.2336C20.0229 62.963 19.9718 62.6655 19.9718 62.3409C19.9718 62.0223 20.0229 61.7277 20.1251 61.4571C20.2333 61.1866 20.3836 60.9521 20.576 60.7537C20.7683 60.5553 20.9968 60.402 21.2613 60.2938C21.5319 60.1796 21.8294 60.1224 22.1541 60.1224C22.4667 60.1224 22.7613 60.1766 23.0379 60.2848C23.3204 60.393 23.5669 60.5614 23.7773 60.7898L23.2182 61.2858ZM24.6288 57.6335H25.3322V64.451H24.6288V57.6335ZM26.4886 62.3409C26.4886 62.0102 26.5457 61.7096 26.6599 61.4391C26.7741 61.1685 26.9304 60.937 27.1288 60.7447C27.3272 60.5463 27.5647 60.393 27.8413 60.2848C28.1178 60.1766 28.4184 60.1224 28.743 60.1224C29.0677 60.1224 29.3682 60.1766 29.6448 60.2848C29.9213 60.393 30.1588 60.5463 30.3572 60.7447C30.5556 60.937 30.7119 61.1685 30.8261 61.4391C30.9404 61.7096 30.9975 62.0102 30.9975 62.3409C30.9975 62.6715 30.9404 62.9721 30.8261 63.2426C30.7119 63.5132 30.5556 63.7476 30.3572 63.946C30.1588 64.1384 29.9213 64.2887 29.6448 64.3969C29.3682 64.5051 29.0677 64.5592 28.743 64.5592C28.4184 64.5592 28.1178 64.5051 27.8413 64.3969C27.5647 64.2887 27.3272 64.1384 27.1288 63.946C26.9304 63.7476 26.7741 63.5132 26.6599 63.2426C26.5457 62.9721 26.4886 62.6715 26.4886 62.3409ZM27.246 62.3409C27.246 62.5633 27.2791 62.7707 27.3453 62.963C27.4174 63.1494 27.5196 63.3147 27.6519 63.4591C27.7841 63.5973 27.9404 63.7086 28.1208 63.7927C28.3071 63.8708 28.5146 63.91 28.743 63.91C28.9715 63.91 29.1759 63.8708 29.3562 63.7927C29.5426 63.7086 29.702 63.5973 29.8342 63.4591C29.9664 63.3147 30.0656 63.1494 30.1318 62.963C30.2039 62.7707 30.24 62.5633 30.24 62.3409C30.24 62.1184 30.2039 61.914 30.1318 61.7277C30.0656 61.5352 29.9664 61.3699 29.8342 61.2316C29.702 61.0873 29.5426 60.9762 29.3562 60.898C29.1759 60.8138 28.9715 60.7717 28.743 60.7717C28.5146 60.7717 28.3071 60.8138 28.1208 60.898C27.9404 60.9762 27.7841 61.0873 27.6519 61.2316C27.5196 61.3699 27.4174 61.5352 27.3453 61.7277C27.2791 61.914 27.246 62.1184 27.246 62.3409ZM32.1766 63.3419C32.3148 63.5161 32.4651 63.6544 32.6275 63.7567C32.7958 63.8588 33.0062 63.91 33.2587 63.91C33.3669 63.91 33.4751 63.8979 33.5833 63.8739C33.6976 63.8499 33.7998 63.8107 33.8899 63.7567C33.9801 63.7025 34.0523 63.6364 34.1063 63.5583C34.1605 63.4741 34.1875 63.3749 34.1875 63.2607C34.1875 63.1464 34.1605 63.0532 34.1063 62.9811C34.0582 62.909 33.9922 62.8489 33.908 62.8008C33.8238 62.7466 33.7276 62.7045 33.6194 62.6745C33.5112 62.6444 33.4 62.6174 33.2858 62.5933C33.0874 62.5513 32.898 62.5031 32.7177 62.4491C32.5372 62.3949 32.378 62.3258 32.2397 62.2416C32.1074 62.1515 31.9992 62.0373 31.915 61.899C31.8369 61.7607 31.7978 61.5833 31.7978 61.3669C31.7978 61.1626 31.8429 60.9821 31.9331 60.8259C32.0233 60.6696 32.1435 60.5403 32.2938 60.4381C32.4441 60.3358 32.6125 60.2577 32.7988 60.2036C32.9851 60.1496 33.1776 60.1224 33.3759 60.1224C33.6765 60.1224 33.9531 60.1825 34.2056 60.3029C34.4641 60.4231 34.6655 60.6184 34.8097 60.8889L34.2236 61.2767C34.1335 61.1265 34.0132 61.0062 33.8629 60.9161C33.7187 60.8199 33.5413 60.7717 33.3309 60.7717C33.2347 60.7717 33.1354 60.7837 33.0332 60.8078C32.937 60.8319 32.8499 60.868 32.7717 60.9161C32.6936 60.9641 32.6275 61.0272 32.5733 61.1054C32.5252 61.1776 32.5012 61.2617 32.5012 61.3579C32.5012 61.4481 32.5283 61.5262 32.5823 61.5924C32.6425 61.6525 32.7206 61.7066 32.8168 61.7547C32.9191 61.8028 33.0332 61.8449 33.1595 61.881C33.2917 61.917 33.427 61.947 33.5653 61.9711C33.7516 62.0072 33.929 62.0552 34.0974 62.1154C34.2657 62.1695 34.413 62.2446 34.5392 62.3409C34.6655 62.4371 34.7646 62.5573 34.8368 62.7015C34.909 62.8458 34.9451 63.0232 34.9451 63.2336C34.9451 63.4741 34.897 63.6785 34.8007 63.8468C34.7045 64.0152 34.5753 64.1534 34.413 64.2617C34.2566 64.3638 34.0763 64.439 33.872 64.4871C33.6735 64.5352 33.4691 64.5592 33.2587 64.5592C32.898 64.5592 32.5853 64.5051 32.3209 64.3969C32.0623 64.2826 31.8279 64.0753 31.6174 63.7746L32.1766 63.3419ZM39.6954 63.6845C39.4429 64.0091 39.1664 64.2376 38.8658 64.3699C38.5653 64.4961 38.2165 64.5592 37.8197 64.5592C37.4891 64.5592 37.1915 64.5021 36.927 64.3879C36.6625 64.2676 36.437 64.1084 36.2506 63.91C36.0703 63.7116 35.929 63.4771 35.8268 63.2065C35.7306 62.936 35.6825 62.6475 35.6825 62.3409C35.6825 62.0162 35.7366 61.7186 35.8449 61.4481C35.9531 61.1715 36.1034 60.937 36.2957 60.7447C36.4881 60.5463 36.7166 60.393 36.9811 60.2848C37.2457 60.1766 37.5342 60.1224 37.8468 60.1224C38.1414 60.1224 38.4119 60.1736 38.6584 60.2757C38.9048 60.372 39.1153 60.5163 39.2896 60.7086C39.47 60.895 39.6083 61.1265 39.7044 61.403C39.8006 61.6735 39.8487 61.9831 39.8487 62.3318V62.5573H36.44C36.452 62.7376 36.4941 62.912 36.5663 63.0803C36.6445 63.2426 36.7436 63.3869 36.8638 63.5132C36.9841 63.6334 37.1253 63.7296 37.2877 63.8018C37.45 63.8739 37.6274 63.91 37.8197 63.91C38.1263 63.91 38.3848 63.8558 38.5953 63.7476C38.8057 63.6394 38.9951 63.4801 39.1634 63.2696L39.6954 63.6845ZM39.0912 61.9621C39.0792 61.6014 38.962 61.3128 38.7395 61.0964C38.5171 60.88 38.2105 60.7717 37.8197 60.7717C37.429 60.7717 37.1133 60.88 36.8729 61.0964C36.6324 61.3128 36.4881 61.6014 36.44 61.9621H39.0912ZM43.2032 62.3409C43.2032 62.0102 43.2603 61.7096 43.3746 61.4391C43.4888 61.1685 43.6451 60.937 43.8435 60.7447C44.0419 60.5463 44.2794 60.393 44.5559 60.2848C44.8325 60.1766 45.133 60.1224 45.4577 60.1224C45.7823 60.1224 46.083 60.1766 46.3594 60.2848C46.636 60.393 46.8735 60.5463 47.0719 60.7447C47.2703 60.937 47.4266 61.1685 47.5408 61.4391C47.655 61.7096 47.7121 62.0102 47.7121 62.3409C47.7121 62.6715 47.655 62.9721 47.5408 63.2426C47.4266 63.5132 47.2703 63.7476 47.0719 63.946C46.8735 64.1384 46.636 64.2887 46.3594 64.3969C46.083 64.5051 45.7823 64.5592 45.4577 64.5592C45.133 64.5592 44.8325 64.5051 44.5559 64.3969C44.2794 64.2887 44.0419 64.1384 43.8435 63.946C43.6451 63.7476 43.4888 63.5132 43.3746 63.2426C43.2603 62.9721 43.2032 62.6715 43.2032 62.3409ZM43.9608 62.3409C43.9608 62.5633 43.9938 62.7707 44.0599 62.963C44.1321 63.1494 44.2343 63.3147 44.3665 63.4591C44.4988 63.5973 44.6551 63.7086 44.8355 63.7927C45.0219 63.8708 45.2292 63.91 45.4577 63.91C45.6861 63.91 45.8905 63.8708 46.0709 63.7927C46.2573 63.7086 46.4166 63.5973 46.5488 63.4591C46.6812 63.3147 46.7803 63.1494 46.8465 62.963C46.9186 62.7707 46.9547 62.5633 46.9547 62.3409C46.9547 62.1184 46.9186 61.914 46.8465 61.7277C46.7803 61.5352 46.6812 61.3699 46.5488 61.2316C46.4166 61.0873 46.2573 60.9762 46.0709 60.898C45.8905 60.8138 45.6861 60.7717 45.4577 60.7717C45.2292 60.7717 45.0219 60.8138 44.8355 60.898C44.6551 60.9762 44.4988 61.0873 44.3665 61.2316C44.2343 61.3699 44.1321 61.5352 44.0599 61.7277C43.9938 61.914 43.9608 62.1184 43.9608 62.3409ZM49.1618 60.8259H48.2419V60.2307H49.1618V59.2838C49.1618 59.0253 49.1858 58.7908 49.2339 58.5804C49.282 58.364 49.3631 58.1776 49.4774 58.0213C49.5976 57.865 49.7539 57.7448 49.9463 57.6606C50.1387 57.5704 50.3761 57.5253 50.6587 57.5253C50.7489 57.5253 50.8451 57.5344 50.9473 57.5524C51.0495 57.5704 51.1336 57.5975 51.1998 57.6335L51.1006 58.2648C50.9322 58.2047 50.773 58.1746 50.6226 58.1746C50.4423 58.1746 50.301 58.2077 50.1988 58.2738C50.0966 58.3339 50.0185 58.4211 49.9643 58.5354C49.9162 58.6436 49.8862 58.7758 49.8742 58.9321C49.8682 59.0885 49.8652 59.2568 49.8652 59.4371V60.2307H50.8932V60.8259H49.8652V64.451H49.1618V60.8259ZM54.1193 57.6335H54.8227V60.8439H54.8407C55.0331 60.6154 55.2555 60.4381 55.5081 60.3118C55.7666 60.1856 56.0492 60.1224 56.3558 60.1224C56.6864 60.1224 56.9869 60.1796 57.2575 60.2938C57.5341 60.402 57.7686 60.5553 57.9609 60.7537C58.1533 60.9521 58.3036 61.1866 58.4118 61.4571C58.52 61.7277 58.5741 62.0223 58.5741 62.3409C58.5741 62.6595 58.52 62.9541 58.4118 63.2246C58.3036 63.4952 58.1533 63.7296 57.9609 63.928C57.7745 64.1264 57.5521 64.2826 57.2936 64.3969C57.035 64.5051 56.7585 64.5592 56.464 64.5592C56.0852 64.5592 55.7515 64.4781 55.463 64.3157C55.1804 64.1474 54.973 63.9431 54.8407 63.7025H54.8227V64.451H54.1193V57.6335ZM54.8227 62.3409C54.8227 62.5633 54.8557 62.7707 54.9219 62.963C54.994 63.1494 55.0963 63.3147 55.2285 63.4591C55.3607 63.5973 55.5171 63.7086 55.6974 63.7927C55.8838 63.8708 56.0912 63.91 56.3197 63.91C56.5481 63.91 56.7525 63.8708 56.9329 63.7927C57.1192 63.7086 57.2786 63.5973 57.4108 63.4591C57.543 63.3147 57.6423 63.1494 57.7084 62.963C57.7806 62.7707 57.8166 62.5633 57.8166 62.3409C57.8166 62.1184 57.7806 61.914 57.7084 61.7277C57.6423 61.5352 57.543 61.3699 57.4108 61.2316C57.2786 61.0873 57.1192 60.9762 56.9329 60.898C56.7525 60.8138 56.5481 60.7717 56.3197 60.7717C56.0912 60.7717 55.8838 60.8138 55.6974 60.898C55.5171 60.9762 55.3607 61.0873 55.2285 61.2316C55.0963 61.3699 54.994 61.5352 54.9219 61.7277C54.8557 61.914 54.8227 62.1184 54.8227 62.3409ZM63.3475 63.4501C63.3475 63.6424 63.3535 63.8227 63.3656 63.9911C63.3776 64.1594 63.3835 64.3127 63.3835 64.451H62.7163C62.7163 64.3368 62.7132 64.2225 62.7073 64.1084C62.7012 63.9941 62.6982 63.8769 62.6982 63.7567H62.6802C62.632 63.8588 62.563 63.9581 62.4728 64.0542C62.3886 64.1504 62.2864 64.2376 62.1662 64.3157C62.046 64.3879 61.9106 64.445 61.7603 64.4871C61.6101 64.5352 61.4478 64.5592 61.2734 64.5592C60.9969 64.5592 60.7564 64.5171 60.552 64.433C60.3536 64.3488 60.1883 64.2316 60.056 64.0813C59.9238 63.931 59.8245 63.7506 59.7585 63.5402C59.6983 63.3238 59.6682 63.0893 59.6682 62.8369V60.2307H60.3717V62.7647C60.3717 63.1194 60.4498 63.3989 60.6061 63.6034C60.7624 63.8077 61.0058 63.91 61.3365 63.91C61.565 63.91 61.7603 63.8708 61.9227 63.7927C62.091 63.7145 62.2263 63.6034 62.3285 63.4591C62.4367 63.3147 62.5149 63.1435 62.563 62.9451C62.617 62.7466 62.6441 62.5272 62.6441 62.2867V60.2307H63.3475V63.4501ZM64.7693 63.3419C64.9076 63.5161 65.0578 63.6544 65.2202 63.7567C65.3885 63.8588 65.5989 63.91 65.8514 63.91C65.9596 63.91 66.0678 63.8979 66.176 63.8739C66.2903 63.8499 66.3925 63.8107 66.4826 63.7567C66.5729 63.7025 66.645 63.6364 66.6991 63.5583C66.7532 63.4741 66.7803 63.3749 66.7803 63.2607C66.7803 63.1464 66.7532 63.0532 66.6991 62.9811C66.651 62.909 66.5849 62.8489 66.5007 62.8008C66.4166 62.7466 66.3204 62.7045 66.2121 62.6745C66.1039 62.6444 65.9927 62.6174 65.8785 62.5933C65.6801 62.5513 65.4907 62.5031 65.3104 62.4491C65.13 62.3949 64.9707 62.3258 64.8324 62.2416C64.7001 62.1515 64.592 62.0373 64.5078 61.899C64.4296 61.7607 64.3906 61.5833 64.3906 61.3669C64.3906 61.1626 64.4357 60.9821 64.5258 60.8259C64.616 60.6696 64.7362 60.5403 64.8865 60.4381C65.0369 60.3358 65.2052 60.2577 65.3915 60.2036C65.5779 60.1496 65.7703 60.1224 65.9687 60.1224C66.2692 60.1224 66.5458 60.1825 66.7983 60.3029C67.0568 60.4231 67.2582 60.6184 67.4025 60.8889L66.8164 61.2767C66.7262 61.1265 66.6059 61.0062 66.4556 60.9161C66.3114 60.8199 66.134 60.7717 65.9236 60.7717C65.8274 60.7717 65.7282 60.7837 65.626 60.8078C65.5297 60.8319 65.4426 60.868 65.3644 60.9161C65.2863 60.9641 65.2202 61.0272 65.1661 61.1054C65.118 61.1776 65.0939 61.2617 65.0939 61.3579C65.0939 61.4481 65.121 61.5262 65.1751 61.5924C65.2352 61.6525 65.3134 61.7066 65.4095 61.7547C65.5118 61.8028 65.626 61.8449 65.7522 61.881C65.8845 61.917 66.0198 61.947 66.1581 61.9711C66.3444 62.0072 66.5218 62.0552 66.6901 62.1154C66.8584 62.1695 67.0057 62.2446 67.1319 62.3409C67.2582 62.4371 67.3574 62.5573 67.4296 62.7015C67.5017 62.8458 67.5378 63.0232 67.5378 63.2336C67.5378 63.4741 67.4897 63.6785 67.3935 63.8468C67.2972 64.0152 67.168 64.1534 67.0057 64.2617C66.8494 64.3638 66.669 64.439 66.4647 64.4871C66.2662 64.5352 66.0619 64.5592 65.8514 64.5592C65.4907 64.5592 65.1781 64.5051 64.9136 64.3969C64.655 64.2826 64.4206 64.0753 64.2101 63.7746L64.7693 63.3419ZM68.5818 60.2307H69.2853V64.451H68.5818V60.2307ZM68.4195 58.5804C68.4195 58.4422 68.4676 58.3219 68.5639 58.2197C68.666 58.1175 68.7893 58.0664 68.9335 58.0664C69.0778 58.0664 69.198 58.1175 69.2943 58.2197C69.3964 58.3219 69.4476 58.4422 69.4476 58.5804C69.4476 58.7307 69.3994 58.854 69.3032 58.9502C69.2071 59.0463 69.0839 59.0944 68.9335 59.0944C68.7832 59.0944 68.66 59.0463 68.5639 58.9502C68.4676 58.854 68.4195 58.7307 68.4195 58.5804ZM70.6851 61.2316C70.6851 61.0393 70.6791 60.8589 70.6671 60.6906C70.655 60.5222 70.6491 60.3689 70.6491 60.2307H71.3163C71.3163 60.3449 71.3194 60.4591 71.3254 60.5734C71.3314 60.6876 71.3344 60.8048 71.3344 60.925H71.3524C71.4006 60.8229 71.4666 60.7236 71.5508 60.6274C71.641 60.5313 71.7462 60.4471 71.8664 60.375C71.9867 60.2968 72.122 60.2367 72.2723 60.1946C72.4225 60.1465 72.5849 60.1224 72.7592 60.1224C73.0357 60.1224 73.2732 60.1646 73.4716 60.2487C73.6761 60.3329 73.8444 60.4501 73.9766 60.6004C74.1088 60.7507 74.2051 60.934 74.2652 61.1505C74.3313 61.3609 74.3644 61.5924 74.3644 61.8449V64.451H73.661V61.917C73.661 61.5623 73.5829 61.2828 73.4265 61.0783C73.2702 60.8739 73.0268 60.7717 72.6961 60.7717C72.4676 60.7717 72.2692 60.8108 72.1009 60.8889C71.9386 60.9671 71.8034 61.0783 71.6951 61.2227C71.5929 61.3669 71.5147 61.5383 71.4607 61.7366C71.4126 61.935 71.3885 62.1545 71.3885 62.3949V64.451H70.6851V61.2316ZM79.4654 63.6845C79.213 64.0091 78.9364 64.2376 78.6358 64.3699C78.3352 64.4961 77.9865 64.5592 77.5897 64.5592C77.2591 64.5592 76.9615 64.5021 76.697 64.3879C76.4325 64.2676 76.207 64.1084 76.0207 63.91C75.8402 63.7116 75.699 63.4771 75.5968 63.2065C75.5007 62.936 75.4525 62.6475 75.4525 62.3409C75.4525 62.0162 75.5066 61.7186 75.6148 61.4481C75.723 61.1715 75.8733 60.937 76.0658 60.7447C76.2581 60.5463 76.4865 60.393 76.7511 60.2848C77.0156 60.1766 77.3042 60.1224 77.6168 60.1224C77.9114 60.1224 78.1819 60.1736 78.4284 60.2757C78.6749 60.372 78.8853 60.5163 79.0597 60.7086C79.24 60.895 79.3783 61.1265 79.4745 61.403C79.5707 61.6735 79.6187 61.9831 79.6187 62.3318V62.5573H76.21C76.2221 62.7376 76.2641 62.912 76.3362 63.0803C76.4144 63.2426 76.5136 63.3869 76.6339 63.5132C76.7541 63.6334 76.8954 63.7296 77.0577 63.8018C77.22 63.8739 77.3974 63.91 77.5897 63.91C77.8964 63.91 78.1549 63.8558 78.3653 63.7476C78.5757 63.6394 78.7651 63.4801 78.9334 63.2696L79.4654 63.6845ZM78.8613 61.9621C78.8492 61.6014 78.732 61.3128 78.5096 61.0964C78.2871 60.88 77.9805 60.7717 77.5897 60.7717C77.199 60.7717 76.8833 60.88 76.6429 61.0964C76.4024 61.3128 76.2581 61.6014 76.21 61.9621H78.8613ZM80.797 63.3419C80.9353 63.5161 81.0857 63.6544 81.2479 63.7567C81.4163 63.8588 81.6267 63.91 81.8792 63.91C81.9874 63.91 82.0956 63.8979 82.2038 63.8739C82.318 63.8499 82.4203 63.8107 82.5104 63.7567C82.6006 63.7025 82.6727 63.6364 82.7269 63.5583C82.7809 63.4741 82.808 63.3749 82.808 63.2607C82.808 63.1464 82.7809 63.0532 82.7269 62.9811C82.6788 62.909 82.6126 62.8489 82.5285 62.8008C82.4443 62.7466 82.3481 62.7045 82.2399 62.6745C82.1316 62.6444 82.0205 62.6174 81.9062 62.5933C81.7078 62.5513 81.5184 62.5031 81.3381 62.4491C81.1578 62.3949 80.9984 62.3258 80.8601 62.2416C80.7279 62.1515 80.6197 62.0373 80.5355 61.899C80.4574 61.7607 80.4183 61.5833 80.4183 61.3669C80.4183 61.1626 80.4634 60.9821 80.5535 60.8259C80.6437 60.6696 80.764 60.5403 80.9143 60.4381C81.0646 60.3358 81.2329 60.2577 81.4193 60.2036C81.6057 60.1496 81.798 60.1224 81.9964 60.1224C82.297 60.1224 82.5736 60.1825 82.826 60.3029C83.0845 60.4231 83.2859 60.6184 83.4303 60.8889L82.8441 61.2767C82.7539 61.1265 82.6337 61.0062 82.4834 60.9161C82.3391 60.8199 82.1618 60.7717 81.9513 60.7717C81.8552 60.7717 81.756 60.7837 81.6538 60.8078C81.5576 60.8319 81.4704 60.868 81.3923 60.9161C81.3141 60.9641 81.2479 61.0272 81.1939 61.1054C81.1458 61.1776 81.1217 61.2617 81.1217 61.3579C81.1217 61.4481 81.1487 61.5262 81.2029 61.5924C81.263 61.6525 81.3411 61.7066 81.4373 61.7547C81.5395 61.8028 81.6538 61.8449 81.78 61.881C81.9123 61.917 82.0475 61.947 82.1858 61.9711C82.3722 62.0072 82.5495 62.0552 82.7178 62.1154C82.8861 62.1695 83.0335 62.2446 83.1598 62.3409C83.2859 62.4371 83.3852 62.5573 83.4573 62.7015C83.5294 62.8458 83.5655 63.0232 83.5655 63.2336C83.5655 63.4741 83.5174 63.6785 83.4213 63.8468C83.3251 64.0152 83.1958 64.1534 83.0335 64.2617C82.8772 64.3638 82.6968 64.439 82.4924 64.4871C82.294 64.5352 82.0896 64.5592 81.8792 64.5592C81.5184 64.5592 81.2059 64.5051 80.9413 64.3969C80.6828 64.2826 80.4484 64.0753 80.238 63.7746L80.797 63.3419ZM84.6367 63.3419C84.7749 63.5161 84.9252 63.6544 85.0876 63.7567C85.2559 63.8588 85.4663 63.91 85.7188 63.91C85.8271 63.91 85.9353 63.8979 86.0435 63.8739C86.1577 63.8499 86.2598 63.8107 86.3501 63.7567C86.4403 63.7025 86.5124 63.6364 86.5664 63.5583C86.6206 63.4741 86.6476 63.3749 86.6476 63.2607C86.6476 63.1464 86.6206 63.0532 86.5664 62.9811C86.5184 62.909 86.4523 62.8489 86.3681 62.8008C86.2839 62.7466 86.1877 62.7045 86.0795 62.6745C85.9713 62.6444 85.8601 62.6174 85.7459 62.5933C85.5475 62.5513 85.3581 62.5031 85.1777 62.4491C84.9974 62.3949 84.8381 62.3258 84.6998 62.2416C84.5676 62.1515 84.4594 62.0373 84.3751 61.899C84.297 61.7607 84.2579 61.5833 84.2579 61.3669C84.2579 61.1626 84.303 60.9821 84.3932 60.8259C84.4834 60.6696 84.6036 60.5403 84.7539 60.4381C84.9042 60.3358 85.0726 60.2577 85.2589 60.2036C85.4452 60.1496 85.6377 60.1224 85.836 60.1224C86.1366 60.1224 86.4131 60.1825 86.6657 60.3029C86.9242 60.4231 87.1256 60.6184 87.2699 60.8889L86.6837 61.2767C86.5936 61.1265 86.4734 61.0062 86.323 60.9161C86.1787 60.8199 86.0013 60.7717 85.791 60.7717C85.6947 60.7717 85.5956 60.7837 85.4933 60.8078C85.3972 60.8319 85.31 60.868 85.2318 60.9161C85.1537 60.9641 85.0876 61.0272 85.0334 61.1054C84.9853 61.1776 84.9613 61.2617 84.9613 61.3579C84.9613 61.4481 84.9883 61.5262 85.0425 61.5924C85.1026 61.6525 85.1808 61.7066 85.2769 61.7547C85.3792 61.8028 85.4933 61.8449 85.6196 61.881C85.7518 61.917 85.8872 61.947 86.0254 61.9711C86.2118 62.0072 86.3891 62.0552 86.5575 62.1154C86.7258 62.1695 86.873 62.2446 86.9993 62.3409C87.1256 62.4371 87.2248 62.5573 87.2969 62.7015C87.3691 62.8458 87.4052 63.0232 87.4052 63.2336C87.4052 63.4741 87.357 63.6785 87.2608 63.8468C87.1646 64.0152 87.0354 64.1534 86.8731 64.2617C86.7168 64.3638 86.5364 64.439 86.3321 64.4871C86.1337 64.5352 85.9292 64.5592 85.7188 64.5592C85.3581 64.5592 85.0454 64.5051 84.781 64.3969C84.5225 64.2826 84.288 64.0753 84.0776 63.7746L84.6367 63.3419ZM90.6528 62.3409C90.6528 62.0102 90.7097 61.7096 90.8235 61.4391C90.9382 61.1685 91.0947 60.937 91.293 60.7447C91.4913 60.5463 91.7287 60.393 92.0053 60.2848C92.2818 60.1766 92.5824 60.1224 92.9069 60.1224C93.2315 60.1224 93.5321 60.1766 93.8086 60.2848C94.0852 60.393 94.3226 60.5463 94.5209 60.7447C94.7192 60.937 94.8757 61.1685 94.9904 61.4391C95.1042 61.7096 95.1611 62.0102 95.1611 62.3409C95.1611 62.6715 95.1042 62.9721 94.9904 63.2426C94.8757 63.5132 94.7192 63.7476 94.5209 63.946C94.3226 64.1384 94.0852 64.2887 93.8086 64.3969C93.5321 64.5051 93.2315 64.5592 92.9069 64.5592C92.5824 64.5592 92.2818 64.5051 92.0053 64.3969C91.7287 64.2887 91.4913 64.1384 91.293 63.946C91.0947 63.7476 90.9382 63.5132 90.8235 63.2426C90.7097 62.9721 90.6528 62.6715 90.6528 62.3409ZM91.4104 62.3409C91.4104 62.5633 91.4433 62.7707 91.5091 62.963C91.5811 63.1494 91.6834 63.3147 91.8159 63.4591C91.9484 63.5973 92.104 63.7086 92.2845 63.7927C92.4712 63.8708 92.6784 63.91 92.9069 63.91C93.1355 63.91 93.34 63.8708 93.5205 63.7927C93.7063 63.7086 93.8655 63.5973 93.998 63.4591C94.1305 63.3147 94.2292 63.1494 94.2959 62.963C94.3679 62.7707 94.4035 62.5633 94.4035 62.3409C94.4035 62.1184 94.3679 61.914 94.2959 61.7277C94.2292 61.5352 94.1305 61.3699 93.998 61.2316C93.8655 61.0873 93.7063 60.9762 93.5205 60.898C93.34 60.8138 93.1355 60.7717 92.9069 60.7717C92.6784 60.7717 92.4712 60.8138 92.2845 60.898C92.104 60.9762 91.9484 61.0873 91.8159 61.2316C91.6834 61.3699 91.5811 61.5352 91.5091 61.7277C91.4433 61.914 91.4104 62.1184 91.4104 62.3409ZM96.2504 61.2316C96.2504 61.0393 96.2442 60.8589 96.2326 60.6906C96.2202 60.5222 96.2139 60.3689 96.2139 60.2307H96.8817C96.8817 60.3449 96.8844 60.4591 96.8906 60.5734C96.8969 60.6876 96.8995 60.8048 96.8995 60.925H96.9173C96.9653 60.8229 97.032 60.7236 97.1156 60.6274C97.2063 60.5313 97.3112 60.4471 97.4313 60.375C97.5522 60.2968 97.6874 60.2367 97.8377 60.1946C97.9879 60.1465 98.1498 60.1224 98.3241 60.1224C98.6006 60.1224 98.838 60.1646 99.0372 60.2487C99.2408 60.3329 99.4098 60.4501 99.5414 60.6004C99.6739 60.7507 99.7699 60.934 99.8304 61.1505C99.8962 61.3609 99.93 61.5924 99.93 61.8449V64.451H99.2257V61.917C99.2257 61.5623 99.1484 61.2828 98.9919 61.0783C98.8354 60.8739 98.5917 60.7717 98.2609 60.7717C98.0324 60.7717 97.8341 60.8108 97.666 60.8889C97.5042 60.9671 97.3681 61.0783 97.2605 61.2227C97.1583 61.3669 97.08 61.5383 97.0258 61.7366C96.9778 61.935 96.9538 62.1545 96.9538 62.3949V64.451H96.2504V61.2316ZM108.181 58.7698H106.071V64.451H105.313V58.7698H103.203V58.0664H108.181V58.7698ZM111.801 63.4501C111.801 63.6424 111.806 63.8227 111.819 63.9911C111.83 64.1594 111.837 64.3127 111.837 64.451H111.17C111.17 64.3368 111.166 64.2225 111.161 64.1084C111.155 63.9941 111.151 63.8769 111.151 63.7567H111.133C111.085 63.8588 111.016 63.9581 110.926 64.0542C110.842 64.1504 110.739 64.2376 110.619 64.3157C110.499 64.3879 110.364 64.445 110.214 64.4871C110.064 64.5352 109.901 64.5592 109.727 64.5592C109.45 64.5592 109.21 64.5171 109.005 64.433C108.807 64.3488 108.642 64.2316 108.509 64.0813C108.377 63.931 108.278 63.7506 108.211 63.5402C108.152 63.3238 108.121 63.0893 108.121 62.8369V60.2307H108.825V62.7647C108.825 63.1194 108.903 63.3989 109.06 63.6034C109.215 63.8077 109.459 63.91 109.79 63.91C110.018 63.91 110.214 63.8708 110.376 63.7927C110.545 63.7145 110.68 63.6034 110.782 63.4591C110.89 63.3147 110.968 63.1435 111.016 62.9451C111.07 62.7466 111.098 62.5272 111.098 62.2867V60.2307H111.801V63.4501ZM116.902 63.6845C116.649 64.0091 116.373 64.2376 116.072 64.3699C115.771 64.4961 115.423 64.5592 115.026 64.5592C114.695 64.5592 114.398 64.5021 114.133 64.3879C113.868 64.2676 113.644 64.1084 113.457 63.91C113.276 63.7116 113.135 63.4771 113.034 63.2065C112.937 62.936 112.889 62.6475 112.889 62.3409C112.889 62.0162 112.943 61.7186 113.051 61.4481C113.159 61.1715 113.31 60.937 113.502 60.7447C113.694 60.5463 113.923 60.393 114.188 60.2848C114.452 60.1766 114.741 60.1224 115.053 60.1224C115.347 60.1224 115.618 60.1736 115.865 60.2757C116.111 60.372 116.322 60.5163 116.496 60.7086C116.677 60.895 116.814 61.1265 116.911 61.403C117.007 61.6735 117.055 61.9831 117.055 62.3318V62.5573H113.646C113.659 62.7376 113.7 62.912 113.772 63.0803C113.851 63.2426 113.95 63.3869 114.07 63.5132C114.19 63.6334 114.332 63.7296 114.494 63.8018C114.656 63.8739 114.833 63.91 115.026 63.91C115.333 63.91 115.591 63.8558 115.802 63.7476C116.012 63.6394 116.201 63.4801 116.37 63.2696L116.902 63.6845ZM116.298 61.9621C116.285 61.6014 116.168 61.3128 115.946 61.0964C115.723 60.88 115.417 60.7717 115.026 60.7717C114.635 60.7717 114.319 60.88 114.079 61.0964C113.838 61.3128 113.694 61.6014 113.646 61.9621H116.298ZM118.234 63.3419C118.371 63.5161 118.522 63.6544 118.685 63.7567C118.853 63.8588 119.063 63.91 119.316 63.91C119.423 63.91 119.532 63.8979 119.64 63.8739C119.754 63.8499 119.856 63.8107 119.946 63.7567C120.037 63.7025 120.109 63.6364 120.163 63.5583C120.218 63.4741 120.244 63.3749 120.244 63.2607C120.244 63.1464 120.218 63.0532 120.163 62.9811C120.115 62.909 120.049 62.8489 119.965 62.8008C119.88 62.7466 119.784 62.7045 119.676 62.6745C119.568 62.6444 119.456 62.6174 119.343 62.5933C119.144 62.5513 118.955 62.5031 118.774 62.4491C118.594 62.3949 118.435 62.3258 118.297 62.2416C118.164 62.1515 118.056 62.0373 117.972 61.899C117.894 61.7607 117.855 61.5833 117.855 61.3669C117.855 61.1626 117.899 60.9821 117.99 60.8259C118.08 60.6696 118.2 60.5403 118.35 60.4381C118.5 60.3358 118.669 60.2577 118.855 60.2036C119.042 60.1496 119.234 60.1224 119.432 60.1224C119.733 60.1224 120.009 60.1825 120.262 60.3029C120.521 60.4231 120.723 60.6184 120.867 60.8889L120.281 61.2767C120.19 61.1265 120.07 61.0062 119.92 60.9161C119.776 60.8199 119.598 60.7717 119.388 60.7717C119.292 60.7717 119.192 60.7837 119.09 60.8078C118.994 60.8319 118.907 60.868 118.829 60.9161C118.75 60.9641 118.685 61.0272 118.63 61.1054C118.582 61.1776 118.558 61.2617 118.558 61.3579C118.558 61.4481 118.585 61.5262 118.639 61.5924C118.7 61.6525 118.777 61.7066 118.874 61.7547C118.976 61.8028 119.09 61.8449 119.216 61.881C119.349 61.917 119.484 61.947 119.622 61.9711C119.808 62.0072 119.985 62.0552 120.154 62.1154C120.322 62.1695 120.47 62.2446 120.596 62.3409C120.723 62.4371 120.821 62.5573 120.893 62.7015C120.965 62.8458 121.002 63.0232 121.002 63.2336C121.002 63.4741 120.954 63.6785 120.858 63.8468C120.762 64.0152 120.632 64.1534 120.47 64.2617C120.314 64.3638 120.133 64.439 119.929 64.4871C119.73 64.5352 119.526 64.5592 119.316 64.5592C118.955 64.5592 118.642 64.5051 118.378 64.3969C118.119 64.2826 117.884 64.0753 117.674 63.7746L118.234 63.3419ZM125.491 63.7025H125.473C125.34 63.9431 125.13 64.1474 124.841 64.3157C124.559 64.4781 124.228 64.5592 123.849 64.5592C123.555 64.5592 123.278 64.5051 123.019 64.3969C122.762 64.2826 122.536 64.1264 122.344 63.928C122.157 63.7296 122.01 63.4952 121.902 63.2246C121.793 62.9541 121.739 62.6595 121.739 62.3409C121.739 62.0223 121.793 61.7277 121.902 61.4571C122.01 61.1866 122.16 60.9521 122.353 60.7537C122.545 60.5553 122.777 60.402 123.047 60.2938C123.324 60.1796 123.627 60.1224 123.958 60.1224C124.264 60.1224 124.544 60.1856 124.796 60.3118C125.055 60.4381 125.281 60.6154 125.473 60.8439H125.491V57.6335H126.194V64.451H125.491V63.7025ZM125.491 62.3409C125.491 62.1184 125.455 61.914 125.382 61.7277C125.316 61.5352 125.218 61.3699 125.085 61.2316C124.953 61.0873 124.793 60.9762 124.607 60.898C124.426 60.8138 124.223 60.7717 123.994 60.7717C123.766 60.7717 123.558 60.8138 123.372 60.898C123.191 60.9762 123.035 61.0873 122.903 61.2316C122.77 61.3699 122.668 61.5352 122.596 61.7277C122.529 61.914 122.497 62.1184 122.497 62.3409C122.497 62.5633 122.529 62.7707 122.596 62.963C122.668 63.1494 122.77 63.3147 122.903 63.4591C123.035 63.5973 123.191 63.7086 123.372 63.7927C123.558 63.8708 123.766 63.91 123.994 63.91C124.223 63.91 124.426 63.8708 124.607 63.7927C124.793 63.7086 124.953 63.5973 125.085 63.4591C125.218 63.3147 125.316 63.1494 125.382 62.963C125.455 62.7707 125.491 62.5633 125.491 62.3409ZM127.442 60.7717C127.658 60.5494 127.914 60.387 128.208 60.2848C128.509 60.1766 128.812 60.1224 129.119 60.1224C129.744 60.1224 130.195 60.2698 130.471 60.5644C130.748 60.8589 130.886 61.3068 130.886 61.908V63.7206C130.886 63.8408 130.893 63.9671 130.904 64.0993C130.917 64.2256 130.932 64.3428 130.95 64.451H130.273C130.249 64.3549 130.234 64.2497 130.228 64.1354C130.228 64.0152 130.228 63.91 130.228 63.8198H130.21C130.072 64.0362 129.885 64.2136 129.651 64.3518C129.423 64.4901 129.146 64.5592 128.822 64.5592C128.605 64.5592 128.4 64.5322 128.208 64.4781C128.021 64.4239 127.856 64.3458 127.712 64.2436C127.574 64.1354 127.463 64.0032 127.378 63.8468C127.294 63.6905 127.252 63.5102 127.252 63.3057C127.252 62.9571 127.342 62.6836 127.522 62.4851C127.703 62.2867 127.925 62.1395 128.19 62.0432C128.461 61.947 128.749 61.8869 129.055 61.8629C129.368 61.8389 129.654 61.8268 129.913 61.8268H130.183V61.7006C130.183 61.394 130.09 61.1626 129.904 61.0062C129.723 60.8499 129.467 60.7717 129.137 60.7717C128.909 60.7717 128.683 60.8108 128.461 60.8889C128.244 60.9611 128.052 61.0753 127.883 61.2316L127.442 60.7717ZM129.48 62.422C129.029 62.422 128.671 62.4851 128.406 62.6114C128.142 62.7376 128.01 62.9451 128.01 63.2336C128.01 63.4981 128.097 63.6875 128.271 63.8018C128.452 63.91 128.674 63.964 128.938 63.964C129.143 63.964 129.32 63.931 129.471 63.8649C129.627 63.7927 129.756 63.6995 129.858 63.5853C129.961 63.4711 130.039 63.3388 130.093 63.1886C130.147 63.0322 130.177 62.8669 130.183 62.6925V62.422H129.48ZM133.723 65.416C133.651 65.5963 133.575 65.7586 133.497 65.9029C133.425 66.0532 133.335 66.1794 133.227 66.2816C133.125 66.3898 132.998 66.471 132.848 66.5251C132.704 66.5852 132.527 66.6153 132.316 66.6153C132.214 66.6153 132.105 66.6093 131.992 66.5973C131.883 66.5852 131.781 66.5551 131.685 66.5071L131.775 65.8939C131.848 65.924 131.922 65.9419 132.001 65.948C132.079 65.96 132.169 65.966 132.271 65.966C132.499 65.966 132.667 65.9029 132.776 65.7766C132.884 65.6504 132.978 65.482 133.055 65.2716L133.344 64.4781L131.595 60.2307H132.415L133.723 63.5402H133.741L134.995 60.2307H135.761L133.723 65.416ZM136.349 65.6954H135.654L136.268 63.5312H137.089L136.349 65.6954ZM143.759 62.8008C143.759 63.0172 143.725 63.2336 143.659 63.4501C143.599 63.6605 143.496 63.8528 143.352 64.0272C143.215 64.2015 143.028 64.3428 142.793 64.451C142.565 64.5592 142.279 64.6133 141.937 64.6133C141.486 64.6133 141.11 64.4991 140.809 64.2706C140.509 64.0422 140.317 63.6995 140.232 63.2426L140.99 63.0893C141.038 63.3419 141.14 63.5433 141.296 63.6935C141.459 63.8378 141.675 63.91 141.946 63.91C142.163 63.91 142.34 63.8708 142.478 63.7927C142.616 63.7145 142.721 63.6124 142.793 63.4861C142.871 63.3599 142.926 63.2156 142.956 63.0532C142.986 62.8849 143.001 62.7136 143.001 62.5392V58.0664H143.759V62.8008ZM148.902 63.4501C148.902 63.6424 148.908 63.8227 148.921 63.9911C148.932 64.1594 148.938 64.3127 148.938 64.451H148.271C148.271 64.3368 148.268 64.2225 148.262 64.1084C148.256 63.9941 148.253 63.8769 148.253 63.7567H148.235C148.187 63.8588 148.118 63.9581 148.028 64.0542C147.943 64.1504 147.841 64.2376 147.721 64.3157C147.601 64.3879 147.466 64.445 147.316 64.4871C147.165 64.5352 147.003 64.5592 146.828 64.5592C146.552 64.5592 146.311 64.5171 146.107 64.433C145.908 64.3488 145.743 64.2316 145.611 64.0813C145.478 63.931 145.38 63.7506 145.313 63.5402C145.253 63.3238 145.223 63.0893 145.223 62.8369V60.2307H145.927V62.7647C145.927 63.1194 146.005 63.3989 146.16 63.6034C146.317 63.8077 146.561 63.91 146.891 63.91C147.12 63.91 147.316 63.8708 147.477 63.7927C147.645 63.7145 147.782 63.6034 147.883 63.4591C147.991 63.3147 148.07 63.1435 148.118 62.9451C148.172 62.7466 148.199 62.5272 148.199 62.2867V60.2307H148.902V63.4501ZM150.297 57.6335H151.001V64.451H150.297V57.6335ZM153.951 65.416C153.879 65.5963 153.804 65.7586 153.726 65.9029C153.654 66.0532 153.563 66.1794 153.456 66.2816C153.353 66.3898 153.227 66.471 153.077 66.5251C152.933 66.5852 152.755 66.6153 152.544 66.6153C152.443 66.6153 152.334 66.6093 152.22 66.5973C152.112 66.5852 152.01 66.5551 151.914 66.5071L152.004 65.8939C152.076 65.924 152.151 65.9419 152.229 65.948C152.307 65.96 152.397 65.966 152.5 65.966C152.728 65.966 152.896 65.9029 153.005 65.7766C153.112 65.6504 153.206 65.482 153.284 65.2716L153.573 64.4781L151.823 60.2307H152.644L153.951 63.5402H153.97L155.223 60.2307H155.989L153.951 65.416ZM159.044 63.5853L161.451 61.2406C161.602 61.0964 161.734 60.9641 161.849 60.8439C161.963 60.7177 162.056 60.5974 162.128 60.4832C162.206 60.363 162.263 60.2397 162.3 60.1135C162.335 59.9872 162.354 59.8459 162.354 59.6896C162.354 59.5212 162.324 59.371 162.263 59.2387C162.204 59.1064 162.119 58.9953 162.011 58.9051C161.909 58.8089 161.786 58.7368 161.641 58.6887C161.503 58.6345 161.353 58.6075 161.19 58.6075C160.865 58.6075 160.598 58.7007 160.388 58.887C160.177 59.0734 160.042 59.3199 159.982 59.6265L159.162 59.5543C159.204 59.2958 159.282 59.0674 159.396 58.869C159.516 58.6646 159.663 58.4962 159.838 58.364C160.018 58.2317 160.219 58.1325 160.442 58.0664C160.665 57.9943 160.905 57.9582 161.163 57.9582C161.427 57.9582 161.677 57.9973 161.912 58.0755C162.146 58.1476 162.35 58.2558 162.525 58.4C162.705 58.5443 162.847 58.7247 162.949 58.9411C163.057 59.1575 163.111 59.4071 163.111 59.6896C163.111 59.9421 163.075 60.1705 163.003 60.375C162.936 60.5794 162.844 60.7687 162.723 60.9431C162.609 61.1114 162.477 61.2737 162.326 61.43C162.182 61.5803 162.029 61.7307 161.867 61.881L159.901 63.7296V63.7476H163.156V64.451H159.044V63.5853ZM164.29 59.6265C164.29 59.374 164.334 59.1455 164.425 58.9411C164.521 58.7368 164.65 58.5624 164.813 58.4181C164.975 58.2738 165.168 58.1626 165.39 58.0844C165.612 58.0002 165.852 57.9582 166.111 57.9582C166.37 57.9582 166.61 58.0002 166.832 58.0844C167.055 58.1626 167.247 58.2738 167.409 58.4181C167.572 58.5624 167.698 58.7368 167.788 58.9411C167.885 59.1455 167.933 59.374 167.933 59.6265C167.933 59.7768 167.909 59.9271 167.86 60.0774C167.812 60.2276 167.744 60.3659 167.653 60.4922C167.563 60.6184 167.452 60.7297 167.319 60.8259C167.193 60.922 167.049 60.9912 166.886 61.0333V61.0513C167.079 61.0934 167.254 61.1655 167.409 61.2678C167.566 61.3639 167.698 61.4842 167.807 61.6284C167.914 61.7727 167.999 61.938 168.059 62.1244C168.119 62.3048 168.149 62.4942 168.149 62.6925C168.149 62.9811 168.095 63.2426 167.986 63.4771C167.885 63.7055 167.74 63.9009 167.554 64.0633C167.374 64.2256 167.157 64.3488 166.904 64.433C166.658 64.5171 166.394 64.5592 166.111 64.5592C165.828 64.5592 165.561 64.5171 165.308 64.433C165.062 64.3488 164.846 64.2256 164.659 64.0633C164.478 63.9009 164.334 63.7055 164.227 63.4771C164.124 63.2426 164.073 62.9811 164.073 62.6925C164.073 62.4942 164.103 62.3048 164.164 62.1244C164.223 61.938 164.308 61.7727 164.415 61.6284C164.524 61.4842 164.656 61.3639 164.813 61.2678C164.968 61.1655 165.144 61.0934 165.336 61.0513V61.0333C165.173 60.9912 165.026 60.922 164.894 60.8259C164.767 60.7297 164.659 60.6184 164.569 60.4922C164.478 60.3659 164.41 60.2276 164.362 60.0774C164.314 59.9271 164.29 59.7768 164.29 59.6265ZM165.047 59.6625C165.047 59.9691 165.144 60.2217 165.336 60.4201C165.534 60.6184 165.793 60.7177 166.111 60.7177C166.429 60.7177 166.685 60.6184 166.878 60.4201C167.076 60.2217 167.175 59.9691 167.175 59.6625C167.175 59.3559 167.076 59.1035 166.878 58.9051C166.685 58.7066 166.429 58.6075 166.111 58.6075C165.793 58.6075 165.534 58.7066 165.336 58.9051C165.144 59.1035 165.047 59.3559 165.047 59.6625ZM164.831 62.6384C164.831 62.8248 164.863 62.9961 164.93 63.1525C164.996 63.3088 165.086 63.444 165.2 63.5583C165.32 63.6665 165.456 63.7537 165.606 63.8198C165.762 63.8799 165.93 63.91 166.111 63.91C166.292 63.91 166.457 63.8799 166.607 63.8198C166.764 63.7537 166.899 63.6665 167.013 63.5583C167.133 63.444 167.226 63.3088 167.293 63.1525C167.359 62.9961 167.391 62.8248 167.391 62.6384C167.391 62.4521 167.359 62.2807 167.293 62.1244C167.226 61.9681 167.133 61.8359 167.013 61.7277C166.899 61.6134 166.764 61.5262 166.607 61.4661C166.457 61.4 166.292 61.3669 166.111 61.3669C165.93 61.3669 165.762 61.4 165.606 61.4661C165.456 61.5262 165.32 61.6134 165.2 61.7277C165.086 61.8359 164.996 61.9681 164.93 62.1244C164.863 62.2807 164.831 62.4521 164.831 62.6384ZM169.869 63.423C170.019 63.423 170.145 63.4771 170.248 63.5853C170.355 63.6875 170.409 63.8138 170.409 63.964C170.409 64.1143 170.353 64.2436 170.238 64.3518C170.13 64.454 170.007 64.5051 169.869 64.5051C169.73 64.5051 169.604 64.454 169.49 64.3518C169.382 64.2436 169.327 64.1143 169.327 63.964C169.327 63.8138 169.379 63.6875 169.48 63.5853C169.589 63.4771 169.719 63.423 169.869 63.423Z" fill="#E8F0FE"/>
<mask id="mask0_1_136" style="mask-type:luminance" maskUnits="userSpaceOnUse" x="190" y="26" width="39" height="39">
<path d="M228.628 26.3018H190.302V64.6274H228.628V26.3018Z" fill="white"/>
</mask>
<g mask="url(#mask0_1_136)">
<path d="M190.902 56.842H225.634V59.2374H190.902V56.842Z" fill="#D6E0EB"/>
<path d="M190.902 59.2374V56.842H225.634V58.0397H193.896V58.6385H225.634V59.2374H190.902Z" fill="#8394B2"/>
<path d="M190.902 35.2842H225.634V56.8424H190.902V35.2842Z" fill="#FBFBFB"/>
<path d="M190.902 35.2842V56.8424H225.634V53.2493H210.664C201.733 53.2493 194.495 46.6094 194.495 37.6795V35.2842H190.902Z" fill="#D6E0EB"/>
<path d="M190.902 28.6975V35.2848H225.634V28.6975H190.902ZM198.087 32.8894H193.297V30.4941H198.087V32.8894ZM206.472 32.8894H201.681V30.4941H206.472V32.8894ZM214.855 32.8894H210.064V30.4941H214.855V32.8894ZM223.239 32.8894H218.449V30.4941H223.239V32.8894Z" fill="#E63B47"/>
<path d="M195.093 26.9009H196.291C196.449 26.9009 196.602 26.964 196.714 27.0763C196.826 27.1886 196.89 27.341 196.89 27.4998V31.0927H194.494V27.4998C194.494 27.341 194.557 27.1886 194.67 27.0763C194.782 26.964 194.934 26.9009 195.093 26.9009Z" fill="#D6E0EB"/>
<path d="M196.291 29.8951H195.692C195.534 29.8951 195.381 29.832 195.269 29.7197C195.156 29.6074 195.093 29.4551 195.093 29.2963V27.4998C195.093 27.341 195.156 27.1886 195.269 27.0763C195.381 26.964 195.534 26.9009 195.692 26.9009H195.093C194.934 26.9009 194.782 26.964 194.67 27.0763C194.557 27.1886 194.494 27.341 194.494 27.4998V31.0927H196.89V29.2963C196.89 29.4551 196.826 29.6074 196.714 29.7197C196.602 29.832 196.449 29.8951 196.291 29.8951Z" fill="#A8B7D4"/>
<path d="M194.495 30.4939H193.297V32.8892H198.088V30.4939H196.89V29.895H198.088C198.246 29.895 198.399 29.9582 198.511 30.0705C198.624 30.1828 198.687 30.3351 198.687 30.4939V32.8892C198.687 33.048 198.624 33.2003 198.511 33.3126C198.399 33.425 198.246 33.4881 198.088 33.4881H193.297C193.139 33.4881 192.986 33.425 192.874 33.3126C192.762 33.2003 192.699 33.048 192.699 32.8892V30.4939C192.699 30.3351 192.762 30.1828 192.874 30.0705C192.986 29.9582 193.139 29.895 193.297 29.895H194.495V30.4939Z" fill="#B32E37"/>
<path d="M193.297 30.4941H194.495V31.093H193.297V30.4941ZM196.89 30.4941H198.087V31.093H196.89V30.4941Z" fill="#D6E0EB"/>
<path d="M193.896 28.6975H194.495V29.8952H193.896V28.6975Z" fill="#B32E37"/>
<path d="M203.478 26.9009H204.675C204.834 26.9009 204.986 26.964 205.099 27.0763C205.211 27.1886 205.274 27.341 205.274 27.4998V31.0927H202.878V27.4998C202.878 27.341 202.942 27.1886 203.054 27.0763C203.167 26.964 203.319 26.9009 203.478 26.9009Z" fill="#D6E0EB"/>
<path d="M204.675 29.8951H204.076C203.917 29.8951 203.765 29.832 203.653 29.7197C203.54 29.6074 203.478 29.4551 203.478 29.2963V27.4998C203.478 27.341 203.54 27.1886 203.653 27.0763C203.765 26.964 203.917 26.9009 204.076 26.9009H203.478C203.319 26.9009 203.167 26.964 203.054 27.0763C202.942 27.1886 202.878 27.341 202.878 27.4998V31.0927H205.274V29.2963C205.274 29.4551 205.211 29.6074 205.099 29.7197C204.986 29.832 204.834 29.8951 204.675 29.8951Z" fill="#A8B7D4"/>
<path d="M202.878 30.4939H201.681V32.8892H206.471V30.4939H205.274V29.895H206.471C206.63 29.895 206.782 29.9582 206.895 30.0705C207.007 30.1828 207.07 30.3351 207.07 30.4939V32.8892C207.07 33.048 207.007 33.2003 206.895 33.3126C206.782 33.425 206.63 33.4881 206.471 33.4881H201.681C201.522 33.4881 201.369 33.425 201.257 33.3126C201.145 33.2003 201.081 33.048 201.081 32.8892V30.4939C201.081 30.3351 201.145 30.1828 201.257 30.0705C201.369 29.9582 201.522 29.895 201.681 29.895H202.878V30.4939Z" fill="#B32E37"/>
<path d="M201.681 30.4941H202.878V31.093H201.681V30.4941ZM205.274 30.4941H206.472V31.093H205.274V30.4941Z" fill="#D6E0EB"/>
<path d="M202.279 28.6975H202.878V29.8952H202.279V28.6975Z" fill="#B32E37"/>
<path d="M211.86 26.9009H213.058C213.217 26.9009 213.369 26.964 213.482 27.0763C213.594 27.1886 213.658 27.341 213.658 27.4998V31.0927H211.262V27.4998C211.262 27.341 211.325 27.1886 211.437 27.0763C211.549 26.964 211.702 26.9009 211.86 26.9009Z" fill="#D6E0EB"/>
<path d="M213.058 29.8951H212.46C212.301 29.8951 212.149 29.832 212.036 29.7197C211.924 29.6074 211.86 29.4551 211.86 29.2963V27.4998C211.86 27.341 211.924 27.1886 212.036 27.0763C212.149 26.964 212.301 26.9009 212.46 26.9009H211.86C211.702 26.9009 211.549 26.964 211.437 27.0763C211.325 27.1886 211.262 27.341 211.262 27.4998V31.0927H213.658V29.2963C213.658 29.4551 213.594 29.6074 213.482 29.7197C213.369 29.832 213.217 29.8951 213.058 29.8951Z" fill="#A8B7D4"/>
<path d="M211.262 30.4939H210.064V32.8892H214.855V30.4939H213.658V29.895H214.855C215.014 29.895 215.167 29.9582 215.279 30.0705C215.392 30.1828 215.454 30.3351 215.454 30.4939V32.8892C215.454 33.048 215.392 33.2003 215.279 33.3126C215.167 33.425 215.014 33.4881 214.855 33.4881H210.064C209.906 33.4881 209.754 33.425 209.641 33.3126C209.529 33.2003 209.466 33.048 209.466 32.8892V30.4939C209.466 30.3351 209.529 30.1828 209.641 30.0705C209.754 29.9582 209.906 29.895 210.064 29.895H211.262V30.4939Z" fill="#B32E37"/>
<path d="M210.064 30.4941H211.262V31.093H210.064V30.4941ZM213.658 30.4941H214.855V31.093H213.658V30.4941Z" fill="#D6E0EB"/>
<path d="M210.664 28.6975H211.262V29.8952H210.664V28.6975Z" fill="#B32E37"/>
<path d="M220.245 26.9009H221.443C221.601 26.9009 221.754 26.964 221.866 27.0763C221.978 27.1886 222.041 27.341 222.041 27.4998V31.0927H219.646V27.4998C219.646 27.341 219.709 27.1886 219.822 27.0763C219.934 26.964 220.086 26.9009 220.245 26.9009Z" fill="#D6E0EB"/>
<path d="M221.443 29.8951H220.843C220.685 29.8951 220.532 29.832 220.42 29.7197C220.308 29.6074 220.245 29.4551 220.245 29.2963V27.4998C220.245 27.341 220.308 27.1886 220.42 27.0763C220.532 26.964 220.685 26.9009 220.843 26.9009H220.245C220.086 26.9009 219.934 26.964 219.822 27.0763C219.709 27.1886 219.646 27.341 219.646 27.4998V31.0927H222.041V29.2963C222.041 29.4551 221.978 29.6074 221.866 29.7197C221.754 29.832 221.601 29.8951 221.443 29.8951Z" fill="#A8B7D4"/>
<path d="M219.646 30.4939H218.448V32.8892H223.239V30.4939H222.041V29.895H223.239C223.397 29.895 223.55 29.9582 223.662 30.0705C223.774 30.1828 223.837 30.3351 223.837 30.4939V32.8892C223.837 33.048 223.774 33.2003 223.662 33.3126C223.55 33.425 223.397 33.4881 223.239 33.4881H218.448C218.29 33.4881 218.137 33.425 218.025 33.3126C217.912 33.2003 217.849 33.048 217.849 32.8892V30.4939C217.849 30.3351 217.912 30.1828 218.025 30.0705C218.137 29.9582 218.29 29.895 218.448 29.895H219.646V30.4939Z" fill="#B32E37"/>
<path d="M218.449 30.4941H219.646V31.093H218.449V30.4941ZM222.041 30.4941H223.239V31.093H222.041V30.4941Z" fill="#D6E0EB"/>
<path d="M219.047 28.6975H219.646V29.8952H219.047V28.6975Z" fill="#B32E37"/>
<path d="M195.692 37.6802H199.285V41.2732H195.692V37.6802ZM202.878 37.6802H206.471V41.2732H202.878V37.6802ZM210.064 37.6802H213.658V41.2732H210.064V37.6802ZM217.25 37.6802H220.843V41.2732H217.25V37.6802ZM195.692 44.2674H199.285V47.8605H195.692V44.2674ZM202.878 44.2674H206.471V47.8605H202.878V44.2674ZM210.064 44.2674H213.658V47.8605H210.064V44.2674ZM202.878 50.8547H206.471V54.4476H202.878V50.8547Z" fill="#A8B7D4"/>
<path d="M195.692 50.2554H199.285V53.8483H195.692V50.2554Z" fill="#8394B2"/>
<path d="M217.251 44.2671H220.843V47.8602H217.251V44.2671Z" fill="#A8B7D4"/>
<path d="M195.692 47.8602H198.313C197.356 46.7819 196.559 45.5719 195.945 44.2671H195.692V47.8602ZM206.471 54.4474V52.7401C205.225 52.4322 204.019 51.9802 202.878 51.3933V54.4474H206.471ZM195.692 50.2554H199.285V53.8485H195.692V50.2554Z" fill="#8394B2"/>
<path d="M197.489 31.0925H198.087V32.889H197.489V31.0925ZM205.872 31.0925H206.472V32.889H205.872V31.0925ZM214.256 31.0925H214.855V32.889H214.256V31.0925ZM222.64 31.0925H223.239V32.889H222.64V31.0925Z" fill="#D6E0EB"/>
<path d="M210.064 50.8538H213.658V54.4468H210.064V50.8538Z" fill="#A8B7D4"/>
<path d="M213.658 54.4488V53.2511H210.663C210.463 53.2511 210.263 53.2439 210.064 53.2373V54.4488H213.658Z" fill="#8394B2"/>
<path d="M219.646 64.0287C224.276 64.0287 228.029 60.2752 228.029 55.645C228.029 51.0147 224.276 47.2612 219.646 47.2612C215.015 47.2612 211.262 51.0147 211.262 55.645C211.262 60.2752 215.015 64.0287 219.646 64.0287Z" fill="#E63B47"/>
<path d="M213.657 52.0504C213.658 51.1361 213.81 50.2282 214.105 49.3628C213.14 50.2118 212.383 51.2714 211.894 52.4597C211.404 53.6479 211.194 54.9328 211.281 56.215C211.367 57.4973 211.748 58.7425 212.392 59.8543C213.036 60.9661 213.928 61.9148 214.998 62.6269C216.067 63.339 217.287 63.7954 218.562 63.9608C219.836 64.1263 221.131 63.9964 222.348 63.5811C223.563 63.1658 224.668 62.4763 225.575 61.5659C226.483 60.6555 227.167 59.5487 227.579 58.331C226.371 59.3997 224.879 60.0966 223.284 60.338C221.689 60.5793 220.058 60.3548 218.587 59.6913C217.117 59.028 215.869 57.9539 214.995 56.5984C214.12 55.2429 213.656 53.6636 213.657 52.0504Z" fill="#B32E37"/>
<path d="M219.646 47.2612C217.987 47.2612 216.366 47.7529 214.988 48.6741C213.61 49.5953 212.534 50.9047 211.9 52.4367C211.266 53.9686 211.099 55.6543 211.423 57.2806C211.747 58.9069 212.545 60.4007 213.717 61.5732C214.89 62.7456 216.384 63.5442 218.01 63.8677C219.637 64.1912 221.322 64.0251 222.854 63.3906C224.386 62.7561 225.695 61.6814 226.616 60.3028C227.537 58.9241 228.029 57.3031 228.029 55.645C228.029 53.4215 227.146 51.289 225.574 49.7168C224.002 48.1445 221.869 47.2612 219.646 47.2612ZM219.646 63.4299C218.105 63.4299 216.601 62.9733 215.32 62.1179C214.04 61.2625 213.042 60.0467 212.454 58.6241C211.864 57.2016 211.71 55.6363 212.01 54.1262C212.31 52.6161 213.052 51.2289 214.14 50.1403C215.23 49.0515 216.617 48.3101 218.127 48.0097C219.637 47.7092 221.203 47.8634 222.624 48.4527C224.047 49.0419 225.263 50.0397 226.118 51.3199C226.974 52.6001 227.431 54.1053 227.431 55.645C227.431 57.7096 226.61 59.6898 225.151 61.1498C223.691 62.6097 221.71 63.4299 219.646 63.4299Z" fill="#393D48"/>
<path d="M219.646 63.4283C218.149 63.4301 216.683 62.9995 215.424 62.1884C214.165 61.3771 213.168 60.2198 212.551 58.8555C211.934 57.4911 211.724 55.9776 211.948 54.4969C212.17 53.0161 212.815 51.6312 213.805 50.5084C213.878 50.1199 213.978 49.737 214.105 49.3628C213.14 50.2118 212.383 51.2714 211.894 52.4597C211.404 53.6479 211.194 54.9328 211.281 56.215C211.367 57.4973 211.748 58.7425 212.392 59.8543C213.036 60.9661 213.928 61.9148 214.998 62.6269C216.067 63.339 217.287 63.7954 218.562 63.9608C219.836 64.1263 221.131 63.9964 222.348 63.5811C223.563 63.1658 224.668 62.4763 225.575 61.5659C226.483 60.6555 227.167 59.5487 227.579 58.331C227.28 58.5964 226.963 58.8402 226.629 59.0604C225.991 60.3692 224.998 61.4725 223.764 62.2447C222.528 63.0169 221.102 63.427 219.646 63.4283Z" fill="#222430"/>
<path d="M217.849 59.2378H221.442C221.442 59.7143 221.253 60.1712 220.916 60.5081C220.579 60.8451 220.122 61.0344 219.646 61.0344C219.169 61.0344 218.712 60.8451 218.376 60.5081C218.039 60.1712 217.849 59.7143 217.849 59.2378Z" fill="#E3C231"/>
<path d="M223.217 56.9864C223.464 57.1238 223.655 57.3432 223.758 57.6066C223.86 57.8701 223.868 58.1611 223.78 58.4296C223.692 58.6718 223.53 58.8803 223.317 59.0254C223.105 59.1705 222.851 59.2448 222.593 59.2381H216.701C216.444 59.2448 216.191 59.1705 215.978 59.0254C215.765 58.8803 215.603 58.6718 215.515 58.4296C215.426 58.1611 215.434 57.8701 215.537 57.6066C215.64 57.3432 215.831 57.1238 216.078 56.9864C216.257 56.8839 216.404 56.7353 216.506 56.5561C216.606 56.377 216.658 56.174 216.653 55.9683V53.8485C216.653 53.4028 216.753 52.9629 216.945 52.5606C217.136 52.1582 217.415 51.8037 217.761 51.5226C218.107 51.2416 218.511 51.0412 218.944 50.9359C219.377 50.8307 219.828 50.8232 220.264 50.9142C220.95 51.0729 221.56 51.4623 221.993 52.0172C222.425 52.5721 222.655 53.2587 222.641 53.9623V55.9683C222.638 56.174 222.688 56.377 222.79 56.5561C222.891 56.7353 223.038 56.8839 223.217 56.9864Z" fill="#E9DD55"/>
<path d="M219.646 59.8367H221.332C221.403 59.6448 221.44 59.4422 221.442 59.2378H217.849C217.849 59.5057 217.911 59.77 218.027 60.0111C218.144 60.2523 218.314 60.464 218.522 60.6308C218.605 60.3988 218.757 60.198 218.958 60.0558C219.159 59.9137 219.399 59.8371 219.646 59.8367Z" fill="#E39B1E"/>
<path d="M222.641 58.041H217.851C217.692 58.041 217.54 57.9778 217.428 57.8655C217.315 57.7532 217.252 57.6009 217.252 57.4421C217.252 57.2833 217.315 57.1309 217.428 57.0186C217.54 56.9063 217.692 56.8433 217.851 56.8433C218.009 56.8433 218.162 56.7801 218.274 56.6678C218.386 56.5555 218.45 56.4032 218.45 56.2444V52.6514C218.45 52.2174 218.609 51.7985 218.895 51.4724C219.181 51.1463 219.576 50.9354 220.007 50.8788C219.587 50.828 219.16 50.8669 218.756 50.9929C218.352 51.1189 217.979 51.3292 217.663 51.61C217.345 51.8907 217.092 52.2353 216.917 52.6213C216.744 53.0073 216.653 53.4257 216.653 53.8491V55.9689C216.658 56.1746 216.606 56.3776 216.506 56.5567C216.404 56.7359 216.257 56.8845 216.078 56.987C215.831 57.1244 215.64 57.3437 215.537 57.6072C215.434 57.8707 215.426 58.1617 215.515 58.4302C215.603 58.6724 215.765 58.8808 215.978 59.026C216.191 59.1711 216.444 59.2454 216.701 59.2387H222.593C222.851 59.2454 223.105 59.1711 223.317 59.026C223.53 58.8808 223.692 58.6724 223.78 58.4302C223.833 58.2674 223.851 58.0951 223.833 57.9248C223.814 57.7546 223.76 57.59 223.674 57.4421C223.57 57.6238 223.419 57.7749 223.238 57.8801C223.057 57.9852 222.851 58.0407 222.641 58.041Z" fill="#E3C231"/>
<path d="M221.442 54.4471C221.283 54.4471 221.131 54.3839 221.019 54.2716C220.906 54.1593 220.843 54.007 220.843 53.8482C220.843 53.5305 220.717 53.2259 220.492 53.0013C220.268 52.7767 219.963 52.6505 219.646 52.6505C219.486 52.6505 219.334 52.5874 219.222 52.4751C219.11 52.3628 219.047 52.2105 219.047 52.0517C219.047 51.8929 219.11 51.7405 219.222 51.6282C219.334 51.5159 219.486 51.4529 219.646 51.4529C220.28 51.4529 220.89 51.7052 221.34 52.1544C221.789 52.6036 222.041 53.2129 222.041 53.8482C222.041 54.007 221.978 54.1593 221.866 54.2716C221.753 54.3839 221.601 54.4471 221.442 54.4471Z" fill="white"/>
<path d="M221.443 56.2438C221.773 56.2438 222.041 55.9757 222.041 55.6449C222.041 55.3142 221.773 55.0461 221.443 55.0461C221.112 55.0461 220.843 55.3142 220.843 55.6449C220.843 55.9757 221.112 56.2438 221.443 56.2438Z" fill="white"/>
</g>
</svg>
