<svg width="506" height="230" viewBox="0 0 506 230" fill="none" xmlns="http://www.w3.org/2000/svg">
<path d="M498.972 0H7.02804C3.14671 0 0.000274658 3.14643 0.000274658 7.02774V222.252C0.000274658 226.134 3.14671 229.28 7.02804 229.28H498.972C502.853 229.28 506 226.134 506 222.252V7.02774C506 3.14643 502.853 0 498.972 0Z" fill="white"/>
<path d="M172.006 195.898H170.646C168.595 195.898 166.934 197.56 166.934 199.61V200.971C166.934 203.021 168.595 204.683 170.646 204.683H172.006C174.056 204.683 175.718 203.021 175.718 200.971V199.61C175.718 197.56 174.056 195.898 172.006 195.898Z" fill="#93B8FA"/>
<path d="M184.103 197.128C184.774 197.128 185.329 197.367 185.769 197.845C186.214 198.318 186.436 198.899 186.436 199.588C186.436 200.276 186.214 200.86 185.769 201.338C185.329 201.811 184.774 202.047 184.103 202.047H182.185V197.128H184.103ZM184.103 201.429C184.605 201.429 185.014 201.253 185.333 200.902C185.652 200.551 185.811 200.112 185.811 199.588C185.811 199.063 185.652 198.625 185.333 198.274C185.014 197.922 184.605 197.746 184.103 197.746H182.838V201.429H184.103ZM187.826 197.894C187.709 197.894 187.611 197.854 187.531 197.775C187.452 197.695 187.412 197.599 187.412 197.486C187.412 197.374 187.452 197.278 187.531 197.198C187.611 197.114 187.709 197.072 187.826 197.072C187.939 197.072 188.035 197.114 188.114 197.198C188.194 197.278 188.234 197.374 188.234 197.486C188.234 197.599 188.194 197.695 188.114 197.775C188.035 197.854 187.939 197.894 187.826 197.894ZM187.517 202.047V198.534H188.128V202.047H187.517ZM189.933 199.482C189.933 199.618 190.001 199.728 190.137 199.813C190.273 199.893 190.437 199.958 190.629 200.009C190.821 200.056 191.013 200.112 191.205 200.178C191.397 200.239 191.561 200.347 191.697 200.501C191.833 200.652 191.901 200.846 191.901 201.085C191.901 201.404 191.777 201.658 191.528 201.851C191.285 202.043 190.971 202.139 190.586 202.139C190.245 202.139 189.952 202.064 189.708 201.914C189.465 201.764 189.292 201.565 189.188 201.317L189.715 201.014C189.771 201.183 189.877 201.317 190.031 201.415C190.186 201.513 190.371 201.563 190.586 201.563C190.788 201.563 190.954 201.525 191.085 201.45C191.217 201.37 191.282 201.249 191.282 201.085C191.282 200.948 191.214 200.841 191.078 200.761C190.943 200.677 190.779 200.611 190.586 200.565C190.395 200.513 190.203 200.455 190.01 200.389C189.819 200.323 189.654 200.216 189.518 200.066C189.383 199.915 189.314 199.724 189.314 199.489C189.314 199.184 189.432 198.934 189.666 198.737C189.905 198.541 190.202 198.442 190.558 198.442C190.845 198.442 191.098 198.508 191.317 198.639C191.542 198.765 191.711 198.944 191.823 199.173L191.31 199.461C191.184 199.162 190.933 199.011 190.558 199.011C190.385 199.011 190.238 199.054 190.116 199.138C189.994 199.218 189.933 199.332 189.933 199.482ZM194.881 198.442C195.373 198.442 195.793 198.622 196.139 198.983C196.486 199.339 196.659 199.775 196.659 200.29C196.659 200.806 196.486 201.244 196.139 201.605C195.793 201.96 195.373 202.139 194.881 202.139C194.301 202.139 193.858 201.907 193.553 201.443V202.047H192.942V197.128H193.553V199.138C193.858 198.674 194.301 198.442 194.881 198.442ZM194.804 201.548C195.155 201.548 195.45 201.429 195.689 201.19C195.928 200.947 196.048 200.646 196.048 200.29C196.048 199.935 195.928 199.637 195.689 199.398C195.45 199.155 195.155 199.033 194.804 199.033C194.448 199.033 194.15 199.155 193.911 199.398C193.672 199.637 193.553 199.935 193.553 200.29C193.553 200.646 193.672 200.947 193.911 201.19C194.15 201.429 194.448 201.548 194.804 201.548ZM200.165 198.534H200.777V202.047H200.165V201.541C199.917 201.939 199.537 202.139 199.027 202.139C198.614 202.139 198.284 202.01 198.036 201.752C197.787 201.49 197.663 201.136 197.663 200.691V198.534H198.275V200.656C198.275 200.941 198.352 201.165 198.507 201.324C198.661 201.478 198.874 201.555 199.146 201.555C199.45 201.555 199.696 201.461 199.884 201.274C200.071 201.082 200.165 200.789 200.165 200.396V198.534ZM202.67 199.124C202.872 198.688 203.237 198.47 203.766 198.47V199.11C203.467 199.096 203.209 199.176 202.993 199.349C202.778 199.522 202.67 199.801 202.67 200.185V202.047H202.058V198.534H202.67V199.124ZM205.113 199.482C205.113 199.618 205.18 199.728 205.317 199.813C205.453 199.893 205.616 199.958 205.809 200.009C206.001 200.056 206.192 200.112 206.385 200.178C206.577 200.239 206.741 200.347 206.877 200.501C207.013 200.652 207.081 200.846 207.081 201.085C207.081 201.404 206.957 201.658 206.708 201.851C206.465 202.043 206.15 202.139 205.766 202.139C205.425 202.139 205.131 202.064 204.888 201.914C204.645 201.764 204.471 201.565 204.368 201.317L204.895 201.014C204.951 201.183 205.057 201.317 205.211 201.415C205.366 201.513 205.551 201.563 205.766 201.563C205.968 201.563 206.134 201.525 206.265 201.45C206.396 201.37 206.462 201.249 206.462 201.085C206.462 200.948 206.394 200.841 206.258 200.761C206.122 200.677 205.959 200.611 205.766 200.565C205.574 200.513 205.382 200.455 205.19 200.389C204.998 200.323 204.834 200.216 204.698 200.066C204.562 199.915 204.494 199.724 204.494 199.489C204.494 199.184 204.611 198.934 204.846 198.737C205.085 198.541 205.382 198.442 205.738 198.442C206.024 198.442 206.277 198.508 206.497 198.639C206.722 198.765 206.891 198.944 207.003 199.173L206.49 199.461C206.364 199.162 206.113 199.011 205.738 199.011C205.565 199.011 205.418 199.054 205.296 199.138C205.173 199.218 205.113 199.332 205.113 199.482ZM208.489 200.572C208.549 200.885 208.693 201.129 208.917 201.302C209.147 201.476 209.428 201.563 209.761 201.563C210.225 201.563 210.562 201.391 210.773 201.049L211.293 201.345C210.95 201.874 210.435 202.139 209.747 202.139C209.189 202.139 208.735 201.966 208.383 201.619C208.036 201.267 207.863 200.825 207.863 200.29C207.863 199.761 208.034 199.321 208.376 198.969C208.718 198.618 209.161 198.442 209.705 198.442C210.219 198.442 210.639 198.625 210.963 198.99C211.29 199.351 211.454 199.787 211.454 200.298C211.454 200.386 211.447 200.478 211.433 200.572H208.489ZM209.705 199.018C209.376 199.018 209.105 199.112 208.889 199.3C208.673 199.482 208.54 199.728 208.489 200.038H210.836C210.784 199.705 210.653 199.452 210.442 199.279C210.232 199.105 209.986 199.018 209.705 199.018ZM215.411 197.128H216.023V202.047H215.411V201.443C215.106 201.907 214.664 202.139 214.083 202.139C213.591 202.139 213.172 201.96 212.825 201.605C212.478 201.244 212.305 200.806 212.305 200.29C212.305 199.775 212.478 199.339 212.825 198.983C213.172 198.622 213.591 198.442 214.083 198.442C214.664 198.442 215.106 198.674 215.411 199.138V197.128ZM214.16 201.548C214.516 201.548 214.814 201.429 215.053 201.19C215.292 200.947 215.411 200.646 215.411 200.29C215.411 199.935 215.292 199.637 215.053 199.398C214.814 199.155 214.516 199.033 214.16 199.033C213.809 199.033 213.514 199.155 213.275 199.398C213.036 199.637 212.916 199.935 212.916 200.29C212.916 200.646 213.036 200.947 213.275 201.19C213.514 201.429 213.809 201.548 214.16 201.548ZM221.256 197.128C221.712 197.128 222.088 197.28 222.388 197.585C222.693 197.884 222.845 198.259 222.845 198.709C222.845 199.155 222.693 199.529 222.388 199.834C222.088 200.139 221.712 200.29 221.256 200.29H220.125V202.047H219.471V197.128H221.256ZM221.256 199.679C221.529 199.679 221.754 199.588 221.931 199.405C222.109 199.218 222.198 198.986 222.198 198.709C222.198 198.428 222.109 198.196 221.931 198.014C221.754 197.831 221.529 197.739 221.256 197.739H220.125V199.679H221.256ZM226.547 198.534H227.158V202.047H226.547V201.443C226.243 201.907 225.8 202.139 225.218 202.139C224.726 202.139 224.307 201.96 223.96 201.605C223.614 201.244 223.44 200.806 223.44 200.29C223.44 199.775 223.614 199.339 223.96 198.983C224.307 198.622 224.726 198.442 225.218 198.442C225.8 198.442 226.243 198.674 226.547 199.138V198.534ZM225.296 201.548C225.652 201.548 225.949 201.429 226.188 201.19C226.427 200.947 226.547 200.646 226.547 200.29C226.547 199.935 226.427 199.637 226.188 199.398C225.949 199.155 225.652 199.033 225.296 199.033C224.944 199.033 224.649 199.155 224.41 199.398C224.171 199.637 224.052 199.935 224.052 200.29C224.052 200.646 224.171 200.947 224.41 201.19C224.649 201.429 224.944 201.548 225.296 201.548ZM230.889 198.534H231.542L230.109 202.265C229.959 202.663 229.748 202.965 229.476 203.172C229.209 203.383 228.9 203.477 228.549 203.453V202.884C228.98 202.916 229.296 202.677 229.497 202.167L229.561 202.033L228.029 198.534H228.682L229.877 201.288L230.889 198.534ZM236.199 198.442C236.593 198.442 236.912 198.571 237.155 198.829C237.398 199.082 237.52 199.426 237.52 199.862V202.047H236.909V199.883C236.909 199.611 236.839 199.401 236.698 199.25C236.558 199.1 236.371 199.025 236.136 199.025C235.873 199.025 235.663 199.114 235.504 199.293C235.349 199.466 235.272 199.733 235.272 200.094V202.047H234.66V199.883C234.66 199.611 234.593 199.401 234.456 199.25C234.325 199.1 234.145 199.025 233.915 199.025C233.658 199.025 233.442 199.114 233.269 199.293C233.1 199.471 233.016 199.738 233.016 200.094V202.047H232.404V198.534H233.016V199.004C233.255 198.629 233.603 198.442 234.063 198.442C234.536 198.442 234.881 198.642 235.096 199.04C235.339 198.642 235.707 198.442 236.199 198.442ZM239.148 200.572C239.21 200.885 239.352 201.129 239.577 201.302C239.807 201.476 240.088 201.563 240.42 201.563C240.884 201.563 241.221 201.391 241.432 201.049L241.952 201.345C241.611 201.874 241.095 202.139 240.406 202.139C239.849 202.139 239.394 201.966 239.043 201.619C238.697 201.267 238.523 200.825 238.523 200.29C238.523 199.761 238.694 199.321 239.036 198.969C239.378 198.618 239.821 198.442 240.364 198.442C240.88 198.442 241.299 198.625 241.622 198.99C241.951 199.351 242.114 199.787 242.114 200.298C242.114 200.386 242.107 200.478 242.093 200.572H239.148ZM240.364 199.018C240.036 199.018 239.765 199.112 239.549 199.3C239.334 199.482 239.2 199.728 239.148 200.038H241.496C241.445 199.705 241.313 199.452 241.102 199.279C240.891 199.105 240.645 199.018 240.364 199.018ZM244.918 198.442C245.331 198.442 245.661 198.573 245.909 198.836C246.158 199.093 246.281 199.445 246.281 199.89V202.047H245.67V199.925C245.67 199.64 245.593 199.419 245.438 199.264C245.284 199.105 245.071 199.025 244.799 199.025C244.495 199.025 244.249 199.121 244.061 199.314C243.874 199.501 243.78 199.792 243.78 200.185V202.047H243.168V198.534H243.78V199.04C244.028 198.642 244.408 198.442 244.918 198.442ZM249.398 199.124H248.464V201.028C248.464 201.201 248.496 201.326 248.562 201.401C248.632 201.471 248.738 201.509 248.878 201.513C249.019 201.513 249.192 201.509 249.398 201.499V202.047C248.864 202.118 248.473 202.076 248.225 201.921C247.976 201.762 247.852 201.464 247.852 201.028V199.124H247.156V198.534H247.852V197.732L248.464 197.55V198.534H249.398V199.124Z" fill="#15294B"/>
<path d="M284.947 195.898H283.586C281.536 195.898 279.874 197.56 279.874 199.61V200.971C279.874 203.021 281.536 204.683 283.586 204.683H284.947C286.997 204.683 288.659 203.021 288.659 200.971V199.61C288.659 197.56 286.997 195.898 284.947 195.898Z" fill="#1041B6"/>
<path d="M295.305 197.128V197.747H293.85V202.048H293.203V197.747H291.755V197.128H295.305ZM298.566 201.605C298.206 201.961 297.768 202.139 297.252 202.139C296.737 202.139 296.299 201.961 295.938 201.605C295.582 201.249 295.404 200.811 295.404 200.291C295.404 199.771 295.582 199.332 295.938 198.976C296.299 198.621 296.737 198.442 297.252 198.442C297.768 198.442 298.206 198.621 298.566 198.976C298.927 199.332 299.107 199.771 299.107 200.291C299.107 200.811 298.927 201.249 298.566 201.605ZM297.252 201.542C297.603 201.542 297.899 201.422 298.138 201.183C298.377 200.944 298.496 200.646 298.496 200.291C298.496 199.935 298.377 199.637 298.138 199.398C297.899 199.159 297.603 199.04 297.252 199.04C296.906 199.04 296.613 199.159 296.374 199.398C296.135 199.637 296.015 199.935 296.015 200.291C296.015 200.646 296.135 200.944 296.374 201.183C296.613 201.422 296.906 201.542 297.252 201.542ZM302.016 199.124H301.081V201.028C301.081 201.202 301.114 201.326 301.18 201.401C301.25 201.471 301.355 201.509 301.496 201.513C301.637 201.513 301.81 201.509 302.016 201.499V202.048C301.482 202.118 301.091 202.076 300.842 201.921C300.594 201.762 300.47 201.464 300.47 201.028V199.124H299.774V198.534H300.47V197.732L301.081 197.55V198.534H302.016V199.124ZM305.822 198.534H306.434V202.048H305.822V201.443C305.518 201.907 305.075 202.139 304.494 202.139C304.002 202.139 303.583 201.961 303.236 201.605C302.889 201.244 302.716 200.806 302.716 200.291C302.716 199.775 302.889 199.339 303.236 198.983C303.583 198.622 304.002 198.442 304.494 198.442C305.075 198.442 305.518 198.674 305.822 199.138V198.534ZM304.572 201.549C304.927 201.549 305.225 201.429 305.464 201.19C305.703 200.947 305.822 200.646 305.822 200.291C305.822 199.935 305.703 199.637 305.464 199.398C305.225 199.155 304.927 199.033 304.572 199.033C304.22 199.033 303.925 199.155 303.686 199.398C303.447 199.637 303.328 199.935 303.328 200.291C303.328 200.646 303.447 200.947 303.686 201.19C303.925 201.429 304.22 201.549 304.572 201.549ZM307.711 202.048V196.917H308.323V202.048H307.711ZM313.564 197.128C314.018 197.128 314.395 197.28 314.695 197.585C315 197.884 315.152 198.26 315.152 198.709C315.152 199.155 315 199.529 314.695 199.834C314.395 200.139 314.018 200.291 313.564 200.291H312.432V202.048H311.778V197.128H313.564ZM313.564 199.679C313.835 199.679 314.06 199.588 314.238 199.405C314.417 199.218 314.505 198.986 314.505 198.709C314.505 198.428 314.417 198.196 314.238 198.014C314.06 197.831 313.835 197.739 313.564 197.739H312.432V199.679H313.564ZM318.854 198.534H319.465V202.048H318.854V201.443C318.55 201.907 318.107 202.139 317.525 202.139C317.033 202.139 316.614 201.961 316.267 201.605C315.921 201.244 315.747 200.806 315.747 200.291C315.747 199.775 315.921 199.339 316.267 198.983C316.614 198.622 317.033 198.442 317.525 198.442C318.107 198.442 318.55 198.674 318.854 199.138V198.534ZM317.603 201.549C317.959 201.549 318.256 201.429 318.495 201.19C318.734 200.947 318.854 200.646 318.854 200.291C318.854 199.935 318.734 199.637 318.495 199.398C318.256 199.155 317.959 199.033 317.603 199.033C317.251 199.033 316.956 199.155 316.717 199.398C316.478 199.637 316.359 199.935 316.359 200.291C316.359 200.646 316.478 200.947 316.717 201.19C316.956 201.429 317.251 201.549 317.603 201.549ZM323.196 198.534H323.85L322.416 202.265C322.266 202.663 322.055 202.966 321.783 203.172C321.516 203.383 321.207 203.477 320.856 203.453V202.884C321.286 202.916 321.602 202.677 321.804 202.167L321.868 202.033L320.336 198.534H320.989L322.184 201.289L323.196 198.534ZM325.323 199.124C325.524 198.688 325.889 198.47 326.419 198.47V199.11C326.12 199.096 325.861 199.176 325.646 199.349C325.431 199.522 325.323 199.801 325.323 200.185V202.048H324.711V198.534H325.323V199.124ZM330.142 201.605C329.781 201.961 329.344 202.139 328.828 202.139C328.312 202.139 327.875 201.961 327.514 201.605C327.158 201.249 326.98 200.811 326.98 200.291C326.98 199.771 327.158 199.332 327.514 198.976C327.875 198.621 328.312 198.442 328.828 198.442C329.344 198.442 329.781 198.621 330.142 198.976C330.503 199.332 330.683 199.771 330.683 200.291C330.683 200.811 330.503 201.249 330.142 201.605ZM328.828 201.542C329.179 201.542 329.474 201.422 329.713 201.183C329.952 200.944 330.072 200.646 330.072 200.291C330.072 199.935 329.952 199.637 329.713 199.398C329.474 199.159 329.179 199.04 328.828 199.04C328.481 199.04 328.188 199.159 327.949 199.398C327.71 199.637 327.591 199.935 327.591 200.291C327.591 200.646 327.71 200.944 327.949 201.183C328.188 201.422 328.481 201.542 328.828 201.542ZM331.756 202.048V196.917H332.367V202.048H331.756ZM333.651 202.048V196.917H334.262V202.048H333.651Z" fill="#15294B"/>
<path d="M55.3434 84.9917L484.114 84.2577" stroke="#E8E8E8" stroke-width="0.439236"/>
<path d="M55.344 122.766H484.038" stroke="#E8E8E8" stroke-width="0.439236"/>
<path d="M55.344 160.54H484.038" stroke="#E8E8E8" stroke-width="0.439236"/>
<path d="M55.344 46.3394H484.038" stroke="#E8E8E8" stroke-width="0.439236"/>
<path d="M97.5106 69.8835H78.1842V160.76H97.5106V69.8835Z" fill="#93B8FA"/>
<path d="M116.837 28.9895H97.5106V160.76H116.837V28.9895Z" fill="#1041B6"/>
<path d="M78.0296 172.271H75.851V173.866H77.9383V174.485H75.851V176.572H75.1974V171.653H78.0296V172.271ZM79.5379 175.096C79.5988 175.41 79.7418 175.654 79.9666 175.827C80.1962 176 80.4773 176.087 80.81 176.087C81.2738 176.087 81.6111 175.916 81.822 175.574L82.342 175.869C82 176.399 81.4846 176.663 80.7959 176.663C80.2384 176.663 79.7839 176.49 79.4325 176.143C79.0858 175.792 78.9125 175.349 78.9125 174.815C78.9125 174.285 79.0835 173.845 79.4255 173.494C79.7675 173.143 80.2102 172.967 80.7538 172.967C81.2692 172.967 81.6884 173.15 82.0117 173.515C82.3397 173.876 82.5037 174.312 82.5037 174.822C82.5037 174.911 82.4966 175.002 82.4826 175.096H79.5379ZM80.7538 173.543C80.4258 173.543 80.154 173.637 79.9385 173.824C79.723 174.007 79.5895 174.253 79.5379 174.562H81.8852C81.8337 174.229 81.7025 173.976 81.4917 173.803C81.2808 173.63 81.0349 173.543 80.7538 173.543ZM85.4976 172.967C85.9895 172.967 86.4088 173.147 86.7556 173.508C87.1022 173.864 87.2756 174.299 87.2756 174.815C87.2756 175.331 87.1022 175.768 86.7556 176.129C86.4088 176.485 85.9895 176.663 85.4976 176.663C84.9166 176.663 84.4738 176.432 84.1693 175.968V176.572H83.5579V171.653H84.1693V173.663C84.4738 173.199 84.9166 172.967 85.4976 172.967ZM85.4203 176.073C85.7717 176.073 86.0668 175.954 86.3058 175.715C86.5447 175.471 86.6642 175.171 86.6642 174.815C86.6642 174.459 86.5447 174.162 86.3058 173.923C86.0668 173.679 85.7717 173.557 85.4203 173.557C85.0641 173.557 84.7667 173.679 84.5278 173.923C84.2888 174.162 84.1693 174.459 84.1693 174.815C84.1693 175.171 84.2888 175.471 84.5278 175.715C84.7667 175.954 85.0641 176.073 85.4203 176.073ZM90.2544 176.572V176.038L91.9903 174.267C92.4541 173.803 92.686 173.405 92.686 173.072C92.686 172.796 92.6017 172.58 92.433 172.426C92.2644 172.271 92.0579 172.194 91.8146 172.194C91.3507 172.194 91.0134 172.414 90.8026 172.854L90.2544 172.531C90.409 172.212 90.6216 171.972 90.8939 171.807C91.1698 171.643 91.4746 171.561 91.8076 171.561C92.2196 171.561 92.578 171.697 92.8828 171.969C93.1868 172.24 93.3396 172.606 93.3396 173.065C93.3396 173.562 93.0462 174.103 92.4611 174.689L91.2032 175.94H93.431V176.572H90.2544ZM96.8913 174.028C97.1302 174.15 97.3182 174.314 97.4535 174.52C97.5896 174.726 97.6573 174.96 97.6573 175.223C97.6573 175.673 97.5009 176.027 97.1864 176.284C96.8728 176.537 96.4678 176.663 95.9706 176.663C95.4787 176.663 95.0763 176.537 94.7619 176.284C94.4482 176.027 94.291 175.673 94.291 175.223C94.291 174.96 94.3595 174.726 94.4948 174.52C94.631 174.314 94.8181 174.15 95.057 174.028C94.6547 173.775 94.4526 173.417 94.4526 172.953C94.4526 172.507 94.6002 172.166 94.8954 171.927C95.1958 171.683 95.5542 171.561 95.9706 171.561C96.3923 171.561 96.7507 171.683 97.0459 171.927C97.3463 172.166 97.4957 172.507 97.4957 172.953C97.4957 173.417 97.2945 173.775 96.8913 174.028ZM95.9706 172.187C95.7229 172.187 95.5138 172.253 95.3452 172.384C95.1818 172.514 95.0992 172.709 95.0992 172.967C95.0992 173.215 95.1835 173.41 95.3522 173.55C95.5209 173.686 95.7273 173.754 95.9706 173.754C96.2148 173.754 96.4204 173.686 96.5891 173.55C96.7577 173.41 96.8421 173.215 96.8421 172.967C96.8421 172.709 96.7604 172.514 96.5961 172.384C96.4327 172.253 96.2236 172.187 95.9706 172.187ZM95.9706 176.038C96.2851 176.038 96.5355 175.965 96.7226 175.82C96.915 175.67 97.0107 175.457 97.0107 175.181C97.0107 174.909 96.915 174.7 96.7226 174.555C96.5355 174.405 96.2851 174.33 95.9706 174.33C95.6614 174.33 95.411 174.405 95.2187 174.555C95.0315 174.7 94.9375 174.909 94.9375 175.181C94.9375 175.457 95.0315 175.67 95.2187 175.82C95.411 175.965 95.6614 176.038 95.9706 176.038ZM99.6514 175.848L99.1946 177.556H98.6675L98.9486 175.848H99.6514ZM102.764 176.572V176.038L104.5 174.267C104.964 173.803 105.195 173.405 105.195 173.072C105.195 172.796 105.111 172.58 104.942 172.426C104.774 172.271 104.568 172.194 104.324 172.194C103.86 172.194 103.523 172.414 103.312 172.854L102.764 172.531C102.918 172.212 103.132 171.972 103.403 171.807C103.68 171.643 103.985 171.561 104.317 171.561C104.73 171.561 105.088 171.697 105.392 171.969C105.697 172.24 105.849 172.606 105.849 173.065C105.849 173.562 105.557 174.103 104.971 174.689L103.713 175.94H105.94V176.572H102.764ZM110.112 175.968C109.779 176.432 109.313 176.663 108.714 176.663C108.114 176.663 107.647 176.432 107.315 175.968C106.982 175.504 106.816 174.885 106.816 174.112C106.816 173.339 106.982 172.721 107.315 172.257C107.647 171.793 108.114 171.561 108.714 171.561C109.313 171.561 109.779 171.793 110.112 172.257C110.444 172.721 110.611 173.339 110.611 174.112C110.611 174.885 110.444 175.504 110.112 175.968ZM107.793 175.525C108.008 175.858 108.315 176.024 108.714 176.024C109.112 176.024 109.418 175.858 109.634 175.525C109.854 175.192 109.965 174.721 109.965 174.112C109.965 173.504 109.854 173.033 109.634 172.7C109.418 172.362 109.112 172.194 108.714 172.194C108.315 172.194 108.008 172.36 107.793 172.693C107.577 173.026 107.47 173.498 107.47 174.112C107.47 174.721 107.577 175.192 107.793 175.525ZM111.441 176.572V176.038L113.177 174.267C113.641 173.803 113.873 173.405 113.873 173.072C113.873 172.796 113.789 172.58 113.62 172.426C113.451 172.271 113.246 172.194 113.002 172.194C112.538 172.194 112.2 172.414 111.99 172.854L111.441 172.531C111.596 172.212 111.809 171.972 112.081 171.807C112.358 171.643 112.662 171.561 112.995 171.561C113.407 171.561 113.766 171.697 114.07 171.969C114.375 172.24 114.527 172.606 114.527 173.065C114.527 173.562 114.234 174.103 113.648 174.689L112.39 175.94H114.618V176.572H111.441ZM117.398 173.67C117.773 173.74 118.08 173.902 118.319 174.155C118.558 174.408 118.677 174.728 118.677 175.117C118.677 175.595 118.513 175.972 118.185 176.249C117.858 176.526 117.459 176.663 116.991 176.663C116.616 176.663 116.284 176.579 115.993 176.41C115.702 176.237 115.496 175.989 115.374 175.665L115.922 175.342C116.067 175.796 116.424 176.024 116.991 176.024C117.296 176.024 117.543 175.944 117.736 175.785C117.928 175.626 118.024 175.403 118.024 175.117C118.024 174.832 117.928 174.609 117.736 174.45C117.543 174.285 117.296 174.204 116.991 174.204H116.822L116.562 173.803L117.7 172.264H115.515V171.653H118.467V172.229L117.398 173.67Z" fill="#75829A"/>
<path d="M183.601 69.8835H164.274V160.76H183.601V69.8835Z" fill="#93B8FA"/>
<path d="M202.927 28.9895H183.601V160.76H202.927V28.9895Z" fill="#1041B6"/>
<path d="M165.891 171.653V176.572H165.244V172.728L163.635 175.405H163.551L161.941 172.735V176.572H161.288V171.653H162.026L163.593 174.253L165.153 171.653H165.891ZM170.141 173.058H170.752V176.572H170.141V175.968C169.836 176.432 169.393 176.663 168.813 176.663C168.321 176.663 167.901 176.485 167.555 176.129C167.208 175.768 167.035 175.331 167.035 174.815C167.035 174.299 167.208 173.864 167.555 173.508C167.901 173.147 168.321 172.967 168.813 172.967C169.393 172.967 169.836 173.199 170.141 173.663V173.058ZM168.89 176.073C169.246 176.073 169.543 175.954 169.782 175.715C170.021 175.471 170.141 175.171 170.141 174.815C170.141 174.459 170.021 174.162 169.782 173.923C169.543 173.679 169.246 173.557 168.89 173.557C168.538 173.557 168.243 173.679 168.004 173.923C167.765 174.162 167.646 174.459 167.646 174.815C167.646 175.171 167.765 175.471 168.004 175.715C168.243 175.954 168.538 176.073 168.89 176.073ZM172.641 173.649C172.842 173.213 173.208 172.995 173.737 172.995V173.634C173.438 173.62 173.179 173.7 172.964 173.873C172.749 174.046 172.641 174.326 172.641 174.71V176.572H172.03V173.058H172.641V173.649ZM176.584 176.572V176.038L178.32 174.267C178.784 173.803 179.016 173.405 179.016 173.072C179.016 172.796 178.932 172.58 178.763 172.426C178.594 172.271 178.388 172.194 178.145 172.194C177.681 172.194 177.343 172.414 177.133 172.854L176.584 172.531C176.739 172.212 176.952 171.972 177.224 171.807C177.501 171.643 177.805 171.561 178.138 171.561C178.55 171.561 178.908 171.697 179.213 171.969C179.518 172.24 179.67 172.606 179.67 173.065C179.67 173.562 179.377 174.103 178.791 174.689L177.533 175.94H179.761V176.572H176.584ZM183.222 174.028C183.461 174.15 183.648 174.314 183.784 174.52C183.92 174.726 183.988 174.96 183.988 175.223C183.988 175.673 183.831 176.027 183.517 176.284C183.203 176.537 182.798 176.663 182.302 176.663C181.81 176.663 181.406 176.537 181.093 176.284C180.778 176.027 180.622 175.673 180.622 175.223C180.622 174.96 180.69 174.726 180.826 174.52C180.961 174.314 181.149 174.15 181.388 174.028C180.985 173.775 180.784 173.417 180.784 172.953C180.784 172.507 180.931 172.166 181.226 171.927C181.526 171.683 181.884 171.561 182.302 171.561C182.723 171.561 183.082 171.683 183.377 171.927C183.676 172.166 183.827 172.507 183.827 172.953C183.827 173.417 183.624 173.775 183.222 174.028ZM182.302 172.187C182.053 172.187 181.845 172.253 181.676 172.384C181.512 172.514 181.43 172.709 181.43 172.967C181.43 173.215 181.514 173.41 181.683 173.55C181.852 173.686 182.057 173.754 182.302 173.754C182.545 173.754 182.751 173.686 182.92 173.55C183.089 173.41 183.173 173.215 183.173 172.967C183.173 172.709 183.09 172.514 182.927 172.384C182.763 172.253 182.554 172.187 182.302 172.187ZM182.302 176.038C182.615 176.038 182.865 175.965 183.053 175.82C183.245 175.67 183.342 175.457 183.342 175.181C183.342 174.909 183.245 174.7 183.053 174.555C182.865 174.405 182.615 174.33 182.302 174.33C181.992 174.33 181.741 174.405 181.55 174.555C181.362 174.7 181.268 174.909 181.268 175.181C181.268 175.457 181.362 175.67 181.55 175.82C181.741 175.965 181.992 176.038 182.302 176.038ZM185.981 175.848L185.525 177.556H184.998L185.279 175.848H185.981ZM189.095 176.572V176.038L190.831 174.267C191.294 173.803 191.526 173.405 191.526 173.072C191.526 172.796 191.442 172.58 191.273 172.426C191.105 172.271 190.898 172.194 190.655 172.194C190.191 172.194 189.854 172.414 189.643 172.854L189.095 172.531C189.249 172.212 189.462 171.972 189.734 171.807C190.01 171.643 190.315 171.561 190.648 171.561C191.06 171.561 191.418 171.697 191.723 171.969C192.027 172.24 192.18 172.606 192.18 173.065C192.18 173.562 191.887 174.103 191.301 174.689L190.043 175.94H192.271V176.572H189.095ZM196.442 175.968C196.11 176.432 195.644 176.663 195.044 176.663C194.445 176.663 193.978 176.432 193.645 175.968C193.313 175.504 193.146 174.885 193.146 174.112C193.146 173.339 193.313 172.721 193.645 172.257C193.978 171.793 194.445 171.561 195.044 171.561C195.644 171.561 196.11 171.793 196.442 172.257C196.775 172.721 196.941 173.339 196.941 174.112C196.941 174.885 196.775 175.504 196.442 175.968ZM194.123 175.525C194.339 175.858 194.646 176.024 195.044 176.024C195.443 176.024 195.749 175.858 195.964 175.525C196.185 175.192 196.295 174.721 196.295 174.112C196.295 173.504 196.185 173.033 195.964 172.7C195.749 172.362 195.443 172.194 195.044 172.194C194.646 172.194 194.339 172.36 194.123 172.693C193.908 173.026 193.8 173.498 193.8 174.112C193.8 174.721 193.908 175.192 194.123 175.525ZM197.772 176.572V176.038L199.508 174.267C199.972 173.803 200.204 173.405 200.204 173.072C200.204 172.796 200.12 172.58 199.951 172.426C199.782 172.271 199.576 172.194 199.332 172.194C198.869 172.194 198.531 172.414 198.32 172.854L197.772 172.531C197.927 172.212 198.139 171.972 198.412 171.807C198.688 171.643 198.992 171.561 199.325 171.561C199.737 171.561 200.096 171.697 200.401 171.969C200.705 172.24 200.857 172.606 200.857 173.065C200.857 173.562 200.564 174.103 199.979 174.689L198.721 175.94H200.949V176.572H197.772ZM203.728 173.67C204.103 173.74 204.41 173.902 204.649 174.155C204.888 174.408 205.007 174.728 205.007 175.117C205.007 175.595 204.844 175.972 204.515 176.249C204.188 176.526 203.79 176.663 203.321 176.663C202.946 176.663 202.614 176.579 202.323 176.41C202.033 176.237 201.826 175.989 201.704 175.665L202.252 175.342C202.398 175.796 202.754 176.024 203.321 176.024C203.626 176.024 203.874 175.944 204.066 175.785C204.258 175.626 204.354 175.403 204.354 175.117C204.354 174.832 204.258 174.609 204.066 174.45C203.874 174.285 203.626 174.204 203.321 174.204H203.152L202.892 173.803L204.03 172.264H201.845V171.653H204.797V172.229L203.728 173.67Z" fill="#75829A"/>
<path d="M269.667 69.4924H250.365V160.759H269.667V69.4924Z" fill="#93B8FA"/>
<path d="M288.97 28.9895H269.667V160.76H288.97V28.9895Z" fill="#1041B6"/>
<path d="M252.375 176.572L251.974 175.469H249.76L249.36 176.572H248.664L250.498 171.653H251.236L253.07 176.572H252.375ZM249.985 174.857H251.749L250.864 172.433L249.985 174.857ZM255.879 172.967C256.371 172.967 256.79 173.147 257.137 173.508C257.483 173.864 257.657 174.299 257.657 174.815C257.657 175.331 257.483 175.768 257.137 176.129C256.79 176.485 256.371 176.663 255.879 176.663C255.297 176.663 254.854 176.432 254.551 175.968V177.978H253.939V173.058H254.551V173.663C254.854 173.199 255.297 172.967 255.879 172.967ZM255.801 176.073C256.153 176.073 256.448 175.954 256.687 175.715C256.926 175.471 257.045 175.171 257.045 174.815C257.045 174.459 256.926 174.162 256.687 173.923C256.448 173.679 256.153 173.557 255.801 173.557C255.445 173.557 255.148 173.679 254.909 173.923C254.67 174.162 254.551 174.459 254.551 174.815C254.551 175.171 254.67 175.471 254.909 175.715C255.148 175.954 255.445 176.073 255.801 176.073ZM259.349 173.649C259.55 173.213 259.915 172.995 260.445 172.995V173.634C260.146 173.62 259.887 173.7 259.672 173.873C259.457 174.046 259.349 174.326 259.349 174.71V176.572H258.737V173.058H259.349V173.649ZM263.292 176.572V176.038L265.028 174.267C265.492 173.803 265.724 173.405 265.724 173.072C265.724 172.796 265.639 172.58 265.471 172.426C265.302 172.271 265.096 172.194 264.852 172.194C264.389 172.194 264.051 172.414 263.84 172.854L263.292 172.531C263.447 172.212 263.66 171.972 263.932 171.807C264.208 171.643 264.512 171.561 264.845 171.561C265.257 171.561 265.616 171.697 265.921 171.969C266.225 172.24 266.377 172.606 266.377 173.065C266.377 173.562 266.085 174.103 265.499 174.689L264.241 175.94H266.469V176.572H263.292ZM267.086 171.653H270.157V172.236L268.365 176.572H267.684L269.462 172.271H267.086V171.653ZM271.076 175.848L270.62 177.556H270.092L270.374 175.848H271.076ZM274.19 176.572V176.038L275.925 174.267C276.389 173.803 276.621 173.405 276.621 173.072C276.621 172.796 276.537 172.58 276.368 172.426C276.2 172.271 275.993 172.194 275.75 172.194C275.286 172.194 274.949 172.414 274.738 172.854L274.19 172.531C274.344 172.212 274.557 171.972 274.829 171.807C275.105 171.643 275.41 171.561 275.743 171.561C276.155 171.561 276.513 171.697 276.818 171.969C277.122 172.24 277.275 172.606 277.275 173.065C277.275 173.562 276.981 174.103 276.396 174.689L275.138 175.94H277.366V176.572H274.19ZM281.537 175.968C281.205 176.432 280.739 176.663 280.139 176.663C279.54 176.663 279.073 176.432 278.74 175.968C278.408 175.504 278.241 174.885 278.241 174.112C278.241 173.339 278.408 172.721 278.74 172.257C279.073 171.793 279.54 171.561 280.139 171.561C280.739 171.561 281.205 171.793 281.537 172.257C281.87 172.721 282.036 173.339 282.036 174.112C282.036 174.885 281.87 175.504 281.537 175.968ZM279.218 175.525C279.434 175.858 279.741 176.024 280.139 176.024C280.537 176.024 280.844 175.858 281.059 175.525C281.28 175.192 281.39 174.721 281.39 174.112C281.39 173.504 281.28 173.033 281.059 172.7C280.844 172.362 280.537 172.194 280.139 172.194C279.741 172.194 279.434 172.36 279.218 172.693C279.003 173.026 278.895 173.498 278.895 174.112C278.895 174.721 279.003 175.192 279.218 175.525ZM282.867 176.572V176.038L284.603 174.267C285.067 173.803 285.299 173.405 285.299 173.072C285.299 172.796 285.214 172.58 285.046 172.426C284.877 172.271 284.671 172.194 284.427 172.194C283.963 172.194 283.626 172.414 283.415 172.854L282.867 172.531C283.022 172.212 283.235 171.972 283.507 171.807C283.783 171.643 284.087 171.561 284.42 171.561C284.832 171.561 285.191 171.697 285.496 171.969C285.8 172.24 285.952 172.606 285.952 173.065C285.952 173.562 285.66 174.103 285.074 174.689L283.816 175.94H286.044V176.572H282.867ZM288.824 173.67C289.198 173.74 289.506 173.902 289.745 174.155C289.984 174.408 290.103 174.728 290.103 175.117C290.103 175.595 289.939 175.972 289.611 176.249C289.283 176.526 288.885 176.663 288.416 176.663C288.041 176.663 287.708 176.579 287.419 176.41C287.128 176.237 286.921 175.989 286.8 175.665L287.348 175.342C287.493 175.796 287.849 176.024 288.416 176.024C288.72 176.024 288.969 175.944 289.161 175.785C289.353 175.626 289.45 175.403 289.45 175.117C289.45 174.832 289.353 174.609 289.161 174.45C288.969 174.285 288.72 174.204 288.416 174.204H288.248L287.988 173.803L289.126 172.264H286.941V171.653H289.892V172.229L288.824 173.67Z" fill="#75829A"/>
<path d="M355.757 69.4924H336.455V160.759H355.757V69.4924Z" fill="#93B8FA"/>
<path d="M375.06 28.9895H355.757V160.76H375.06V28.9895Z" fill="#1041B6"/>
<path d="M338.95 171.653V176.572H338.303V172.728L336.694 175.405H336.609L335 172.735V176.572H334.346V171.653H335.084L336.652 174.253L338.212 171.653H338.95ZM343.2 173.058H343.811V176.572H343.2V175.968C342.895 176.432 342.452 176.663 341.871 176.663C341.379 176.663 340.96 176.485 340.613 176.129C340.266 175.768 340.093 175.331 340.093 174.815C340.093 174.299 340.266 173.864 340.613 173.508C340.96 173.147 341.379 172.967 341.871 172.967C342.452 172.967 342.895 173.199 343.2 173.663V173.058ZM341.949 176.073C342.304 176.073 342.602 175.954 342.841 175.715C343.08 175.471 343.2 175.171 343.2 174.815C343.2 174.459 343.08 174.162 342.841 173.923C342.602 173.679 342.304 173.557 341.949 173.557C341.597 173.557 341.302 173.679 341.063 173.923C340.824 174.162 340.705 174.459 340.705 174.815C340.705 175.171 340.824 175.471 341.063 175.715C341.302 175.954 341.597 176.073 341.949 176.073ZM347.541 173.058H348.195L346.761 176.79C346.611 177.188 346.4 177.49 346.128 177.697C345.861 177.907 345.552 178.001 345.201 177.978V177.408C345.632 177.441 345.948 177.202 346.15 176.692L346.213 176.558L344.681 173.058H345.334L346.529 175.813L347.541 173.058ZM350.954 176.572V176.038L352.69 174.267C353.154 173.803 353.386 173.405 353.386 173.072C353.386 172.796 353.301 172.58 353.133 172.426C352.964 172.271 352.758 172.194 352.514 172.194C352.05 172.194 351.713 172.414 351.502 172.854L350.954 172.531C351.109 172.212 351.322 171.972 351.593 171.807C351.87 171.643 352.175 171.561 352.507 171.561C352.92 171.561 353.278 171.697 353.582 171.969C353.887 172.24 354.039 172.606 354.039 173.065C354.039 173.562 353.747 174.103 353.161 174.689L351.903 175.94H354.13V176.572H350.954ZM357.592 174.028C357.831 174.15 358.018 174.314 358.154 174.52C358.29 174.726 358.358 174.96 358.358 175.223C358.358 175.673 358.2 176.027 357.887 176.284C357.573 176.537 357.167 176.663 356.671 176.663C356.179 176.663 355.776 176.537 355.462 176.284C355.149 176.027 354.991 175.673 354.991 175.223C354.991 174.96 355.059 174.726 355.195 174.52C355.331 174.314 355.518 174.15 355.757 174.028C355.354 173.775 355.153 173.417 355.153 172.953C355.153 172.507 355.301 172.166 355.596 171.927C355.895 171.683 356.254 171.561 356.671 171.561C357.093 171.561 357.451 171.683 357.746 171.927C358.046 172.166 358.196 172.507 358.196 172.953C358.196 173.417 357.995 173.775 357.592 174.028ZM356.671 172.187C356.422 172.187 356.214 172.253 356.046 172.384C355.881 172.514 355.8 172.709 355.8 172.967C355.8 173.215 355.884 173.41 356.053 173.55C356.221 173.686 356.428 173.754 356.671 173.754C356.914 173.754 357.121 173.686 357.289 173.55C357.458 173.41 357.542 173.215 357.542 172.967C357.542 172.709 357.461 172.514 357.296 172.384C357.132 172.253 356.924 172.187 356.671 172.187ZM356.671 176.038C356.985 176.038 357.236 175.965 357.423 175.82C357.615 175.67 357.711 175.457 357.711 175.181C357.711 174.909 357.615 174.7 357.423 174.555C357.236 174.405 356.985 174.33 356.671 174.33C356.362 174.33 356.111 174.405 355.919 174.555C355.732 174.7 355.638 174.909 355.638 175.181C355.638 175.457 355.732 175.67 355.919 175.82C356.111 175.965 356.362 176.038 356.671 176.038ZM360.351 175.848L359.894 177.556H359.367L359.648 175.848H360.351ZM361.356 176.572V176.038L363.092 174.267C363.556 173.803 363.788 173.405 363.788 173.072C363.788 172.796 363.703 172.58 363.535 172.426C363.366 172.271 363.159 172.194 362.916 172.194C362.452 172.194 362.115 172.414 361.904 172.854L361.356 172.531C361.511 172.212 361.723 171.972 361.995 171.807C362.271 171.643 362.576 171.561 362.909 171.561C363.321 171.561 363.679 171.697 363.984 171.969C364.288 172.24 364.441 172.606 364.441 173.065C364.441 173.562 364.148 174.103 363.563 174.689L362.305 175.94H364.532V176.572H361.356ZM368.703 175.968C368.371 176.432 367.905 176.663 367.305 176.663C366.706 176.663 366.239 176.432 365.906 175.968C365.574 175.504 365.407 174.885 365.407 174.112C365.407 173.339 365.574 172.721 365.906 172.257C366.239 171.793 366.706 171.561 367.305 171.561C367.905 171.561 368.371 171.793 368.703 172.257C369.036 172.721 369.202 173.339 369.202 174.112C369.202 174.885 369.036 175.504 368.703 175.968ZM366.384 175.525C366.6 175.858 366.907 176.024 367.305 176.024C367.704 176.024 368.01 175.858 368.226 175.525C368.446 175.192 368.556 174.721 368.556 174.112C368.556 173.504 368.446 173.033 368.226 172.7C368.01 172.362 367.704 172.194 367.305 172.194C366.907 172.194 366.6 172.36 366.384 172.693C366.169 173.026 366.061 173.498 366.061 174.112C366.061 174.721 366.169 175.192 366.384 175.525ZM370.033 176.572V176.038L371.769 174.267C372.233 173.803 372.465 173.405 372.465 173.072C372.465 172.796 372.381 172.58 372.212 172.426C372.043 172.271 371.837 172.194 371.594 172.194C371.13 172.194 370.792 172.414 370.582 172.854L370.033 172.531C370.188 172.212 370.402 171.972 370.673 171.807C370.95 171.643 371.254 171.561 371.587 171.561C371.999 171.561 372.357 171.697 372.662 171.969C372.967 172.24 373.119 172.606 373.119 173.065C373.119 173.562 372.826 174.103 372.24 174.689L370.982 175.94H373.21V176.572H370.033ZM375.99 173.67C376.365 173.74 376.672 173.902 376.911 174.155C377.15 174.408 377.269 174.728 377.269 175.117C377.269 175.595 377.105 175.972 376.777 176.249C376.449 176.526 376.051 176.663 375.583 176.663C375.208 176.663 374.875 176.579 374.585 176.41C374.294 176.237 374.088 175.989 373.966 175.665L374.515 175.342C374.659 175.796 375.015 176.024 375.583 176.024C375.887 176.024 376.135 175.944 376.328 175.785C376.519 175.626 376.616 175.403 376.616 175.117C376.616 174.832 376.519 174.609 376.328 174.45C376.135 174.285 375.887 174.204 375.583 174.204H375.414L375.154 173.803L376.293 172.264H374.107V171.653H377.059V172.229L375.99 173.67Z" fill="#75829A"/>
<path d="M442.726 28.9895H423.423V160.76H442.726V28.9895Z" fill="#93B8FA"/>
<path d="M462.029 28.9895H442.726V160.76H462.029V28.9895Z" fill="#1041B6"/>
<path d="M421.716 176.663C421.36 176.663 421.045 176.589 420.774 176.439C420.503 176.288 420.303 176.07 420.177 175.785L420.732 175.462C420.877 175.837 421.205 176.024 421.716 176.024C422.029 176.024 422.275 175.949 422.454 175.799C422.632 175.649 422.721 175.427 422.721 175.131V171.653H423.367V175.131C423.367 175.623 423.21 176.003 422.896 176.27C422.587 176.533 422.194 176.663 421.716 176.663ZM427.068 173.058H427.68V176.572H427.068V176.066C426.82 176.464 426.44 176.663 425.93 176.663C425.518 176.663 425.187 176.534 424.939 176.277C424.69 176.014 424.566 175.661 424.566 175.216V173.058H425.178V175.181C425.178 175.466 425.255 175.689 425.41 175.848C425.564 176.003 425.778 176.08 426.049 176.08C426.354 176.08 426.6 175.986 426.787 175.799C426.974 175.607 427.068 175.314 427.068 174.921V173.058ZM430.712 172.967C431.124 172.967 431.454 173.098 431.703 173.36C431.951 173.618 432.075 173.969 432.075 174.415V176.572H431.464V174.45C431.464 174.164 431.387 173.944 431.232 173.789C431.078 173.63 430.864 173.55 430.593 173.55C430.288 173.55 430.042 173.646 429.855 173.838C429.667 174.025 429.574 174.316 429.574 174.71V176.572H428.962V173.058H429.574V173.564C429.821 173.166 430.201 172.967 430.712 172.967ZM435.177 176.572V176.038L436.913 174.267C437.377 173.803 437.609 173.405 437.609 173.072C437.609 172.796 437.525 172.58 437.356 172.426C437.187 172.271 436.982 172.194 436.738 172.194C436.274 172.194 435.936 172.414 435.726 172.854L435.177 172.531C435.332 172.212 435.545 171.972 435.817 171.807C436.094 171.643 436.398 171.561 436.731 171.561C437.143 171.561 437.502 171.697 437.806 171.969C438.111 172.24 438.263 172.606 438.263 173.065C438.263 173.562 437.97 174.103 437.384 174.689L436.126 175.94H438.354V176.572H435.177ZM441.815 174.028C442.054 174.15 442.241 174.314 442.377 174.52C442.513 174.726 442.581 174.96 442.581 175.223C442.581 175.673 442.424 176.027 442.11 176.284C441.797 176.537 441.391 176.663 440.894 176.663C440.403 176.663 439.999 176.537 439.686 176.284C439.372 176.027 439.215 175.673 439.215 175.223C439.215 174.96 439.282 174.726 439.419 174.52C439.555 174.314 439.742 174.15 439.981 174.028C439.578 173.775 439.376 173.417 439.376 172.953C439.376 172.507 439.524 172.166 439.819 171.927C440.119 171.683 440.477 171.561 440.894 171.561C441.316 171.561 441.675 171.683 441.97 171.927C442.269 172.166 442.419 172.507 442.419 172.953C442.419 173.417 442.218 173.775 441.815 174.028ZM440.894 172.187C440.646 172.187 440.438 172.253 440.269 172.384C440.105 172.514 440.023 172.709 440.023 172.967C440.023 173.215 440.107 173.41 440.276 173.55C440.445 173.686 440.651 173.754 440.894 173.754C441.138 173.754 441.344 173.686 441.513 173.55C441.682 173.41 441.766 173.215 441.766 172.967C441.766 172.709 441.684 172.514 441.52 172.384C441.356 172.253 441.147 172.187 440.894 172.187ZM440.894 176.038C441.208 176.038 441.459 175.965 441.646 175.82C441.839 175.67 441.935 175.457 441.935 175.181C441.935 174.909 441.839 174.7 441.646 174.555C441.459 174.405 441.208 174.33 440.894 174.33C440.585 174.33 440.335 174.405 440.142 174.555C439.955 174.7 439.861 174.909 439.861 175.181C439.861 175.457 439.955 175.67 440.142 175.82C440.335 175.965 440.585 176.038 440.894 176.038ZM444.574 175.848L444.118 177.556H443.59L443.872 175.848H444.574ZM447.688 176.572V176.038L449.424 174.267C449.887 173.803 450.119 173.405 450.119 173.072C450.119 172.796 450.035 172.58 449.866 172.426C449.698 172.271 449.491 172.194 449.248 172.194C448.784 172.194 448.447 172.414 448.236 172.854L447.688 172.531C447.842 172.212 448.055 171.972 448.327 171.807C448.603 171.643 448.908 171.561 449.241 171.561C449.653 171.561 450.011 171.697 450.316 171.969C450.62 172.24 450.773 172.606 450.773 173.065C450.773 173.562 450.479 174.103 449.894 174.689L448.636 175.94H450.864V176.572H447.688ZM455.035 175.968C454.703 176.432 454.237 176.663 453.637 176.663C453.038 176.663 452.571 176.432 452.238 175.968C451.906 175.504 451.739 174.885 451.739 174.112C451.739 173.339 451.906 172.721 452.238 172.257C452.571 171.793 453.038 171.561 453.637 171.561C454.237 171.561 454.703 171.793 455.035 172.257C455.368 172.721 455.534 173.339 455.534 174.112C455.534 174.885 455.368 175.504 455.035 175.968ZM452.716 175.525C452.932 175.858 453.239 176.024 453.637 176.024C454.036 176.024 454.342 175.858 454.557 175.525C454.778 175.192 454.888 174.721 454.888 174.112C454.888 173.504 454.778 173.033 454.557 172.7C454.342 172.362 454.036 172.194 453.637 172.194C453.239 172.194 452.932 172.36 452.716 172.693C452.501 173.026 452.393 173.498 452.393 174.112C452.393 174.721 452.501 175.192 452.716 175.525ZM456.365 176.572V176.038L458.101 174.267C458.565 173.803 458.797 173.405 458.797 173.072C458.797 172.796 458.712 172.58 458.544 172.426C458.375 172.271 458.169 172.194 457.925 172.194C457.462 172.194 457.124 172.414 456.913 172.854L456.365 172.531C456.52 172.212 456.733 171.972 457.005 171.807C457.281 171.643 457.585 171.561 457.918 171.561C458.33 171.561 458.689 171.697 458.994 171.969C459.298 172.24 459.45 172.606 459.45 173.065C459.45 173.562 459.158 174.103 458.572 174.689L457.314 175.94H459.542V176.572H456.365ZM462.322 173.67C462.696 173.74 463.004 173.902 463.243 174.155C463.482 174.408 463.601 174.728 463.601 175.117C463.601 175.595 463.437 175.972 463.109 176.249C462.781 176.526 462.383 176.663 461.914 176.663C461.539 176.663 461.206 176.579 460.917 176.41C460.626 176.237 460.419 175.989 460.298 175.665L460.846 175.342C460.991 175.796 461.347 176.024 461.914 176.024C462.218 176.024 462.467 175.944 462.659 175.785C462.851 175.626 462.948 175.403 462.948 175.117C462.948 174.832 462.851 174.609 462.659 174.45C462.467 174.285 462.218 174.204 461.914 174.204H461.746L461.486 173.803L462.624 172.264H460.439V171.653H463.39V172.229L462.322 173.67Z" fill="#75829A"/>
<path d="M23.9398 45.3994H24.2159C24.3704 45.3994 24.5188 45.3904 24.6614 45.3726C24.8099 45.3548 24.9406 45.3162 25.0534 45.2568C25.1722 45.1974 25.2672 45.1113 25.3385 44.9984C25.4098 44.8856 25.4454 44.7341 25.4454 44.5441C25.4454 44.3006 25.3623 44.1016 25.196 43.9472C25.0297 43.7928 24.8129 43.7156 24.5456 43.7156C24.3318 43.7156 24.1388 43.778 23.9665 43.9026C23.8003 44.0214 23.6785 44.1907 23.6013 44.4105L22.4699 44.1076C22.5411 43.8759 22.6421 43.674 22.7728 43.5018C22.9034 43.3295 23.0579 43.1899 23.236 43.083C23.4142 42.9702 23.6101 42.887 23.824 42.8336C24.0378 42.7801 24.2606 42.7534 24.4921 42.7534C24.7653 42.7534 25.0237 42.7891 25.2672 42.8603C25.5107 42.9316 25.7245 43.0385 25.9087 43.1811C26.0928 43.3177 26.2383 43.4928 26.3452 43.7066C26.4581 43.9146 26.5145 44.158 26.5145 44.4372C26.5145 44.7757 26.4194 45.0786 26.2294 45.3459C26.0393 45.6072 25.7751 45.7795 25.4365 45.8626V45.8804C25.8403 45.9398 26.1462 46.1121 26.3541 46.3971C26.562 46.6822 26.6659 47.0208 26.6659 47.4127C26.6659 47.7156 26.6065 47.9829 26.4878 48.2145C26.3749 48.4462 26.2204 48.6422 26.0245 48.8025C25.8285 48.9569 25.5998 49.0757 25.3385 49.1589C25.0831 49.2361 24.8159 49.2747 24.5367 49.2747C24.2754 49.2747 24.0289 49.245 23.7973 49.1856C23.5656 49.1322 23.3548 49.046 23.1648 48.9272C22.9806 48.8085 22.8202 48.657 22.6836 48.4729C22.547 48.2829 22.4431 48.0571 22.3719 47.7958L23.5122 47.4929C23.5776 47.7542 23.6933 47.9562 23.8596 48.0987C24.0259 48.2412 24.2516 48.3126 24.5367 48.3126C24.6792 48.3126 24.8129 48.2888 24.9376 48.2412C25.0682 48.1937 25.1811 48.1284 25.2762 48.0452C25.3771 47.9562 25.4543 47.8522 25.5077 47.7335C25.5671 47.6087 25.5968 47.4721 25.5968 47.3237C25.5968 47.1217 25.5523 46.9584 25.4632 46.8337C25.3801 46.703 25.2702 46.605 25.1336 46.5396C25.003 46.4684 24.8544 46.4209 24.6881 46.3971C24.5218 46.3733 24.3585 46.3615 24.1982 46.3615H23.9398V45.3994ZM28.2855 48.5441C28.2855 48.3541 28.3538 48.1908 28.4904 48.0542C28.633 47.9176 28.8022 47.8493 28.9983 47.8493C29.1883 47.8493 29.3546 47.9146 29.4971 48.0452C29.6396 48.176 29.711 48.3363 29.711 48.5264C29.711 48.7164 29.6396 48.8797 29.4971 49.0163C29.3605 49.1529 29.1942 49.2213 28.9983 49.2213C28.9032 49.2213 28.8111 49.2034 28.7221 49.1678C28.6389 49.1322 28.5646 49.0846 28.4993 49.0253C28.434 48.9659 28.3805 48.8945 28.339 48.8114C28.3033 48.7283 28.2855 48.6392 28.2855 48.5441ZM35.2602 43.8225H32.7212L32.6945 45.0786C32.7776 45.049 32.8815 45.0281 33.0063 45.0163C33.1369 45.0044 33.2587 44.9984 33.3715 44.9984C33.6804 44.9984 33.9625 45.049 34.2179 45.1499C34.4792 45.2449 34.7019 45.3845 34.886 45.5686C35.0702 45.7527 35.2127 45.9725 35.3137 46.2279C35.4206 46.4832 35.474 46.7713 35.474 47.092C35.474 47.4306 35.4146 47.7365 35.2958 48.0097C35.183 48.2769 35.0226 48.5056 34.8148 48.6956C34.6128 48.8797 34.3723 49.0223 34.0931 49.1232C33.814 49.2242 33.5141 49.2747 33.1934 49.2747C32.6885 49.2747 32.2579 49.1559 31.9016 48.9184C31.5512 48.6807 31.3017 48.3184 31.1532 47.8314L32.2757 47.5285C32.347 47.7542 32.4687 47.9324 32.641 48.0631C32.8133 48.1937 33.036 48.2591 33.3092 48.2591C33.4695 48.2591 33.6151 48.2324 33.7457 48.1789C33.8823 48.1254 33.9982 48.0512 34.0931 47.9562C34.1941 47.8552 34.2714 47.7394 34.3248 47.6087C34.3783 47.4781 34.405 47.3355 34.405 47.1811C34.405 46.9614 34.3634 46.7743 34.2802 46.6198C34.203 46.4654 34.0961 46.3407 33.9595 46.2457C33.8229 46.1448 33.6656 46.0734 33.4873 46.0319C33.3092 45.9843 33.1221 45.9606 32.9261 45.9606C32.6945 45.9606 32.4629 45.9873 32.2312 46.0407C32.0055 46.0942 31.7977 46.1685 31.6076 46.2635L31.6699 42.8603H35.2602V43.8225ZM37.2094 42.8603H38.92L40.6037 47.2791L42.3053 42.8603H43.998V49.1678H42.9289V43.9294H42.911L40.9957 49.1678H40.2117L38.2963 43.9294H38.2785V49.1678H37.2094V42.8603Z" fill="#6C7A93" fill-opacity="0.95"/>
<path d="M22.4876 86.1208L24.9376 83.7511C25.0089 83.6798 25.0831 83.6056 25.1603 83.5284C25.2375 83.4452 25.3059 83.3591 25.3652 83.27C25.4305 83.1809 25.484 83.0889 25.5256 82.9938C25.5671 82.8929 25.5879 82.789 25.5879 82.6821C25.5879 82.5513 25.5612 82.4356 25.5077 82.3346C25.4602 82.2336 25.3949 82.1475 25.3117 82.0763C25.2286 82.0049 25.1306 81.9515 25.0178 81.9159C24.9109 81.8743 24.795 81.8535 24.6703 81.8535C24.4031 81.8535 24.1834 81.9307 24.0111 82.0851C23.8388 82.2396 23.7349 82.4474 23.6992 82.7088L22.5767 82.6197C22.6005 82.3287 22.6688 82.0733 22.7817 81.8535C22.9004 81.6278 23.0519 81.4407 23.236 81.2922C23.4201 81.1438 23.634 81.0309 23.8775 80.9538C24.121 80.8765 24.3852 80.8379 24.6703 80.8379C24.9554 80.8379 25.2197 80.8765 25.4632 80.9538C25.7127 81.025 25.9295 81.1349 26.1135 81.2834C26.2977 81.4259 26.4432 81.61 26.5501 81.8357C26.657 82.0614 26.7105 82.3257 26.7105 82.6286C26.7105 83.0265 26.6184 83.371 26.4343 83.662C26.2561 83.9471 26.0245 84.2203 25.7394 84.4816L23.7884 86.2901H26.7105V87.2522H22.4876V86.1208ZM28.2855 86.6287C28.2855 86.4386 28.3538 86.2753 28.4904 86.1387C28.633 86.0021 28.8022 85.9337 28.9983 85.9337C29.1883 85.9337 29.3546 85.9991 29.4971 86.1297C29.6396 86.2604 29.711 86.4208 29.711 86.6109C29.711 86.8009 29.6396 86.9642 29.4971 87.1008C29.3605 87.2374 29.1942 87.3057 28.9983 87.3057C28.9032 87.3057 28.8111 87.2879 28.7221 87.2522C28.6389 87.2166 28.5646 87.1691 28.4993 87.1097C28.434 87.0504 28.3805 86.979 28.339 86.8959C28.3033 86.8127 28.2855 86.7237 28.2855 86.6287ZM35.2602 81.907H32.7212L32.6945 83.1631C32.7776 83.1334 32.8815 83.1126 33.0063 83.1007C33.1369 83.0889 33.2587 83.0829 33.3715 83.0829C33.6804 83.0829 33.9625 83.1334 34.2179 83.2344C34.4792 83.3294 34.7019 83.469 34.886 83.6531C35.0702 83.8373 35.2127 84.057 35.3137 84.3123C35.4206 84.5677 35.474 84.8558 35.474 85.1765C35.474 85.515 35.4146 85.8209 35.2958 86.0941C35.183 86.3614 35.0226 86.59 34.8148 86.7801C34.6128 86.9642 34.3723 87.1067 34.0931 87.2077C33.814 87.3087 33.5141 87.3591 33.1934 87.3591C32.6885 87.3591 32.2579 87.2404 31.9016 87.0028C31.5512 86.7653 31.3017 86.4029 31.1532 85.9159L32.2757 85.613C32.347 85.8388 32.4687 86.0169 32.641 86.1475C32.8133 86.2783 33.036 86.3435 33.3092 86.3435C33.4695 86.3435 33.6151 86.3168 33.7457 86.2634C33.8823 86.2099 33.9982 86.1357 34.0931 86.0406C34.1941 85.9397 34.2714 85.8239 34.3248 85.6932C34.3783 85.5626 34.405 85.42 34.405 85.2656C34.405 85.0459 34.3634 84.8587 34.2802 84.7043C34.203 84.55 34.0961 84.4252 33.9595 84.3302C33.8229 84.2292 33.6656 84.1579 33.4873 84.1163C33.3092 84.0688 33.1221 84.0451 32.9261 84.0451C32.6945 84.0451 32.4629 84.0718 32.2312 84.1253C32.0055 84.1787 31.7977 84.2529 31.6076 84.348L31.6699 80.9448H35.2602V81.907ZM37.2094 80.9448H38.92L40.6037 85.3636L42.3053 80.9448H43.998V87.2522H42.9289V82.0139H42.911L40.9957 87.2522H40.2117L38.2963 82.0139H38.2785V87.2522H37.2094V80.9448Z" fill="#6C7A93" fill-opacity="0.95"/>
<path d="M24.3496 120.259L23.1648 121.355L22.5411 120.615L24.4476 119.03H25.4187V125.337H24.3496V120.259ZM28.2855 124.713C28.2855 124.524 28.3538 124.36 28.4904 124.223C28.633 124.087 28.8022 124.019 28.9983 124.019C29.1883 124.019 29.3546 124.084 29.4971 124.215C29.6396 124.345 29.711 124.505 29.711 124.696C29.711 124.886 29.6396 125.049 29.4971 125.185C29.3605 125.322 29.1942 125.391 28.9983 125.391C28.9032 125.391 28.8111 125.372 28.7221 125.337C28.6389 125.301 28.5646 125.254 28.4993 125.194C28.434 125.135 28.3805 125.064 28.339 124.981C28.3033 124.897 28.2855 124.808 28.2855 124.713ZM35.2602 119.992H32.7212L32.6945 121.248C32.7776 121.218 32.8815 121.197 33.0063 121.186C33.1369 121.173 33.2587 121.168 33.3715 121.168C33.6804 121.168 33.9625 121.218 34.2179 121.319C34.4792 121.414 34.7019 121.554 34.886 121.738C35.0702 121.922 35.2127 122.141 35.3137 122.397C35.4206 122.653 35.474 122.941 35.474 123.261C35.474 123.6 35.4146 123.905 35.2958 124.179C35.183 124.446 35.0226 124.675 34.8148 124.865C34.6128 125.049 34.3723 125.191 34.0931 125.292C33.814 125.393 33.5141 125.444 33.1934 125.444C32.6885 125.444 32.2579 125.325 31.9016 125.088C31.5512 124.85 31.3017 124.488 31.1532 124.001L32.2757 123.698C32.347 123.924 32.4687 124.102 32.641 124.232C32.8133 124.363 33.036 124.428 33.3092 124.428C33.4695 124.428 33.6151 124.402 33.7457 124.348C33.8823 124.294 33.9982 124.221 34.0931 124.126C34.1941 124.025 34.2714 123.909 34.3248 123.778C34.3783 123.647 34.405 123.505 34.405 123.35C34.405 123.13 34.3634 122.943 34.2802 122.789C34.203 122.635 34.0961 122.51 33.9595 122.415C33.8229 122.314 33.6656 122.242 33.4873 122.201C33.3092 122.154 33.1221 122.13 32.9261 122.13C32.6945 122.13 32.4629 122.156 32.2312 122.21C32.0055 122.263 31.7977 122.338 31.6076 122.433L31.6699 119.03H35.2602V119.992ZM37.2094 119.03H38.92L40.6037 123.448L42.3052 119.03H43.998V125.337H42.9289V120.099H42.911L40.9957 125.337H40.2117L38.2963 120.099H38.2785V125.337H37.2094V119.03Z" fill="#6C7A93" fill-opacity="0.95"/>
<path d="M30.4989 158.344L29.3141 159.439L28.6904 158.7L30.5969 157.114H31.568V163.421H30.4989V158.344ZM34.5595 157.114H36.2701L37.9538 161.533L39.6553 157.114H41.3481V163.421H40.279V158.183H40.2611L38.3458 163.421H37.5618L35.6464 158.183H35.6286V163.421H34.5595V157.114Z" fill="#6C7A93" fill-opacity="0.95"/>
</svg>
